<?xml version="1.0" encoding="UTF-8" standalone="no"?>
<!DOCTYPE svg PUBLIC "-//W3C//DTD SVG 1.1//EN"
 "http://www.w3.org/Graphics/SVG/1.1/DTD/svg11.dtd">
<!-- Generated by graphviz version 2.43.0 (0)
 -->
<!-- Title: snakemake_dag Pages: 1 -->
<svg width="1101pt" height="584pt"
 viewBox="0.00 0.00 1101.00 584.00" xmlns="http://www.w3.org/2000/svg" xmlns:xlink="http://www.w3.org/1999/xlink">
<g id="graph0" class="graph" transform="scale(1 1) rotate(0) translate(4 580)">
<title>snakemake_dag</title>
<polygon fill="white" stroke="transparent" points="-4,4 -4,-580 1097,-580 1097,4 -4,4"/>
<g id="clust1" class="cluster">
<title>cluster_0</title>
<path fill="white" stroke="black" stroke-width="2" d="M20,-381C20,-381 172,-381 172,-381 178,-381 184,-387 184,-393 184,-393 184,-444 184,-444 184,-450 178,-456 172,-456 172,-456 20,-456 20,-456 14,-456 8,-450 8,-444 8,-444 8,-393 8,-393 8,-387 14,-381 20,-381"/>
<text text-anchor="middle" x="96" y="-444" font-family="sans" font-size="10.00">Input</text>
</g>
<g id="clust2" class="cluster">
<title>cluster_1</title>
<path fill="white" stroke="black" stroke-width="2" d="M116,-144C116,-144 370,-144 370,-144 376,-144 382,-150 382,-156 382,-156 382,-369 382,-369 382,-375 376,-381 370,-381 370,-381 116,-381 116,-381 110,-381 104,-375 104,-369 104,-369 104,-156 104,-156 104,-150 110,-144 116,-144"/>
<text text-anchor="middle" x="243" y="-369" font-family="sans" font-size="10.00">Preprocess</text>
</g>
<g id="clust4" class="cluster">
<title>cluster_2</title>
<path fill="white" stroke="black" stroke-width="2" d="M410,-306C410,-306 468,-306 468,-306 474,-306 480,-312 480,-318 480,-318 480,-369 480,-369 480,-375 474,-381 468,-381 468,-381 410,-381 410,-381 404,-381 398,-375 398,-369 398,-369 398,-318 398,-318 398,-312 404,-306 410,-306"/>
<text text-anchor="middle" x="439" y="-369" font-family="sans" font-size="10.00">Assemble</text>
</g>
<g id="clust5" class="cluster">
<title>cluster_3</title>
<path fill="white" stroke="black" stroke-width="2" d="M500,-261C500,-261 975.5,-261 975.5,-261 981.5,-261 987.5,-267 987.5,-273 987.5,-273 987.5,-556 987.5,-556 987.5,-562 981.5,-568 975.5,-568 975.5,-568 500,-568 500,-568 494,-568 488,-562 488,-556 488,-556 488,-273 488,-273 488,-267 494,-261 500,-261"/>
<text text-anchor="middle" x="737.75" y="-556" font-family="sans" font-size="10.00">Prokaryotes</text>
</g>
<g id="clust6" class="cluster">
<title>cluster_3_1</title>
<path fill="white" stroke="black" stroke-width="2" d="M510,-279C510,-279 765.5,-279 765.5,-279 771.5,-279 777.5,-285 777.5,-291 777.5,-291 777.5,-450 777.5,-450 777.5,-456 771.5,-462 765.5,-462 765.5,-462 510,-462 510,-462 504,-462 498,-456 498,-450 498,-450 498,-291 498,-291 498,-285 504,-279 510,-279"/>
<text text-anchor="middle" x="637.75" y="-450" font-family="sans" font-size="10.00">Cluster</text>
</g>
<g id="clust7" class="cluster">
<title>cluster_3_2</title>
<path fill="white" stroke="black" stroke-width="2" d="M814,-271C814,-271 965.5,-271 965.5,-271 971.5,-271 977.5,-277 977.5,-283 977.5,-283 977.5,-334 977.5,-334 977.5,-340 971.5,-346 965.5,-346 965.5,-346 814,-346 814,-346 808,-346 802,-340 802,-334 802,-334 802,-283 802,-283 802,-277 808,-271 814,-271"/>
<text text-anchor="middle" x="889.75" y="-334" font-family="sans" font-size="10.00">Quantify</text>
</g>
<g id="clust8" class="cluster">
<title>cluster_3_3</title>
<path fill="white" stroke="black" stroke-width="2" d="M811,-356C811,-356 965.5,-356 965.5,-356 971.5,-356 977.5,-362 977.5,-368 977.5,-368 977.5,-527 977.5,-527 977.5,-533 971.5,-539 965.5,-539 965.5,-539 811,-539 811,-539 805,-539 799,-533 799,-527 799,-527 799,-368 799,-368 799,-362 805,-356 811,-356"/>
<text text-anchor="middle" x="888.25" y="-527" font-family="sans" font-size="10.00">Annotate</text>
</g>
<g id="clust9" class="cluster">
<title>cluster_4</title>
<path fill="white" stroke="black" stroke-width="2" d="M501,-8C501,-8 1073,-8 1073,-8 1079,-8 1085,-14 1085,-20 1085,-20 1085,-249 1085,-249 1085,-255 1079,-261 1073,-261 1073,-261 501,-261 501,-261 495,-261 489,-255 489,-249 489,-249 489,-20 489,-20 489,-14 495,-8 501,-8"/>
<text text-anchor="middle" x="787" y="-249" font-family="sans" font-size="10.00">Viruses</text>
</g>
<g id="clust10" class="cluster">
<title>cluster_4_1</title>
<path fill="white" stroke="black" stroke-width="2" d="M511,-130C511,-130 770,-130 770,-130 776,-130 782,-136 782,-142 782,-142 782,-193 782,-193 782,-199 776,-205 770,-205 770,-205 511,-205 511,-205 505,-205 499,-199 499,-193 499,-193 499,-142 499,-142 499,-136 505,-130 511,-130"/>
<text text-anchor="middle" x="640.5" y="-193" font-family="sans" font-size="10.00">Cluster</text>
</g>
<g id="clust11" class="cluster">
<title>cluster_4_2</title>
<path fill="white" stroke="black" stroke-width="2" d="M814,-18C814,-18 965.5,-18 965.5,-18 971.5,-18 977.5,-24 977.5,-30 977.5,-30 977.5,-81 977.5,-81 977.5,-87 971.5,-93 965.5,-93 965.5,-93 814,-93 814,-93 808,-93 802,-87 802,-81 802,-81 802,-30 802,-30 802,-24 808,-18 814,-18"/>
<text text-anchor="middle" x="889.75" y="-81" font-family="sans" font-size="10.00">Quantify</text>
</g>
<g id="clust12" class="cluster">
<title>cluster_4_3</title>
<path fill="white" stroke="black" stroke-width="2" d="M810,-103C810,-103 1063,-103 1063,-103 1069,-103 1075,-109 1075,-115 1075,-115 1075,-220 1075,-220 1075,-226 1069,-232 1063,-232 1063,-232 810,-232 810,-232 804,-232 798,-226 798,-220 798,-220 798,-115 798,-115 798,-109 804,-103 810,-103"/>
<text text-anchor="middle" x="936.5" y="-220" font-family="sans" font-size="10.00">Annotate</text>
</g>
<!-- reference -->
<g id="node1" class="node">
<title>reference</title>
<path fill="none" stroke="#56d86b" stroke-width="2" d="M162,-427C162,-427 120,-427 120,-427 114,-427 108,-421 108,-415 108,-415 108,-403 108,-403 108,-397 114,-391 120,-391 120,-391 162,-391 162,-391 168,-391 174,-397 174,-403 174,-403 174,-415 174,-415 174,-421 168,-427 162,-427"/>
<text text-anchor="middle" x="141" y="-412" font-family="sans" font-size="10.00">Reference</text>
<text text-anchor="middle" x="141" y="-401" font-family="sans" font-size="10.00">Genome</text>
</g>
<!-- bowtie2 -->
<g id="node3" class="node">
<title>bowtie2</title>
<path fill="none" stroke="#566bd8" stroke-width="2" d="M258,-352C258,-352 226,-352 226,-352 220,-352 214,-346 214,-340 214,-340 214,-328 214,-328 214,-322 220,-316 226,-316 226,-316 258,-316 258,-316 264,-316 270,-322 270,-328 270,-328 270,-340 270,-340 270,-346 264,-352 258,-352"/>
<text text-anchor="middle" x="242" y="-337" font-family="sans" font-size="10.00">bowtie2</text>
<text text-anchor="middle" x="242" y="-326" font-family="sans" font-size="10.00">Host</text>
</g>
<!-- reference&#45;&gt;bowtie2 -->
<g id="edge16" class="edge">
<title>reference&#45;&gt;bowtie2</title>
<path fill="none" stroke="grey" stroke-width="2" d="M174.09,-391.61C177.5,-389.48 180.87,-387.26 184,-385 194.77,-377.24 205.83,-367.76 215.3,-359.08"/>
<polygon fill="grey" stroke="grey" stroke-width="2" points="217.92,-361.43 222.84,-352.05 213.14,-356.31 217.92,-361.43"/>
</g>
<!-- fastq -->
<g id="node2" class="node">
<title>fastq</title>
<path fill="none" stroke="#56d873" stroke-width="2" d="M60,-427C60,-427 30,-427 30,-427 24,-427 18,-421 18,-415 18,-415 18,-403 18,-403 18,-397 24,-391 30,-391 30,-391 60,-391 60,-391 66,-391 72,-397 72,-403 72,-403 72,-415 72,-415 72,-421 66,-427 60,-427"/>
<text text-anchor="middle" x="45" y="-412" font-family="sans" font-size="10.00">FASTQ</text>
<text text-anchor="middle" x="45" y="-401" font-family="sans" font-size="10.00">reads</text>
</g>
<!-- fastp -->
<g id="node5" class="node">
<title>fastp</title>
<path fill="none" stroke="#56d892" stroke-width="2" d="M156,-298C156,-298 126,-298 126,-298 120,-298 114,-292 114,-286 114,-286 114,-274 114,-274 114,-268 120,-262 126,-262 126,-262 156,-262 156,-262 162,-262 168,-268 168,-274 168,-274 168,-286 168,-286 168,-292 162,-298 156,-298"/>
<text text-anchor="middle" x="141" y="-277.5" font-family="sans" font-size="10.00">fastp</text>
</g>
<!-- fastq&#45;&gt;fastp -->
<g id="edge17" class="edge">
<title>fastq&#45;&gt;fastp</title>
<path fill="none" stroke="grey" stroke-width="2" d="M59.27,-390.79C75.29,-368.8 102.38,-331.63 120.71,-306.47"/>
<polygon fill="grey" stroke="grey" stroke-width="2" points="123.74,-308.26 126.8,-298.12 118.08,-304.14 123.74,-308.26"/>
</g>
<!-- extract -->
<g id="node4" class="node">
<title>extract</title>
<path fill="none" stroke="#56d8b9" stroke-width="2" d="M360,-352C360,-352 322,-352 322,-352 316,-352 310,-346 310,-340 310,-340 310,-328 310,-328 310,-322 316,-316 322,-316 322,-316 360,-316 360,-316 366,-316 372,-322 372,-328 372,-328 372,-340 372,-340 372,-346 366,-352 360,-352"/>
<text text-anchor="middle" x="341" y="-337" font-family="sans" font-size="10.00">Extract</text>
<text text-anchor="middle" x="341" y="-326" font-family="sans" font-size="10.00">Non&#45;Host</text>
</g>
<!-- bowtie2&#45;&gt;extract -->
<g id="edge5" class="edge">
<title>bowtie2&#45;&gt;extract</title>
<path fill="none" stroke="grey" stroke-width="2" d="M270.02,-327.88C279.17,-327.31 289.61,-327.13 299.57,-327.33"/>
<polygon fill="grey" stroke="grey" stroke-width="2" points="299.59,-330.84 309.71,-327.69 299.84,-323.84 299.59,-330.84"/>
</g>
<!-- extract&#45;&gt;bowtie2 -->
<g id="edge6" class="edge">
<title>extract&#45;&gt;bowtie2</title>
<path fill="none" stroke="grey" stroke-width="2" d="M309.71,-340.31C300.38,-340.78 290,-340.87 280.26,-340.59"/>
<polygon fill="grey" stroke="grey" stroke-width="2" points="280.17,-337.08 270.02,-340.12 279.85,-344.07 280.17,-337.08"/>
</g>
<!-- megahit -->
<g id="node9" class="node">
<title>megahit</title>
<path fill="none" stroke="#d8ac56" stroke-width="2" d="M458,-352C458,-352 420,-352 420,-352 414,-352 408,-346 408,-340 408,-340 408,-328 408,-328 408,-322 414,-316 420,-316 420,-316 458,-316 458,-316 464,-316 470,-322 470,-328 470,-328 470,-340 470,-340 470,-346 464,-352 458,-352"/>
<text text-anchor="middle" x="439" y="-331.5" font-family="sans" font-size="10.00">MEGAHIT</text>
</g>
<!-- extract&#45;&gt;megahit -->
<g id="edge18" class="edge">
<title>extract&#45;&gt;megahit</title>
<path fill="none" stroke="grey" stroke-width="2" d="M372.11,-334C380.24,-334 389.17,-334 397.76,-334"/>
<polygon fill="grey" stroke="grey" stroke-width="2" points="398,-337.5 408,-334 398,-330.5 398,-337.5"/>
</g>
<!-- fastp&#45;&gt;bowtie2 -->
<g id="edge1" class="edge">
<title>fastp&#45;&gt;bowtie2</title>
<path fill="none" stroke="grey" stroke-width="2" d="M168.01,-294.19C179.24,-300.31 192.57,-307.58 204.75,-314.23"/>
<polygon fill="grey" stroke="grey" stroke-width="2" points="203.33,-317.44 213.78,-319.15 206.68,-311.29 203.33,-317.44"/>
</g>
<!-- nonpareil -->
<g id="node6" class="node">
<title>nonpareil</title>
<path fill="none" stroke="#a7d856" stroke-width="2" d="M262,-190C262,-190 222,-190 222,-190 216,-190 210,-184 210,-178 210,-178 210,-166 210,-166 210,-160 216,-154 222,-154 222,-154 262,-154 262,-154 268,-154 274,-160 274,-166 274,-166 274,-178 274,-178 274,-184 268,-190 262,-190"/>
<text text-anchor="middle" x="242" y="-169.5" font-family="sans" font-size="10.00">Nonpareil</text>
</g>
<!-- fastp&#45;&gt;nonpareil -->
<g id="edge2" class="edge">
<title>fastp&#45;&gt;nonpareil</title>
<path fill="none" stroke="grey" stroke-width="2" d="M155.83,-261.93C169.07,-245.04 189.93,-219.44 210,-199 210.63,-198.35 211.28,-197.71 211.94,-197.06"/>
<polygon fill="grey" stroke="grey" stroke-width="2" points="214.37,-199.57 219.26,-190.17 209.58,-194.47 214.37,-199.57"/>
</g>
<!-- singlem -->
<g id="node7" class="node">
<title>singlem</title>
<path fill="none" stroke="#d8ac56" stroke-width="2" d="M258,-244C258,-244 226,-244 226,-244 220,-244 214,-238 214,-232 214,-232 214,-220 214,-220 214,-214 220,-208 226,-208 226,-208 258,-208 258,-208 264,-208 270,-214 270,-220 270,-220 270,-232 270,-232 270,-238 264,-244 258,-244"/>
<text text-anchor="middle" x="242" y="-223.5" font-family="sans" font-size="10.00">SingleM</text>
</g>
<!-- fastp&#45;&gt;singlem -->
<g id="edge3" class="edge">
<title>fastp&#45;&gt;singlem</title>
<path fill="none" stroke="grey" stroke-width="2" d="M168.01,-265.81C179.24,-259.69 192.57,-252.42 204.75,-245.77"/>
<polygon fill="grey" stroke="grey" stroke-width="2" points="206.68,-248.71 213.78,-240.85 203.33,-242.56 206.68,-248.71"/>
</g>
<!-- kraken2 -->
<g id="node8" class="node">
<title>kraken2</title>
<path fill="none" stroke="#61d856" stroke-width="2" d="M258,-298C258,-298 226,-298 226,-298 220,-298 214,-292 214,-286 214,-286 214,-274 214,-274 214,-268 220,-262 226,-262 226,-262 258,-262 258,-262 264,-262 270,-268 270,-274 270,-274 270,-286 270,-286 270,-292 264,-298 258,-298"/>
<text text-anchor="middle" x="242" y="-277.5" font-family="sans" font-size="10.00">kraken2</text>
</g>
<!-- fastp&#45;&gt;kraken2 -->
<g id="edge4" class="edge">
<title>fastp&#45;&gt;kraken2</title>
<path fill="none" stroke="grey" stroke-width="2" d="M168.01,-280C178.91,-280 191.79,-280 203.67,-280"/>
<polygon fill="grey" stroke="grey" stroke-width="2" points="203.78,-283.5 213.78,-280 203.78,-276.5 203.78,-283.5"/>
</g>
<!-- concoct -->
<g id="node10" class="node">
<title>concoct</title>
<path fill="none" stroke="#56d86b" stroke-width="2" d="M561.5,-433C561.5,-433 520.5,-433 520.5,-433 514.5,-433 508.5,-427 508.5,-421 508.5,-421 508.5,-409 508.5,-409 508.5,-403 514.5,-397 520.5,-397 520.5,-397 561.5,-397 561.5,-397 567.5,-397 573.5,-403 573.5,-409 573.5,-409 573.5,-421 573.5,-421 573.5,-427 567.5,-433 561.5,-433"/>
<text text-anchor="middle" x="541" y="-412.5" font-family="sans" font-size="10.00">CONCOCT</text>
</g>
<!-- megahit&#45;&gt;concoct -->
<g id="edge7" class="edge">
<title>megahit&#45;&gt;concoct</title>
<path fill="none" stroke="grey" stroke-width="2" d="M453.28,-352.07C462.21,-363.36 474.74,-377.67 488,-388 491.57,-390.78 495.48,-393.41 499.49,-395.86"/>
<polygon fill="grey" stroke="grey" stroke-width="2" points="497.93,-399 508.35,-400.92 501.4,-392.92 497.93,-399"/>
</g>
<!-- maxbin2 -->
<g id="node11" class="node">
<title>maxbin2</title>
<path fill="none" stroke="#56c9d8" stroke-width="2" d="M558.5,-379C558.5,-379 523.5,-379 523.5,-379 517.5,-379 511.5,-373 511.5,-367 511.5,-367 511.5,-355 511.5,-355 511.5,-349 517.5,-343 523.5,-343 523.5,-343 558.5,-343 558.5,-343 564.5,-343 570.5,-349 570.5,-355 570.5,-355 570.5,-367 570.5,-367 570.5,-373 564.5,-379 558.5,-379"/>
<text text-anchor="middle" x="541" y="-358.5" font-family="sans" font-size="10.00">MaxBin2</text>
</g>
<!-- megahit&#45;&gt;maxbin2 -->
<g id="edge8" class="edge">
<title>megahit&#45;&gt;maxbin2</title>
<path fill="none" stroke="grey" stroke-width="2" d="M470,-342.1C479.94,-344.78 491.15,-347.81 501.63,-350.64"/>
<polygon fill="grey" stroke="grey" stroke-width="2" points="500.82,-354.05 511.39,-353.28 502.65,-347.29 500.82,-354.05"/>
</g>
<!-- metabat2 -->
<g id="node12" class="node">
<title>metabat2</title>
<path fill="none" stroke="#d86656" stroke-width="2" d="M562,-325C562,-325 520,-325 520,-325 514,-325 508,-319 508,-313 508,-313 508,-301 508,-301 508,-295 514,-289 520,-289 520,-289 562,-289 562,-289 568,-289 574,-295 574,-301 574,-301 574,-313 574,-313 574,-319 568,-325 562,-325"/>
<text text-anchor="middle" x="541" y="-304.5" font-family="sans" font-size="10.00">MetaBAT2</text>
</g>
<!-- megahit&#45;&gt;metabat2 -->
<g id="edge9" class="edge">
<title>megahit&#45;&gt;metabat2</title>
<path fill="none" stroke="grey" stroke-width="2" d="M470,-325.9C478.88,-323.5 488.77,-320.83 498.26,-318.27"/>
<polygon fill="grey" stroke="grey" stroke-width="2" points="499.19,-321.64 507.93,-315.66 497.36,-314.89 499.19,-321.64"/>
</g>
<!-- genomad -->
<g id="node21" class="node">
<title>genomad</title>
<path fill="none" stroke="green" stroke-width="2" d="M561,-176C561,-176 521,-176 521,-176 515,-176 509,-170 509,-164 509,-164 509,-152 509,-152 509,-146 515,-140 521,-140 521,-140 561,-140 561,-140 567,-140 573,-146 573,-152 573,-152 573,-164 573,-164 573,-170 567,-176 561,-176"/>
<text text-anchor="middle" x="541" y="-155.5" font-family="sans" font-size="10.00">geNomad</text>
</g>
<!-- megahit&#45;&gt;genomad -->
<g id="edge25" class="edge">
<title>megahit&#45;&gt;genomad</title>
<path fill="none" stroke="grey" stroke-width="2" d="M450.33,-315.83C467.96,-284.79 503.98,-221.4 524.6,-185.11"/>
<polygon fill="grey" stroke="grey" stroke-width="2" points="527.83,-186.5 529.73,-176.07 521.75,-183.04 527.83,-186.5"/>
</g>
<!-- magscot -->
<g id="node13" class="node">
<title>magscot</title>
<path fill="none" stroke="#a7d856" stroke-width="2" d="M661,-387C661,-387 622,-387 622,-387 616,-387 610,-381 610,-375 610,-375 610,-363 610,-363 610,-357 616,-351 622,-351 622,-351 661,-351 661,-351 667,-351 673,-357 673,-363 673,-363 673,-375 673,-375 673,-381 667,-387 661,-387"/>
<text text-anchor="middle" x="641.5" y="-366.5" font-family="sans" font-size="10.00">MAGScoT</text>
</g>
<!-- concoct&#45;&gt;magscot -->
<g id="edge11" class="edge">
<title>concoct&#45;&gt;magscot</title>
<path fill="none" stroke="grey" stroke-width="2" d="M573.71,-400.19C582.31,-396.18 591.73,-391.78 600.71,-387.58"/>
<polygon fill="grey" stroke="grey" stroke-width="2" points="602.28,-390.71 609.86,-383.31 599.32,-384.37 602.28,-390.71"/>
</g>
<!-- maxbin2&#45;&gt;magscot -->
<g id="edge12" class="edge">
<title>maxbin2&#45;&gt;magscot</title>
<path fill="none" stroke="grey" stroke-width="2" d="M570.76,-363.34C579.76,-364.07 589.88,-364.89 599.56,-365.68"/>
<polygon fill="grey" stroke="grey" stroke-width="2" points="599.57,-369.19 609.82,-366.51 600.14,-362.21 599.57,-369.19"/>
</g>
<!-- metabat2&#45;&gt;magscot -->
<g id="edge10" class="edge">
<title>metabat2&#45;&gt;magscot</title>
<path fill="none" stroke="grey" stroke-width="2" d="M570.76,-325.1C580.87,-331.47 592.39,-338.72 603.11,-345.46"/>
<polygon fill="grey" stroke="grey" stroke-width="2" points="601.55,-348.62 611.88,-350.99 605.28,-342.7 601.55,-348.62"/>
</g>
<!-- drep -->
<g id="node14" class="node">
<title>drep</title>
<path fill="none" stroke="#61d856" stroke-width="2" d="M755.5,-402C755.5,-402 725.5,-402 725.5,-402 719.5,-402 713.5,-396 713.5,-390 713.5,-390 713.5,-378 713.5,-378 713.5,-372 719.5,-366 725.5,-366 725.5,-366 755.5,-366 755.5,-366 761.5,-366 767.5,-372 767.5,-378 767.5,-378 767.5,-390 767.5,-390 767.5,-396 761.5,-402 755.5,-402"/>
<text text-anchor="middle" x="740.5" y="-381.5" font-family="sans" font-size="10.00">dRep</text>
</g>
<!-- magscot&#45;&gt;drep -->
<g id="edge13" class="edge">
<title>magscot&#45;&gt;drep</title>
<path fill="none" stroke="grey" stroke-width="2" d="M673.19,-373.75C682.75,-375.22 693.38,-376.87 703.28,-378.4"/>
<polygon fill="grey" stroke="grey" stroke-width="2" points="702.83,-381.87 713.25,-379.94 703.9,-374.95 702.83,-381.87"/>
</g>
<!-- bowtie2_drep -->
<g id="node15" class="node">
<title>bowtie2_drep</title>
<path fill="none" stroke="#3c540b" stroke-width="2" d="M856,-317C856,-317 824,-317 824,-317 818,-317 812,-311 812,-305 812,-305 812,-293 812,-293 812,-287 818,-281 824,-281 824,-281 856,-281 856,-281 862,-281 868,-287 868,-293 868,-293 868,-305 868,-305 868,-311 862,-317 856,-317"/>
<text text-anchor="middle" x="840" y="-302" font-family="sans" font-size="10.00">bowtie2</text>
<text text-anchor="middle" x="840" y="-291" font-family="sans" font-size="10.00">MAGs</text>
</g>
<!-- drep&#45;&gt;bowtie2_drep -->
<g id="edge20" class="edge">
<title>drep&#45;&gt;bowtie2_drep</title>
<path fill="none" stroke="grey" stroke-width="2" d="M762.18,-365.97C776.27,-353.69 795.1,-337.27 810.6,-323.76"/>
<polygon fill="grey" stroke="grey" stroke-width="2" points="813.11,-326.21 818.35,-317 808.51,-320.93 813.11,-326.21"/>
</g>
<!-- gtdbtk -->
<g id="node17" class="node">
<title>gtdbtk</title>
<path fill="none" stroke="#56d85b" stroke-width="2" d="M858,-510C858,-510 822,-510 822,-510 816,-510 810,-504 810,-498 810,-498 810,-486 810,-486 810,-480 816,-474 822,-474 822,-474 858,-474 858,-474 864,-474 870,-480 870,-486 870,-486 870,-498 870,-498 870,-504 864,-510 858,-510"/>
<text text-anchor="middle" x="840" y="-489.5" font-family="sans" font-size="10.00">GTDB&#45;TK</text>
</g>
<!-- drep&#45;&gt;gtdbtk -->
<g id="edge19" class="edge">
<title>drep&#45;&gt;gtdbtk</title>
<path fill="none" stroke="grey" stroke-width="2" d="M751.47,-402.21C761.62,-419.68 778.59,-446.1 798,-465 799.22,-466.19 800.49,-467.35 801.81,-468.49"/>
<polygon fill="grey" stroke="grey" stroke-width="2" points="799.7,-471.28 809.72,-474.72 804.03,-465.78 799.7,-471.28"/>
</g>
<!-- checkm -->
<g id="node19" class="node">
<title>checkm</title>
<path fill="none" stroke="#66b76e" stroke-width="2" d="M859,-456C859,-456 821,-456 821,-456 815,-456 809,-450 809,-444 809,-444 809,-432 809,-432 809,-426 815,-420 821,-420 821,-420 859,-420 859,-420 865,-420 871,-426 871,-432 871,-432 871,-444 871,-444 871,-450 865,-456 859,-456"/>
<text text-anchor="middle" x="840" y="-435.5" font-family="sans" font-size="10.00">CheckM2</text>
</g>
<!-- drep&#45;&gt;checkm -->
<g id="edge21" class="edge">
<title>drep&#45;&gt;checkm</title>
<path fill="none" stroke="grey" stroke-width="2" d="M767.63,-398.47C777.5,-403.94 788.96,-410.29 799.77,-416.27"/>
<polygon fill="grey" stroke="grey" stroke-width="2" points="798.21,-419.41 808.65,-421.19 801.6,-413.28 798.21,-419.41"/>
</g>
<!-- quast -->
<g id="node20" class="node">
<title>quast</title>
<path fill="none" stroke="#2a1938" stroke-width="2" d="M855,-402C855,-402 825,-402 825,-402 819,-402 813,-396 813,-390 813,-390 813,-378 813,-378 813,-372 819,-366 825,-366 825,-366 855,-366 855,-366 861,-366 867,-372 867,-378 867,-378 867,-390 867,-390 867,-396 861,-402 855,-402"/>
<text text-anchor="middle" x="840" y="-381.5" font-family="sans" font-size="10.00">QUAST</text>
</g>
<!-- drep&#45;&gt;quast -->
<g id="edge22" class="edge">
<title>drep&#45;&gt;quast</title>
<path fill="none" stroke="grey" stroke-width="2" d="M767.63,-384C778.34,-384 790.92,-384 802.51,-384"/>
<polygon fill="grey" stroke="grey" stroke-width="2" points="802.8,-387.5 812.8,-384 802.8,-380.5 802.8,-387.5"/>
</g>
<!-- coverm -->
<g id="node16" class="node">
<title>coverm</title>
<path fill="none" stroke="#56d8a9" stroke-width="2" d="M955.5,-317C955.5,-317 925.5,-317 925.5,-317 919.5,-317 913.5,-311 913.5,-305 913.5,-305 913.5,-293 913.5,-293 913.5,-287 919.5,-281 925.5,-281 925.5,-281 955.5,-281 955.5,-281 961.5,-281 967.5,-287 967.5,-293 967.5,-293 967.5,-305 967.5,-305 967.5,-311 961.5,-317 955.5,-317"/>
<text text-anchor="middle" x="940.5" y="-296.5" font-family="sans" font-size="10.00">CoverM</text>
</g>
<!-- bowtie2_drep&#45;&gt;coverm -->
<g id="edge14" class="edge">
<title>bowtie2_drep&#45;&gt;coverm</title>
<path fill="none" stroke="grey" stroke-width="2" d="M868.18,-299C878.99,-299 891.59,-299 903.17,-299"/>
<polygon fill="grey" stroke="grey" stroke-width="2" points="903.43,-302.5 913.43,-299 903.43,-295.5 903.43,-302.5"/>
</g>
<!-- dram -->
<g id="node18" class="node">
<title>dram</title>
<path fill="none" stroke="#d85e56" stroke-width="2" d="M955.5,-510C955.5,-510 925.5,-510 925.5,-510 919.5,-510 913.5,-504 913.5,-498 913.5,-498 913.5,-486 913.5,-486 913.5,-480 919.5,-474 925.5,-474 925.5,-474 955.5,-474 955.5,-474 961.5,-474 967.5,-480 967.5,-486 967.5,-486 967.5,-498 967.5,-498 967.5,-504 961.5,-510 955.5,-510"/>
<text text-anchor="middle" x="940.5" y="-489.5" font-family="sans" font-size="10.00">DRAM</text>
</g>
<!-- gtdbtk&#45;&gt;dram -->
<g id="edge15" class="edge">
<title>gtdbtk&#45;&gt;dram</title>
<path fill="none" stroke="grey" stroke-width="2" d="M870.02,-492C880.43,-492 892.29,-492 903.24,-492"/>
<polygon fill="grey" stroke="grey" stroke-width="2" points="903.37,-495.5 913.37,-492 903.37,-488.5 903.37,-495.5"/>
</g>
<!-- dedupe -->
<g id="node22" class="node">
<title>dedupe</title>
<path fill="none" stroke="green" stroke-width="2" d="M656.5,-176C656.5,-176 626.5,-176 626.5,-176 620.5,-176 614.5,-170 614.5,-164 614.5,-164 614.5,-152 614.5,-152 614.5,-146 620.5,-140 626.5,-140 626.5,-140 656.5,-140 656.5,-140 662.5,-140 668.5,-146 668.5,-152 668.5,-152 668.5,-164 668.5,-164 668.5,-170 662.5,-176 656.5,-176"/>
<text text-anchor="middle" x="641.5" y="-155.5" font-family="sans" font-size="10.00">Dedupe</text>
</g>
<!-- genomad&#45;&gt;dedupe -->
<g id="edge23" class="edge">
<title>genomad&#45;&gt;dedupe</title>
<path fill="none" stroke="grey" stroke-width="2" d="M573.17,-158C583.04,-158 594.04,-158 604.23,-158"/>
<polygon fill="grey" stroke="grey" stroke-width="2" points="604.49,-161.5 614.49,-158 604.49,-154.5 604.49,-161.5"/>
</g>
<!-- mmseqs2 -->
<g id="node23" class="node">
<title>mmseqs2</title>
<path fill="none" stroke="red" stroke-width="2" d="M760,-176C760,-176 721,-176 721,-176 715,-176 709,-170 709,-164 709,-164 709,-152 709,-152 709,-146 715,-140 721,-140 721,-140 760,-140 760,-140 766,-140 772,-146 772,-152 772,-152 772,-164 772,-164 772,-170 766,-176 760,-176"/>
<text text-anchor="middle" x="740.5" y="-155.5" font-family="sans" font-size="10.00">MMseqs2</text>
</g>
<!-- dedupe&#45;&gt;mmseqs2 -->
<g id="edge24" class="edge">
<title>dedupe&#45;&gt;mmseqs2</title>
<path fill="none" stroke="grey" stroke-width="2" d="M668.75,-158C677.91,-158 688.42,-158 698.5,-158"/>
<polygon fill="grey" stroke="grey" stroke-width="2" points="698.76,-161.5 708.76,-158 698.76,-154.5 698.76,-161.5"/>
</g>
<!-- bowtie2v -->
<g id="node24" class="node">
<title>bowtie2v</title>
<path fill="none" stroke="#3c540b" stroke-width="2" d="M856,-64C856,-64 824,-64 824,-64 818,-64 812,-58 812,-52 812,-52 812,-40 812,-40 812,-34 818,-28 824,-28 824,-28 856,-28 856,-28 862,-28 868,-34 868,-40 868,-40 868,-52 868,-52 868,-58 862,-64 856,-64"/>
<text text-anchor="middle" x="840" y="-49" font-family="sans" font-size="10.00">bowtie2</text>
<text text-anchor="middle" x="840" y="-38" font-family="sans" font-size="10.00">vOTUs</text>
</g>
<!-- mmseqs2&#45;&gt;bowtie2v -->
<g id="edge27" class="edge">
<title>mmseqs2&#45;&gt;bowtie2v</title>
<path fill="none" stroke="grey" stroke-width="2" d="M757.6,-139.51C773.64,-121.08 798.42,-92.62 816.42,-71.93"/>
<polygon fill="grey" stroke="grey" stroke-width="2" points="819.27,-73.99 823.2,-64.15 813.99,-69.39 819.27,-73.99"/>
</g>
<!-- genomad2 -->
<g id="node26" class="node">
<title>genomad2</title>
<path fill="none" stroke="green" stroke-width="2" d="M860,-203C860,-203 820,-203 820,-203 814,-203 808,-197 808,-191 808,-191 808,-179 808,-179 808,-173 814,-167 820,-167 820,-167 860,-167 860,-167 866,-167 872,-173 872,-179 872,-179 872,-191 872,-191 872,-197 866,-203 860,-203"/>
<text text-anchor="middle" x="840" y="-182.5" font-family="sans" font-size="10.00">geNomad</text>
</g>
<!-- mmseqs2&#45;&gt;genomad2 -->
<g id="edge30" class="edge">
<title>mmseqs2&#45;&gt;genomad2</title>
<path fill="none" stroke="grey" stroke-width="2" d="M772.08,-166.47C780.36,-168.76 789.45,-171.28 798.2,-173.7"/>
<polygon fill="grey" stroke="grey" stroke-width="2" points="797.28,-177.08 807.86,-176.38 799.15,-170.33 797.28,-177.08"/>
</g>
<!-- quastv -->
<g id="node29" class="node">
<title>quastv</title>
<path fill="none" stroke="#2a1938" stroke-width="2" d="M855,-149C855,-149 825,-149 825,-149 819,-149 813,-143 813,-137 813,-137 813,-125 813,-125 813,-119 819,-113 825,-113 825,-113 855,-113 855,-113 861,-113 867,-119 867,-125 867,-125 867,-137 867,-137 867,-143 861,-149 855,-149"/>
<text text-anchor="middle" x="840" y="-128.5" font-family="sans" font-size="10.00">QUAST</text>
</g>
<!-- mmseqs2&#45;&gt;quastv -->
<g id="edge31" class="edge">
<title>mmseqs2&#45;&gt;quastv</title>
<path fill="none" stroke="grey" stroke-width="2" d="M772.08,-149.53C781.88,-146.82 792.83,-143.79 802.98,-140.97"/>
<polygon fill="grey" stroke="grey" stroke-width="2" points="804.09,-144.3 812.8,-138.26 802.23,-137.55 804.09,-144.3"/>
</g>
<!-- covermv -->
<g id="node25" class="node">
<title>covermv</title>
<path fill="none" stroke="#56d8a9" stroke-width="2" d="M955.5,-64C955.5,-64 925.5,-64 925.5,-64 919.5,-64 913.5,-58 913.5,-52 913.5,-52 913.5,-40 913.5,-40 913.5,-34 919.5,-28 925.5,-28 925.5,-28 955.5,-28 955.5,-28 961.5,-28 967.5,-34 967.5,-40 967.5,-40 967.5,-52 967.5,-52 967.5,-58 961.5,-64 955.5,-64"/>
<text text-anchor="middle" x="940.5" y="-43.5" font-family="sans" font-size="10.00">CoverM</text>
</g>
<!-- bowtie2v&#45;&gt;covermv -->
<g id="edge26" class="edge">
<title>bowtie2v&#45;&gt;covermv</title>
<path fill="none" stroke="grey" stroke-width="2" d="M868.18,-46C878.99,-46 891.59,-46 903.17,-46"/>
<polygon fill="grey" stroke="grey" stroke-width="2" points="903.43,-49.5 913.43,-46 903.43,-42.5 903.43,-49.5"/>
</g>
<!-- virsorter2 -->
<g id="node27" class="node">
<title>virsorter2</title>
<path fill="none" stroke="green" stroke-width="2" d="M961,-203C961,-203 920,-203 920,-203 914,-203 908,-197 908,-191 908,-191 908,-179 908,-179 908,-173 914,-167 920,-167 920,-167 961,-167 961,-167 967,-167 973,-173 973,-179 973,-179 973,-191 973,-191 973,-197 967,-203 961,-203"/>
<text text-anchor="middle" x="940.5" y="-182.5" font-family="sans" font-size="10.00">VirSorter2</text>
</g>
<!-- genomad2&#45;&gt;virsorter2 -->
<g id="edge28" class="edge">
<title>genomad2&#45;&gt;virsorter2</title>
<path fill="none" stroke="grey" stroke-width="2" d="M872.17,-185C880.26,-185 889.11,-185 897.66,-185"/>
<polygon fill="grey" stroke="grey" stroke-width="2" points="897.86,-188.5 907.86,-185 897.86,-181.5 897.86,-188.5"/>
</g>
<!-- dramv -->
<g id="node28" class="node">
<title>dramv</title>
<path fill="none" stroke="green" stroke-width="2" d="M1053,-203C1053,-203 1021,-203 1021,-203 1015,-203 1009,-197 1009,-191 1009,-191 1009,-179 1009,-179 1009,-173 1015,-167 1021,-167 1021,-167 1053,-167 1053,-167 1059,-167 1065,-173 1065,-179 1065,-179 1065,-191 1065,-191 1065,-197 1059,-203 1053,-203"/>
<text text-anchor="middle" x="1037" y="-182.5" font-family="sans" font-size="10.00">DRAM&#45;V</text>
</g>
<!-- virsorter2&#45;&gt;dramv -->
<g id="edge29" class="edge">
<title>virsorter2&#45;&gt;dramv</title>
<path fill="none" stroke="grey" stroke-width="2" d="M973.23,-185C981.46,-185 990.41,-185 998.89,-185"/>
<polygon fill="grey" stroke="grey" stroke-width="2" points="998.93,-188.5 1008.93,-185 998.93,-181.5 998.93,-188.5"/>
</g>
</g>
</svg>
