<?xml version="1.0" encoding="UTF-8" standalone="no"?>
<!DOCTYPE svg PUBLIC "-//W3C//DTD SVG 1.1//EN"
 "http://www.w3.org/Graphics/SVG/1.1/DTD/svg11.dtd">
<!-- Generated by graphviz version 2.43.0 (0)
 -->
<!-- Title: snakemake_dag Pages: 1 -->
<svg width="1083pt" height="545pt"
 viewBox="0.00 0.00 1083.00 545.00" xmlns="http://www.w3.org/2000/svg" xmlns:xlink="http://www.w3.org/1999/xlink">
<g id="graph0" class="graph" transform="scale(1 1) rotate(0) translate(4 541)">
<title>snakemake_dag</title>
<polygon fill="white" stroke="transparent" points="-4,4 -4,-541 1079,-541 1079,4 -4,4"/>
<g id="clust1" class="cluster">
<title>cluster_0</title>
<path fill="white" stroke="black" stroke-width="2" d="M20,-346C20,-346 172,-346 172,-346 178,-346 184,-352 184,-358 184,-358 184,-409 184,-409 184,-415 178,-421 172,-421 172,-421 20,-421 20,-421 14,-421 8,-415 8,-409 8,-409 8,-358 8,-358 8,-352 14,-346 20,-346"/>
<text text-anchor="middle" x="96" y="-409" font-family="sans" font-size="10.00">Input</text>
</g>
<g id="clust2" class="cluster">
<title>cluster_1</title>
<path fill="white" stroke="black" stroke-width="2" d="M116,-109C116,-109 370,-109 370,-109 376,-109 382,-115 382,-121 382,-121 382,-334 382,-334 382,-340 376,-346 370,-346 370,-346 116,-346 116,-346 110,-346 104,-340 104,-334 104,-334 104,-121 104,-121 104,-115 110,-109 116,-109"/>
<text text-anchor="middle" x="243" y="-334" font-family="sans" font-size="10.00">Preprocess</text>
</g>
<g id="clust4" class="cluster">
<title>cluster_2</title>
<path fill="white" stroke="black" stroke-width="2" d="M410,-244C410,-244 763.5,-244 763.5,-244 769.5,-244 775.5,-250 775.5,-256 775.5,-256 775.5,-415 775.5,-415 775.5,-421 769.5,-427 763.5,-427 763.5,-427 410,-427 410,-427 404,-427 398,-421 398,-415 398,-415 398,-256 398,-256 398,-250 404,-244 410,-244"/>
<text text-anchor="middle" x="586.75" y="-415" font-family="sans" font-size="10.00">Assemble</text>
</g>
<g id="clust5" class="cluster">
<title>cluster_6_space</title>
</g>
<g id="clust6" class="cluster">
<title>cluster_6</title>
<path fill="white" stroke="black" stroke-width="2" d="M809.5,-241C809.5,-241 955,-241 955,-241 961,-241 967,-247 967,-253 967,-253 967,-304 967,-304 967,-310 961,-316 955,-316 955,-316 809.5,-316 809.5,-316 803.5,-316 797.5,-310 797.5,-304 797.5,-304 797.5,-253 797.5,-253 797.5,-247 803.5,-241 809.5,-241"/>
<text text-anchor="middle" x="882.25" y="-304" font-family="sans" font-size="10.00">Quantify</text>
</g>
<g id="clust7" class="cluster">
<title>cluster_7_space</title>
</g>
<g id="clust8" class="cluster">
<title>cluster_7</title>
<path fill="white" stroke="black" stroke-width="2" stroke-dasharray="5,2" d="M806.5,-336C806.5,-336 955,-336 955,-336 961,-336 967,-342 967,-348 967,-348 967,-507 967,-507 967,-513 961,-519 955,-519 955,-519 806.5,-519 806.5,-519 800.5,-519 794.5,-513 794.5,-507 794.5,-507 794.5,-348 794.5,-348 794.5,-342 800.5,-336 806.5,-336"/>
<text text-anchor="middle" x="880.75" y="-507" font-family="sans" font-size="10.00">Annotate</text>
</g>
<g id="clust9" class="cluster">
<title>cluster_5_space</title>
</g>
<g id="clust10" class="cluster">
<title>cluster_5</title>
<path fill="white" stroke="black" stroke-width="2" stroke-dasharray="5,2" d="M509,-18C509,-18 1045,-18 1045,-18 1051,-18 1057,-24 1057,-30 1057,-30 1057,-209 1057,-209 1057,-215 1051,-221 1045,-221 1045,-221 509,-221 509,-221 503,-221 497,-215 497,-209 497,-209 497,-30 497,-30 497,-24 503,-18 509,-18"/>
<text text-anchor="middle" x="777" y="-209" font-family="sans" font-size="10.00">Viral</text>
</g>
<!-- reference -->
<g id="node1" class="node">
<title>reference</title>
<path fill="none" stroke="#56d86b" stroke-width="2" d="M162,-392C162,-392 120,-392 120,-392 114,-392 108,-386 108,-380 108,-380 108,-368 108,-368 108,-362 114,-356 120,-356 120,-356 162,-356 162,-356 168,-356 174,-362 174,-368 174,-368 174,-380 174,-380 174,-386 168,-392 162,-392"/>
<text text-anchor="middle" x="141" y="-377" font-family="sans" font-size="10.00">Reference</text>
<text text-anchor="middle" x="141" y="-366" font-family="sans" font-size="10.00">Genome</text>
</g>
<!-- bowtie2 -->
<g id="node3" class="node">
<title>bowtie2</title>
<path fill="none" stroke="#566bd8" stroke-width="2" d="M258,-317C258,-317 226,-317 226,-317 220,-317 214,-311 214,-305 214,-305 214,-293 214,-293 214,-287 220,-281 226,-281 226,-281 258,-281 258,-281 264,-281 270,-287 270,-293 270,-293 270,-305 270,-305 270,-311 264,-317 258,-317"/>
<text text-anchor="middle" x="242" y="-302" font-family="sans" font-size="10.00">bowtie2</text>
<text text-anchor="middle" x="242" y="-291" font-family="sans" font-size="10.00">Host</text>
</g>
<!-- reference&#45;&gt;bowtie2 -->
<g id="edge15" class="edge">
<title>reference&#45;&gt;bowtie2</title>
<path fill="none" stroke="grey" stroke-width="2" d="M174.09,-356.61C177.5,-354.48 180.87,-352.26 184,-350 194.77,-342.24 205.83,-332.76 215.3,-324.08"/>
<polygon fill="grey" stroke="grey" stroke-width="2" points="217.92,-326.43 222.84,-317.05 213.14,-321.31 217.92,-326.43"/>
</g>
<!-- fastq -->
<g id="node2" class="node">
<title>fastq</title>
<path fill="none" stroke="#56d873" stroke-width="2" d="M60,-392C60,-392 30,-392 30,-392 24,-392 18,-386 18,-380 18,-380 18,-368 18,-368 18,-362 24,-356 30,-356 30,-356 60,-356 60,-356 66,-356 72,-362 72,-368 72,-368 72,-380 72,-380 72,-386 66,-392 60,-392"/>
<text text-anchor="middle" x="45" y="-377" font-family="sans" font-size="10.00">FASTQ</text>
<text text-anchor="middle" x="45" y="-366" font-family="sans" font-size="10.00">reads</text>
</g>
<!-- fastp -->
<g id="node5" class="node">
<title>fastp</title>
<path fill="none" stroke="#56d892" stroke-width="2" d="M156,-263C156,-263 126,-263 126,-263 120,-263 114,-257 114,-251 114,-251 114,-239 114,-239 114,-233 120,-227 126,-227 126,-227 156,-227 156,-227 162,-227 168,-233 168,-239 168,-239 168,-251 168,-251 168,-257 162,-263 156,-263"/>
<text text-anchor="middle" x="141" y="-242.5" font-family="sans" font-size="10.00">fastp</text>
</g>
<!-- fastq&#45;&gt;fastp -->
<g id="edge16" class="edge">
<title>fastq&#45;&gt;fastp</title>
<path fill="none" stroke="grey" stroke-width="2" d="M59.27,-355.79C75.29,-333.8 102.38,-296.63 120.71,-271.47"/>
<polygon fill="grey" stroke="grey" stroke-width="2" points="123.74,-273.26 126.8,-263.12 118.08,-269.14 123.74,-273.26"/>
</g>
<!-- extract -->
<g id="node4" class="node">
<title>extract</title>
<path fill="none" stroke="#56d8b9" stroke-width="2" d="M360,-317C360,-317 322,-317 322,-317 316,-317 310,-311 310,-305 310,-305 310,-293 310,-293 310,-287 316,-281 322,-281 322,-281 360,-281 360,-281 366,-281 372,-287 372,-293 372,-293 372,-305 372,-305 372,-311 366,-317 360,-317"/>
<text text-anchor="middle" x="341" y="-302" font-family="sans" font-size="10.00">Extract</text>
<text text-anchor="middle" x="341" y="-291" font-family="sans" font-size="10.00">Non&#45;Host</text>
</g>
<!-- bowtie2&#45;&gt;extract -->
<g id="edge5" class="edge">
<title>bowtie2&#45;&gt;extract</title>
<path fill="none" stroke="grey" stroke-width="2" d="M270.02,-299C279.17,-299 289.61,-299 299.57,-299"/>
<polygon fill="grey" stroke="grey" stroke-width="2" points="299.71,-302.5 309.71,-299 299.71,-295.5 299.71,-302.5"/>
</g>
<!-- megahit -->
<g id="node9" class="node">
<title>megahit</title>
<path fill="none" stroke="#d8ac56" stroke-width="2" d="M458,-317C458,-317 420,-317 420,-317 414,-317 408,-311 408,-305 408,-305 408,-293 408,-293 408,-287 414,-281 420,-281 420,-281 458,-281 458,-281 464,-281 470,-287 470,-293 470,-293 470,-305 470,-305 470,-311 464,-317 458,-317"/>
<text text-anchor="middle" x="439" y="-296.5" font-family="sans" font-size="10.00">MEGAHIT</text>
</g>
<!-- extract&#45;&gt;megahit -->
<g id="edge17" class="edge">
<title>extract&#45;&gt;megahit</title>
<path fill="none" stroke="grey" stroke-width="2" d="M372.11,-299C380.24,-299 389.17,-299 397.76,-299"/>
<polygon fill="grey" stroke="grey" stroke-width="2" points="398,-302.5 408,-299 398,-295.5 398,-302.5"/>
</g>
<!-- fastp&#45;&gt;bowtie2 -->
<g id="edge1" class="edge">
<title>fastp&#45;&gt;bowtie2</title>
<path fill="none" stroke="grey" stroke-width="2" d="M168.01,-259.19C179.24,-265.31 192.57,-272.58 204.75,-279.23"/>
<polygon fill="grey" stroke="grey" stroke-width="2" points="203.33,-282.44 213.78,-284.15 206.68,-276.29 203.33,-282.44"/>
</g>
<!-- nonpareil -->
<g id="node6" class="node">
<title>nonpareil</title>
<path fill="none" stroke="#a7d856" stroke-width="2" stroke-dasharray="5,2" d="M262,-155C262,-155 222,-155 222,-155 216,-155 210,-149 210,-143 210,-143 210,-131 210,-131 210,-125 216,-119 222,-119 222,-119 262,-119 262,-119 268,-119 274,-125 274,-131 274,-131 274,-143 274,-143 274,-149 268,-155 262,-155"/>
<text text-anchor="middle" x="242" y="-134.5" font-family="sans" font-size="10.00">Nonpareil</text>
</g>
<!-- fastp&#45;&gt;nonpareil -->
<g id="edge2" class="edge">
<title>fastp&#45;&gt;nonpareil</title>
<path fill="none" stroke="grey" stroke-width="2" d="M155.83,-226.93C169.07,-210.04 189.93,-184.44 210,-164 210.63,-163.35 211.28,-162.71 211.94,-162.06"/>
<polygon fill="grey" stroke="grey" stroke-width="2" points="214.37,-164.57 219.26,-155.17 209.58,-159.47 214.37,-164.57"/>
</g>
<!-- singlem -->
<g id="node7" class="node">
<title>singlem</title>
<path fill="none" stroke="#d8ac56" stroke-width="2" stroke-dasharray="5,2" d="M258,-209C258,-209 226,-209 226,-209 220,-209 214,-203 214,-197 214,-197 214,-185 214,-185 214,-179 220,-173 226,-173 226,-173 258,-173 258,-173 264,-173 270,-179 270,-185 270,-185 270,-197 270,-197 270,-203 264,-209 258,-209"/>
<text text-anchor="middle" x="242" y="-188.5" font-family="sans" font-size="10.00">SingleM</text>
</g>
<!-- fastp&#45;&gt;singlem -->
<g id="edge3" class="edge">
<title>fastp&#45;&gt;singlem</title>
<path fill="none" stroke="grey" stroke-width="2" d="M168.01,-230.81C179.24,-224.69 192.57,-217.42 204.75,-210.77"/>
<polygon fill="grey" stroke="grey" stroke-width="2" points="206.68,-213.71 213.78,-205.85 203.33,-207.56 206.68,-213.71"/>
</g>
<!-- kraken2 -->
<g id="node8" class="node">
<title>kraken2</title>
<path fill="none" stroke="#61d856" stroke-width="2" d="M258,-263C258,-263 226,-263 226,-263 220,-263 214,-257 214,-251 214,-251 214,-239 214,-239 214,-233 220,-227 226,-227 226,-227 258,-227 258,-227 264,-227 270,-233 270,-239 270,-239 270,-251 270,-251 270,-257 264,-263 258,-263"/>
<text text-anchor="middle" x="242" y="-242.5" font-family="sans" font-size="10.00">kraken2</text>
</g>
<!-- fastp&#45;&gt;kraken2 -->
<g id="edge4" class="edge">
<title>fastp&#45;&gt;kraken2</title>
<path fill="none" stroke="grey" stroke-width="2" d="M168.01,-245C178.91,-245 191.79,-245 203.67,-245"/>
<polygon fill="grey" stroke="grey" stroke-width="2" points="203.78,-248.5 213.78,-245 203.78,-241.5 203.78,-248.5"/>
</g>
<!-- concoct -->
<g id="node10" class="node">
<title>concoct</title>
<path fill="none" stroke="#56d86b" stroke-width="2" d="M559.5,-290C559.5,-290 518.5,-290 518.5,-290 512.5,-290 506.5,-284 506.5,-278 506.5,-278 506.5,-266 506.5,-266 506.5,-260 512.5,-254 518.5,-254 518.5,-254 559.5,-254 559.5,-254 565.5,-254 571.5,-260 571.5,-266 571.5,-266 571.5,-278 571.5,-278 571.5,-284 565.5,-290 559.5,-290"/>
<text text-anchor="middle" x="539" y="-269.5" font-family="sans" font-size="10.00">CONCOCT</text>
</g>
<!-- megahit&#45;&gt;concoct -->
<g id="edge6" class="edge">
<title>megahit&#45;&gt;concoct</title>
<path fill="none" stroke="grey" stroke-width="2" d="M470.2,-290.68C478.54,-288.38 487.73,-285.85 496.58,-283.41"/>
<polygon fill="grey" stroke="grey" stroke-width="2" points="497.66,-286.74 506.37,-280.71 495.8,-280 497.66,-286.74"/>
</g>
<!-- maxbin2 -->
<g id="node11" class="node">
<title>maxbin2</title>
<path fill="none" stroke="#56c9d8" stroke-width="2" d="M556.5,-344C556.5,-344 521.5,-344 521.5,-344 515.5,-344 509.5,-338 509.5,-332 509.5,-332 509.5,-320 509.5,-320 509.5,-314 515.5,-308 521.5,-308 521.5,-308 556.5,-308 556.5,-308 562.5,-308 568.5,-314 568.5,-320 568.5,-320 568.5,-332 568.5,-332 568.5,-338 562.5,-344 556.5,-344"/>
<text text-anchor="middle" x="539" y="-323.5" font-family="sans" font-size="10.00">MaxBin2</text>
</g>
<!-- megahit&#45;&gt;maxbin2 -->
<g id="edge7" class="edge">
<title>megahit&#45;&gt;maxbin2</title>
<path fill="none" stroke="grey" stroke-width="2" d="M470.2,-307.32C479.47,-309.87 489.79,-312.72 499.53,-315.4"/>
<polygon fill="grey" stroke="grey" stroke-width="2" points="498.83,-318.84 509.4,-318.12 500.69,-312.09 498.83,-318.84"/>
</g>
<!-- metabat2 -->
<g id="node12" class="node">
<title>metabat2</title>
<path fill="none" stroke="#d86656" stroke-width="2" d="M560,-398C560,-398 518,-398 518,-398 512,-398 506,-392 506,-386 506,-386 506,-374 506,-374 506,-368 512,-362 518,-362 518,-362 560,-362 560,-362 566,-362 572,-368 572,-374 572,-374 572,-386 572,-386 572,-392 566,-398 560,-398"/>
<text text-anchor="middle" x="539" y="-377.5" font-family="sans" font-size="10.00">MetaBAT2</text>
</g>
<!-- megahit&#45;&gt;metabat2 -->
<g id="edge8" class="edge">
<title>megahit&#45;&gt;metabat2</title>
<path fill="none" stroke="grey" stroke-width="2" d="M452.96,-317.05C461.69,-328.34 473.95,-342.65 487,-353 490.13,-355.49 493.53,-357.85 497.03,-360.08"/>
<polygon fill="grey" stroke="grey" stroke-width="2" points="495.47,-363.22 505.86,-365.3 499.04,-357.2 495.47,-363.22"/>
</g>
<!-- genomad -->
<g id="node21" class="node">
<title>genomad</title>
<path fill="none" stroke="#abdbaf" stroke-width="2" stroke-dasharray="5,2" d="M559,-182C559,-182 519,-182 519,-182 513,-182 507,-176 507,-170 507,-170 507,-158 507,-158 507,-152 513,-146 519,-146 519,-146 559,-146 559,-146 565,-146 571,-152 571,-158 571,-158 571,-170 571,-170 571,-176 565,-182 559,-182"/>
<text text-anchor="middle" x="539" y="-161.5" font-family="sans" font-size="10.00">geNomad</text>
</g>
<!-- megahit&#45;&gt;genomad -->
<g id="edge22" class="edge">
<title>megahit&#45;&gt;genomad</title>
<path fill="none" stroke="grey" stroke-width="2" d="M453.22,-280.79C470.09,-257.54 499.42,-217.14 518.78,-190.48"/>
<polygon fill="grey" stroke="grey" stroke-width="2" points="521.64,-192.5 524.68,-182.35 515.97,-188.39 521.64,-192.5"/>
</g>
<!-- magscot -->
<g id="node13" class="node">
<title>magscot</title>
<path fill="none" stroke="#a7d856" stroke-width="2" d="M660,-357C660,-357 621,-357 621,-357 615,-357 609,-351 609,-345 609,-345 609,-333 609,-333 609,-327 615,-321 621,-321 621,-321 660,-321 660,-321 666,-321 672,-327 672,-333 672,-333 672,-345 672,-345 672,-351 666,-357 660,-357"/>
<text text-anchor="middle" x="640.5" y="-336.5" font-family="sans" font-size="10.00">MAGScoT</text>
</g>
<!-- concoct&#45;&gt;magscot -->
<g id="edge10" class="edge">
<title>concoct&#45;&gt;magscot</title>
<path fill="none" stroke="grey" stroke-width="2" d="M566.93,-290.13C578.32,-297.8 591.75,-306.85 603.94,-315.06"/>
<polygon fill="grey" stroke="grey" stroke-width="2" points="602.3,-318.17 612.55,-320.85 606.21,-312.37 602.3,-318.17"/>
</g>
<!-- maxbin2&#45;&gt;magscot -->
<g id="edge11" class="edge">
<title>maxbin2&#45;&gt;magscot</title>
<path fill="none" stroke="grey" stroke-width="2" d="M568.51,-329.73C577.99,-330.96 588.73,-332.37 598.93,-333.7"/>
<polygon fill="grey" stroke="grey" stroke-width="2" points="598.53,-337.18 608.9,-335 599.43,-330.24 598.53,-337.18"/>
</g>
<!-- metabat2&#45;&gt;magscot -->
<g id="edge9" class="edge">
<title>metabat2&#45;&gt;magscot</title>
<path fill="none" stroke="grey" stroke-width="2" d="M572.03,-366.8C580.8,-363.19 590.42,-359.23 599.57,-355.45"/>
<polygon fill="grey" stroke="grey" stroke-width="2" points="600.97,-358.66 608.89,-351.61 598.31,-352.19 600.97,-358.66"/>
</g>
<!-- drep -->
<g id="node14" class="node">
<title>drep</title>
<path fill="none" stroke="#61d856" stroke-width="2" stroke-dasharray="5,2" d="M753.5,-382C753.5,-382 723.5,-382 723.5,-382 717.5,-382 711.5,-376 711.5,-370 711.5,-370 711.5,-358 711.5,-358 711.5,-352 717.5,-346 723.5,-346 723.5,-346 753.5,-346 753.5,-346 759.5,-346 765.5,-352 765.5,-358 765.5,-358 765.5,-370 765.5,-370 765.5,-376 759.5,-382 753.5,-382"/>
<text text-anchor="middle" x="738.5" y="-361.5" font-family="sans" font-size="10.00">dRep</text>
</g>
<!-- magscot&#45;&gt;drep -->
<g id="edge12" class="edge">
<title>magscot&#45;&gt;drep</title>
<path fill="none" stroke="grey" stroke-width="2" d="M672.14,-346.98C681.51,-349.42 691.89,-352.12 701.58,-354.65"/>
<polygon fill="grey" stroke="grey" stroke-width="2" points="700.78,-358.06 711.34,-357.19 702.55,-351.28 700.78,-358.06"/>
</g>
<!-- bowtie2_drep -->
<g id="node15" class="node">
<title>bowtie2_drep</title>
<path fill="none" stroke="#3c540b" stroke-width="2" d="M851.5,-287C851.5,-287 819.5,-287 819.5,-287 813.5,-287 807.5,-281 807.5,-275 807.5,-275 807.5,-263 807.5,-263 807.5,-257 813.5,-251 819.5,-251 819.5,-251 851.5,-251 851.5,-251 857.5,-251 863.5,-257 863.5,-263 863.5,-263 863.5,-275 863.5,-275 863.5,-281 857.5,-287 851.5,-287"/>
<text text-anchor="middle" x="835.5" y="-272" font-family="sans" font-size="10.00">bowtie2</text>
<text text-anchor="middle" x="835.5" y="-261" font-family="sans" font-size="10.00">MAGs</text>
</g>
<!-- drep&#45;&gt;bowtie2_drep -->
<g id="edge19" class="edge">
<title>drep&#45;&gt;bowtie2_drep</title>
<path fill="none" stroke="grey" stroke-width="2" d="M757.82,-345.68C772.41,-331.09 792.99,-310.51 809.16,-294.34"/>
<polygon fill="grey" stroke="grey" stroke-width="2" points="811.64,-296.81 816.24,-287.26 806.69,-291.86 811.64,-296.81"/>
</g>
<!-- gtdbtk -->
<g id="node17" class="node">
<title>gtdbtk</title>
<path fill="none" stroke="#56d85b" stroke-width="2" stroke-dasharray="5,2" d="M853.5,-490C853.5,-490 817.5,-490 817.5,-490 811.5,-490 805.5,-484 805.5,-478 805.5,-478 805.5,-466 805.5,-466 805.5,-460 811.5,-454 817.5,-454 817.5,-454 853.5,-454 853.5,-454 859.5,-454 865.5,-460 865.5,-466 865.5,-466 865.5,-478 865.5,-478 865.5,-484 859.5,-490 853.5,-490"/>
<text text-anchor="middle" x="835.5" y="-469.5" font-family="sans" font-size="10.00">GTDB&#45;TK</text>
</g>
<!-- drep&#45;&gt;gtdbtk -->
<g id="edge18" class="edge">
<title>drep&#45;&gt;gtdbtk</title>
<path fill="none" stroke="grey" stroke-width="2" d="M746.15,-382.33C753.35,-400.13 766.31,-427.02 784.5,-445 788.13,-448.59 792.35,-451.84 796.75,-454.72"/>
<polygon fill="grey" stroke="grey" stroke-width="2" points="794.98,-457.74 805.36,-459.84 798.55,-451.72 794.98,-457.74"/>
</g>
<!-- checkm -->
<g id="node19" class="node">
<title>checkm</title>
<path fill="none" stroke="#66b76e" stroke-width="2" d="M854.5,-436C854.5,-436 816.5,-436 816.5,-436 810.5,-436 804.5,-430 804.5,-424 804.5,-424 804.5,-412 804.5,-412 804.5,-406 810.5,-400 816.5,-400 816.5,-400 854.5,-400 854.5,-400 860.5,-400 866.5,-406 866.5,-412 866.5,-412 866.5,-424 866.5,-424 866.5,-430 860.5,-436 854.5,-436"/>
<text text-anchor="middle" x="835.5" y="-415.5" font-family="sans" font-size="10.00">CheckM2</text>
</g>
<!-- drep&#45;&gt;checkm -->
<g id="edge20" class="edge">
<title>drep&#45;&gt;checkm</title>
<path fill="none" stroke="grey" stroke-width="2" d="M765.56,-379.91C771.74,-383.6 778.33,-387.48 784.5,-391 787.97,-392.98 791.59,-395 795.23,-397.01"/>
<polygon fill="grey" stroke="grey" stroke-width="2" points="793.78,-400.21 804.24,-401.94 797.15,-394.07 793.78,-400.21"/>
</g>
<!-- quast -->
<g id="node20" class="node">
<title>quast</title>
<path fill="none" stroke="#2a1938" stroke-width="2" d="M850.5,-382C850.5,-382 820.5,-382 820.5,-382 814.5,-382 808.5,-376 808.5,-370 808.5,-370 808.5,-358 808.5,-358 808.5,-352 814.5,-346 820.5,-346 820.5,-346 850.5,-346 850.5,-346 856.5,-346 862.5,-352 862.5,-358 862.5,-358 862.5,-370 862.5,-370 862.5,-376 856.5,-382 850.5,-382"/>
<text text-anchor="middle" x="835.5" y="-361.5" font-family="sans" font-size="10.00">QUAST</text>
</g>
<!-- drep&#45;&gt;quast -->
<g id="edge21" class="edge">
<title>drep&#45;&gt;quast</title>
<path fill="none" stroke="grey" stroke-width="2" d="M765.71,-364C775.78,-364 787.46,-364 798.31,-364"/>
<polygon fill="grey" stroke="grey" stroke-width="2" points="798.37,-367.5 808.37,-364 798.37,-360.5 798.37,-367.5"/>
</g>
<!-- coverm -->
<g id="node16" class="node">
<title>coverm</title>
<path fill="none" stroke="#56d8a9" stroke-width="2" d="M945,-287C945,-287 915,-287 915,-287 909,-287 903,-281 903,-275 903,-275 903,-263 903,-263 903,-257 909,-251 915,-251 915,-251 945,-251 945,-251 951,-251 957,-257 957,-263 957,-263 957,-275 957,-275 957,-281 951,-287 945,-287"/>
<text text-anchor="middle" x="930" y="-266.5" font-family="sans" font-size="10.00">CoverM</text>
</g>
<!-- bowtie2_drep&#45;&gt;coverm -->
<g id="edge13" class="edge">
<title>bowtie2_drep&#45;&gt;coverm</title>
<path fill="none" stroke="grey" stroke-width="2" d="M863.75,-269C872.83,-269 883.09,-269 892.75,-269"/>
<polygon fill="grey" stroke="grey" stroke-width="2" points="892.89,-272.5 902.89,-269 892.89,-265.5 892.89,-272.5"/>
</g>
<!-- dram -->
<g id="node18" class="node">
<title>dram</title>
<path fill="none" stroke="#d85e56" stroke-width="2" stroke-dasharray="5,2" d="M945,-490C945,-490 915,-490 915,-490 909,-490 903,-484 903,-478 903,-478 903,-466 903,-466 903,-460 909,-454 915,-454 915,-454 945,-454 945,-454 951,-454 957,-460 957,-466 957,-466 957,-478 957,-478 957,-484 951,-490 945,-490"/>
<text text-anchor="middle" x="930" y="-469.5" font-family="sans" font-size="10.00">DRAM</text>
</g>
<!-- gtdbtk&#45;&gt;dram -->
<g id="edge14" class="edge">
<title>gtdbtk&#45;&gt;dram</title>
<path fill="none" stroke="grey" stroke-width="2" d="M865.51,-472C874.12,-472 883.66,-472 892.66,-472"/>
<polygon fill="grey" stroke="grey" stroke-width="2" points="892.91,-475.5 902.91,-472 892.91,-468.5 892.91,-475.5"/>
</g>
<!-- checkv -->
<g id="node22" class="node">
<title>checkv</title>
<path fill="none" stroke="#5c725b" stroke-width="2" stroke-dasharray="5,2" d="M655.5,-118C655.5,-118 625.5,-118 625.5,-118 619.5,-118 613.5,-112 613.5,-106 613.5,-106 613.5,-94 613.5,-94 613.5,-88 619.5,-82 625.5,-82 625.5,-82 655.5,-82 655.5,-82 661.5,-82 667.5,-88 667.5,-94 667.5,-94 667.5,-106 667.5,-106 667.5,-112 661.5,-118 655.5,-118"/>
<text text-anchor="middle" x="640.5" y="-97.5" font-family="sans" font-size="10.00">CheckV</text>
</g>
<!-- genomad&#45;&gt;checkv -->
<g id="edge23" class="edge">
<title>genomad&#45;&gt;checkv</title>
<path fill="none" stroke="grey" stroke-width="2" d="M568.25,-145.83C579.62,-138.52 592.85,-130.01 604.8,-122.32"/>
<polygon fill="grey" stroke="grey" stroke-width="2" points="606.71,-125.25 613.23,-116.9 602.93,-119.36 606.71,-125.25"/>
</g>
<!-- diamond -->
<g id="node26" class="node">
<title>diamond</title>
<path fill="none" stroke="red" stroke-width="2" stroke-dasharray="5,2" d="M661,-172C661,-172 620,-172 620,-172 614,-172 608,-166 608,-160 608,-160 608,-148 608,-148 608,-142 614,-136 620,-136 620,-136 661,-136 661,-136 667,-136 673,-142 673,-148 673,-148 673,-160 673,-160 673,-166 667,-172 661,-172"/>
<text text-anchor="middle" x="640.5" y="-151.5" font-family="sans" font-size="10.00">DIAMOND</text>
</g>
<!-- genomad&#45;&gt;diamond -->
<g id="edge27" class="edge">
<title>genomad&#45;&gt;diamond</title>
<path fill="none" stroke="grey" stroke-width="2" d="M571.21,-160.86C579.57,-160.02 588.74,-159.1 597.57,-158.21"/>
<polygon fill="grey" stroke="grey" stroke-width="2" points="598.12,-161.68 607.72,-157.19 597.42,-154.71 598.12,-161.68"/>
</g>
<!-- verse -->
<g id="node27" class="node">
<title>verse</title>
<path fill="none" stroke="red" stroke-width="2" stroke-dasharray="5,2" d="M753.5,-192C753.5,-192 723.5,-192 723.5,-192 717.5,-192 711.5,-186 711.5,-180 711.5,-180 711.5,-168 711.5,-168 711.5,-162 717.5,-156 723.5,-156 723.5,-156 753.5,-156 753.5,-156 759.5,-156 765.5,-162 765.5,-168 765.5,-168 765.5,-180 765.5,-180 765.5,-186 759.5,-192 753.5,-192"/>
<text text-anchor="middle" x="738.5" y="-171.5" font-family="sans" font-size="10.00">verse</text>
</g>
<!-- genomad&#45;&gt;verse -->
<g id="edge28" class="edge">
<title>genomad&#45;&gt;verse</title>
<path fill="none" stroke="grey" stroke-width="2" d="M571.18,-173.5C582.64,-176.54 595.8,-179.5 608,-181 639.23,-184.84 674.95,-182.41 700.96,-179.4"/>
<polygon fill="grey" stroke="grey" stroke-width="2" points="701.62,-182.84 711.12,-178.14 700.76,-175.9 701.62,-182.84"/>
</g>
<!-- bbmap -->
<g id="node23" class="node">
<title>bbmap</title>
<path fill="none" stroke="red" stroke-width="2" stroke-dasharray="5,2" d="M753.5,-64C753.5,-64 723.5,-64 723.5,-64 717.5,-64 711.5,-58 711.5,-52 711.5,-52 711.5,-40 711.5,-40 711.5,-34 717.5,-28 723.5,-28 723.5,-28 753.5,-28 753.5,-28 759.5,-28 765.5,-34 765.5,-40 765.5,-40 765.5,-52 765.5,-52 765.5,-58 759.5,-64 753.5,-64"/>
<text text-anchor="middle" x="738.5" y="-43.5" font-family="sans" font-size="10.00">BBMap</text>
</g>
<!-- checkv&#45;&gt;bbmap -->
<g id="edge24" class="edge">
<title>checkv&#45;&gt;bbmap</title>
<path fill="none" stroke="grey" stroke-width="2" d="M667.73,-85.24C678.42,-79.23 690.94,-72.19 702.39,-65.75"/>
<polygon fill="grey" stroke="grey" stroke-width="2" points="704.3,-68.69 711.3,-60.74 700.87,-62.59 704.3,-68.69"/>
</g>
<!-- virsorter -->
<g id="node29" class="node">
<title>virsorter</title>
<path fill="none" stroke="red" stroke-width="2" d="M756,-118C756,-118 721,-118 721,-118 715,-118 709,-112 709,-106 709,-106 709,-94 709,-94 709,-88 715,-82 721,-82 721,-82 756,-82 756,-82 762,-82 768,-88 768,-94 768,-94 768,-106 768,-106 768,-112 762,-118 756,-118"/>
<text text-anchor="middle" x="738.5" y="-97.5" font-family="sans" font-size="10.00">VirSorter</text>
</g>
<!-- checkv&#45;&gt;virsorter -->
<g id="edge31" class="edge">
<title>checkv&#45;&gt;virsorter</title>
<path fill="none" stroke="grey" stroke-width="2" d="M667.73,-100C677.31,-100 688.35,-100 698.79,-100"/>
<polygon fill="grey" stroke="grey" stroke-width="2" points="698.94,-103.5 708.94,-100 698.94,-96.5 698.94,-103.5"/>
</g>
<!-- dramv -->
<g id="node30" class="node">
<title>dramv</title>
<path fill="none" stroke="red" stroke-width="2" d="M851.5,-136C851.5,-136 819.5,-136 819.5,-136 813.5,-136 807.5,-130 807.5,-124 807.5,-124 807.5,-112 807.5,-112 807.5,-106 813.5,-100 819.5,-100 819.5,-100 851.5,-100 851.5,-100 857.5,-100 863.5,-106 863.5,-112 863.5,-112 863.5,-124 863.5,-124 863.5,-130 857.5,-136 851.5,-136"/>
<text text-anchor="middle" x="835.5" y="-115.5" font-family="sans" font-size="10.00">DRAM&#45;V</text>
</g>
<!-- checkv&#45;&gt;dramv -->
<g id="edge32" class="edge">
<title>checkv&#45;&gt;dramv</title>
<path fill="none" stroke="grey" stroke-width="2" d="M667.72,-113.19C679.94,-118.63 694.87,-124.28 709,-127 738.41,-132.66 772.32,-129.68 797.47,-125.69"/>
<polygon fill="grey" stroke="grey" stroke-width="2" points="798.06,-129.13 807.33,-124 796.88,-122.23 798.06,-129.13"/>
</g>
<!-- mmseqs2 -->
<g id="node24" class="node">
<title>mmseqs2</title>
<path fill="none" stroke="red" stroke-width="2" stroke-dasharray="5,2" d="M855,-64C855,-64 816,-64 816,-64 810,-64 804,-58 804,-52 804,-52 804,-40 804,-40 804,-34 810,-28 816,-28 816,-28 855,-28 855,-28 861,-28 867,-34 867,-40 867,-40 867,-52 867,-52 867,-58 861,-64 855,-64"/>
<text text-anchor="middle" x="835.5" y="-43.5" font-family="sans" font-size="10.00">MMseqs2</text>
</g>
<!-- bbmap&#45;&gt;mmseqs2 -->
<g id="edge25" class="edge">
<title>bbmap&#45;&gt;mmseqs2</title>
<path fill="none" stroke="grey" stroke-width="2" d="M765.71,-46C774.34,-46 784.16,-46 793.61,-46"/>
<polygon fill="grey" stroke="grey" stroke-width="2" points="793.66,-49.5 803.66,-46 793.66,-42.5 793.66,-49.5"/>
</g>
<!-- iphop -->
<g id="node25" class="node">
<title>iphop</title>
<path fill="none" stroke="red" stroke-width="2" stroke-dasharray="5,2" d="M945,-104C945,-104 915,-104 915,-104 909,-104 903,-98 903,-92 903,-92 903,-80 903,-80 903,-74 909,-68 915,-68 915,-68 945,-68 945,-68 951,-68 957,-74 957,-80 957,-80 957,-92 957,-92 957,-98 951,-104 945,-104"/>
<text text-anchor="middle" x="930" y="-83.5" font-family="sans" font-size="10.00">iPHoP</text>
</g>
<!-- mmseqs2&#45;&gt;iphop -->
<g id="edge26" class="edge">
<title>mmseqs2&#45;&gt;iphop</title>
<path fill="none" stroke="grey" stroke-width="2" d="M867.04,-59.21C875.55,-62.88 884.85,-66.91 893.61,-70.69"/>
<polygon fill="grey" stroke="grey" stroke-width="2" points="892.26,-73.93 902.83,-74.68 895.04,-67.5 892.26,-73.93"/>
</g>
<!-- votu -->
<g id="node28" class="node">
<title>votu</title>
<path fill="none" stroke="red" stroke-width="2" d="M1035,-104C1035,-104 1005,-104 1005,-104 999,-104 993,-98 993,-92 993,-92 993,-80 993,-80 993,-74 999,-68 1005,-68 1005,-68 1035,-68 1035,-68 1041,-68 1047,-74 1047,-80 1047,-80 1047,-92 1047,-92 1047,-98 1041,-104 1035,-104"/>
<text text-anchor="middle" x="1020" y="-83.5" font-family="sans" font-size="10.00">vOTU</text>
</g>
<!-- iphop&#45;&gt;votu -->
<g id="edge30" class="edge">
<title>iphop&#45;&gt;votu</title>
<path fill="none" stroke="grey" stroke-width="2" d="M957.4,-86C965.39,-86 974.31,-86 982.82,-86"/>
<polygon fill="grey" stroke="grey" stroke-width="2" points="982.92,-89.5 992.92,-86 982.92,-82.5 982.92,-89.5"/>
</g>
<!-- verse&#45;&gt;votu -->
<g id="edge29" class="edge">
<title>verse&#45;&gt;votu</title>
<path fill="none" stroke="grey" stroke-width="2" d="M765.81,-170.34C810.72,-163.42 904.35,-146.07 977,-113 979.59,-111.82 982.2,-110.5 984.8,-109.1"/>
<polygon fill="grey" stroke="grey" stroke-width="2" points="986.56,-112.12 993.45,-104.07 983.04,-106.07 986.56,-112.12"/>
</g>
<!-- virsorter&#45;&gt;dramv -->
<g id="edge33" class="edge">
<title>virsorter&#45;&gt;dramv</title>
<path fill="none" stroke="grey" stroke-width="2" d="M768,-105.4C777.25,-107.15 787.65,-109.12 797.43,-110.98"/>
<polygon fill="grey" stroke="grey" stroke-width="2" points="796.84,-114.43 807.32,-112.85 798.15,-107.55 796.84,-114.43"/>
</g>
</g>
</svg>
