<?xml version="1.0" encoding="UTF-8" standalone="no"?>
<!DOCTYPE svg PUBLIC "-//W3C//DTD SVG 1.1//EN"
 "http://www.w3.org/Graphics/SVG/1.1/DTD/svg11.dtd">
<!-- Generated by graphviz version 2.43.0 (0)
 -->
<!-- Title: snakemake_dag Pages: 1 -->
<svg width="883pt" height="369pt"
 viewBox="0.00 0.00 883.00 369.00" xmlns="http://www.w3.org/2000/svg" xmlns:xlink="http://www.w3.org/1999/xlink">
<g id="graph0" class="graph" transform="scale(1 1) rotate(0) translate(4 365)">
<title>snakemake_dag</title>
<polygon fill="white" stroke="transparent" points="-4,4 -4,-365 879,-365 879,4 -4,4"/>
<g id="clust1" class="cluster">
<title>cluster_0</title>
<path fill="white" stroke="black" stroke-width="2" d="M20,-116C20,-116 82,-116 82,-116 88,-116 94,-122 94,-128 94,-128 94,-233 94,-233 94,-239 88,-245 82,-245 82,-245 20,-245 20,-245 14,-245 8,-239 8,-233 8,-233 8,-128 8,-128 8,-122 14,-116 20,-116"/>
<text text-anchor="middle" x="51" y="-233" font-family="sans" font-size="10.00">Input</text>
</g>
<g id="clust2" class="cluster">
<title>cluster_1</title>
<path fill="white" stroke="black" stroke-width="2" d="M122,-8C122,-8 370,-8 370,-8 376,-8 382,-14 382,-20 382,-20 382,-233 382,-233 382,-239 376,-245 370,-245 370,-245 122,-245 122,-245 116,-245 110,-239 110,-233 110,-233 110,-20 110,-20 110,-14 116,-8 122,-8"/>
<text text-anchor="middle" x="246" y="-233" font-family="sans" font-size="10.00">Preprocessing</text>
</g>
<g id="clust3" class="cluster">
<title>cluster_2</title>
<path fill="white" stroke="black" stroke-width="2" d="M410,-170C410,-170 468,-170 468,-170 474,-170 480,-176 480,-182 480,-182 480,-233 480,-233 480,-239 474,-245 468,-245 468,-245 410,-245 410,-245 404,-245 398,-239 398,-233 398,-233 398,-182 398,-182 398,-176 404,-170 410,-170"/>
<text text-anchor="middle" x="439" y="-233" font-family="sans" font-size="10.00">Assembly</text>
</g>
<g id="clust4" class="cluster">
<title>cluster_3</title>
<path fill="white" stroke="black" stroke-width="2" d="M508,-143C508,-143 669,-143 669,-143 675,-143 681,-149 681,-155 681,-155 681,-314 681,-314 681,-320 675,-326 669,-326 669,-326 508,-326 508,-326 502,-326 496,-320 496,-314 496,-314 496,-155 496,-155 496,-149 502,-143 508,-143"/>
<text text-anchor="middle" x="588.5" y="-314" font-family="sans" font-size="10.00">Binning</text>
</g>
<g id="clust5" class="cluster">
<title>cluster_4</title>
<path fill="white" stroke="black" stroke-width="2" stroke-dasharray="5,2" d="M709,-116C709,-116 855,-116 855,-116 861,-116 867,-122 867,-128 867,-128 867,-341 867,-341 867,-347 861,-353 855,-353 855,-353 709,-353 709,-353 703,-353 697,-347 697,-341 697,-341 697,-128 697,-128 697,-122 703,-116 709,-116"/>
<text text-anchor="middle" x="782" y="-341" font-family="sans" font-size="10.00">Dereplication</text>
</g>
<g id="clust6" class="cluster">
<title>cluster_5_space</title>
</g>
<g id="clust7" class="cluster">
<title>cluster_5</title>
<path fill="white" stroke="black" stroke-width="2" stroke-dasharray="5,2" d="M514,-58C514,-58 564,-58 564,-58 570,-58 576,-64 576,-70 576,-70 576,-121 576,-121 576,-127 570,-133 564,-133 564,-133 514,-133 514,-133 508,-133 502,-127 502,-121 502,-121 502,-70 502,-70 502,-64 508,-58 514,-58"/>
<text text-anchor="middle" x="539" y="-121" font-family="sans" font-size="10.00">Virify</text>
</g>
<!-- reference -->
<g id="node1" class="node">
<title>reference</title>
<path fill="none" stroke="#56d86b" stroke-width="2" d="M72,-216C72,-216 30,-216 30,-216 24,-216 18,-210 18,-204 18,-204 18,-192 18,-192 18,-186 24,-180 30,-180 30,-180 72,-180 72,-180 78,-180 84,-186 84,-192 84,-192 84,-204 84,-204 84,-210 78,-216 72,-216"/>
<text text-anchor="middle" x="51" y="-201" font-family="sans" font-size="10.00">Reference</text>
<text text-anchor="middle" x="51" y="-190" font-family="sans" font-size="10.00">Genome</text>
</g>
<!-- bowtie2 -->
<g id="node3" class="node">
<title>bowtie2</title>
<path fill="none" stroke="#566bd8" stroke-width="2" d="M258,-216C258,-216 226,-216 226,-216 220,-216 214,-210 214,-204 214,-204 214,-192 214,-192 214,-186 220,-180 226,-180 226,-180 258,-180 258,-180 264,-180 270,-186 270,-192 270,-192 270,-204 270,-204 270,-210 264,-216 258,-216"/>
<text text-anchor="middle" x="242" y="-201" font-family="sans" font-size="10.00">bowtie2</text>
<text text-anchor="middle" x="242" y="-190" font-family="sans" font-size="10.00">Host</text>
</g>
<!-- reference&#45;&gt;bowtie2 -->
<g id="edge1" class="edge">
<title>reference&#45;&gt;bowtie2</title>
<path fill="none" stroke="grey" stroke-width="2" d="M84.06,-198C117.18,-198 168.82,-198 203.73,-198"/>
<polygon fill="grey" stroke="grey" stroke-width="2" points="203.99,-201.5 213.99,-198 203.99,-194.5 203.99,-201.5"/>
</g>
<!-- fastq -->
<g id="node2" class="node">
<title>fastq</title>
<path fill="none" stroke="#56d873" stroke-width="2" d="M66,-162C66,-162 36,-162 36,-162 30,-162 24,-156 24,-150 24,-150 24,-138 24,-138 24,-132 30,-126 36,-126 36,-126 66,-126 66,-126 72,-126 78,-132 78,-138 78,-138 78,-150 78,-150 78,-156 72,-162 66,-162"/>
<text text-anchor="middle" x="51" y="-147" font-family="sans" font-size="10.00">FASTQ</text>
<text text-anchor="middle" x="51" y="-136" font-family="sans" font-size="10.00">reads</text>
</g>
<!-- fastp -->
<g id="node5" class="node">
<title>fastp</title>
<path fill="none" stroke="#56d892" stroke-width="2" d="M162,-162C162,-162 132,-162 132,-162 126,-162 120,-156 120,-150 120,-150 120,-138 120,-138 120,-132 126,-126 132,-126 132,-126 162,-126 162,-126 168,-126 174,-132 174,-138 174,-138 174,-150 174,-150 174,-156 168,-162 162,-162"/>
<text text-anchor="middle" x="147" y="-141.5" font-family="sans" font-size="10.00">fastp</text>
</g>
<!-- fastq&#45;&gt;fastp -->
<g id="edge2" class="edge">
<title>fastq&#45;&gt;fastp</title>
<path fill="none" stroke="grey" stroke-width="2" d="M78.18,-144C87.96,-144 99.25,-144 109.77,-144"/>
<polygon fill="grey" stroke="grey" stroke-width="2" points="109.96,-147.5 119.96,-144 109.96,-140.5 109.96,-147.5"/>
</g>
<!-- extract -->
<g id="node4" class="node">
<title>extract</title>
<path fill="none" stroke="#56d8b9" stroke-width="2" d="M360,-216C360,-216 322,-216 322,-216 316,-216 310,-210 310,-204 310,-204 310,-192 310,-192 310,-186 316,-180 322,-180 322,-180 360,-180 360,-180 366,-180 372,-186 372,-192 372,-192 372,-204 372,-204 372,-210 366,-216 360,-216"/>
<text text-anchor="middle" x="341" y="-201" font-family="sans" font-size="10.00">Extract</text>
<text text-anchor="middle" x="341" y="-190" font-family="sans" font-size="10.00">Non&#45;Host</text>
</g>
<!-- bowtie2&#45;&gt;extract -->
<g id="edge7" class="edge">
<title>bowtie2&#45;&gt;extract</title>
<path fill="none" stroke="grey" stroke-width="2" d="M270.02,-198C279.17,-198 289.61,-198 299.57,-198"/>
<polygon fill="grey" stroke="grey" stroke-width="2" points="299.71,-201.5 309.71,-198 299.71,-194.5 299.71,-201.5"/>
</g>
<!-- megahit -->
<g id="node9" class="node">
<title>megahit</title>
<path fill="none" stroke="#d8ac56" stroke-width="2" d="M458,-216C458,-216 420,-216 420,-216 414,-216 408,-210 408,-204 408,-204 408,-192 408,-192 408,-186 414,-180 420,-180 420,-180 458,-180 458,-180 464,-180 470,-186 470,-192 470,-192 470,-204 470,-204 470,-210 464,-216 458,-216"/>
<text text-anchor="middle" x="439" y="-195.5" font-family="sans" font-size="10.00">MEGAHIT</text>
</g>
<!-- extract&#45;&gt;megahit -->
<g id="edge8" class="edge">
<title>extract&#45;&gt;megahit</title>
<path fill="none" stroke="grey" stroke-width="2" d="M372.11,-198C380.24,-198 389.17,-198 397.76,-198"/>
<polygon fill="grey" stroke="grey" stroke-width="2" points="398,-201.5 408,-198 398,-194.5 398,-201.5"/>
</g>
<!-- fastp&#45;&gt;bowtie2 -->
<g id="edge3" class="edge">
<title>fastp&#45;&gt;bowtie2</title>
<path fill="none" stroke="grey" stroke-width="2" d="M174.4,-159.33C183.95,-164.88 194.91,-171.24 205.14,-177.18"/>
<polygon fill="grey" stroke="grey" stroke-width="2" points="203.48,-180.26 213.89,-182.26 207,-174.21 203.48,-180.26"/>
</g>
<!-- nonpareil -->
<g id="node6" class="node">
<title>nonpareil</title>
<path fill="none" stroke="#a7d856" stroke-width="2" stroke-dasharray="5,2" d="M262,-54C262,-54 222,-54 222,-54 216,-54 210,-48 210,-42 210,-42 210,-30 210,-30 210,-24 216,-18 222,-18 222,-18 262,-18 262,-18 268,-18 274,-24 274,-30 274,-30 274,-42 274,-42 274,-48 268,-54 262,-54"/>
<text text-anchor="middle" x="242" y="-33.5" font-family="sans" font-size="10.00">Nonpareil</text>
</g>
<!-- fastp&#45;&gt;nonpareil -->
<g id="edge4" class="edge">
<title>fastp&#45;&gt;nonpareil</title>
<path fill="none" stroke="grey" stroke-width="2" d="M160.34,-125.8C172.21,-108.81 191.09,-83.14 210,-63 210.62,-62.34 211.25,-61.68 211.9,-61.02"/>
<polygon fill="grey" stroke="grey" stroke-width="2" points="214.36,-63.51 219.14,-54.05 209.5,-58.47 214.36,-63.51"/>
</g>
<!-- singlem -->
<g id="node7" class="node">
<title>singlem</title>
<path fill="none" stroke="#d8ac56" stroke-width="2" stroke-dasharray="5,2" d="M258,-108C258,-108 226,-108 226,-108 220,-108 214,-102 214,-96 214,-96 214,-84 214,-84 214,-78 220,-72 226,-72 226,-72 258,-72 258,-72 264,-72 270,-78 270,-84 270,-84 270,-96 270,-96 270,-102 264,-108 258,-108"/>
<text text-anchor="middle" x="242" y="-87.5" font-family="sans" font-size="10.00">SingleM</text>
</g>
<!-- fastp&#45;&gt;singlem -->
<g id="edge5" class="edge">
<title>fastp&#45;&gt;singlem</title>
<path fill="none" stroke="grey" stroke-width="2" d="M174.4,-128.67C183.95,-123.12 194.91,-116.76 205.14,-110.82"/>
<polygon fill="grey" stroke="grey" stroke-width="2" points="207,-113.79 213.89,-105.74 203.48,-107.74 207,-113.79"/>
</g>
<!-- kraken2 -->
<g id="node8" class="node">
<title>kraken2</title>
<path fill="none" stroke="#61d856" stroke-width="2" d="M258,-162C258,-162 226,-162 226,-162 220,-162 214,-156 214,-150 214,-150 214,-138 214,-138 214,-132 220,-126 226,-126 226,-126 258,-126 258,-126 264,-126 270,-132 270,-138 270,-138 270,-150 270,-150 270,-156 264,-162 258,-162"/>
<text text-anchor="middle" x="242" y="-141.5" font-family="sans" font-size="10.00">kraken2</text>
</g>
<!-- fastp&#45;&gt;kraken2 -->
<g id="edge6" class="edge">
<title>fastp&#45;&gt;kraken2</title>
<path fill="none" stroke="grey" stroke-width="2" d="M174.4,-144C183.47,-144 193.81,-144 203.58,-144"/>
<polygon fill="grey" stroke="grey" stroke-width="2" points="203.89,-147.5 213.89,-144 203.89,-140.5 203.89,-147.5"/>
</g>
<!-- concoct -->
<g id="node10" class="node">
<title>concoct</title>
<path fill="none" stroke="#56d86b" stroke-width="2" d="M559.5,-297C559.5,-297 518.5,-297 518.5,-297 512.5,-297 506.5,-291 506.5,-285 506.5,-285 506.5,-273 506.5,-273 506.5,-267 512.5,-261 518.5,-261 518.5,-261 559.5,-261 559.5,-261 565.5,-261 571.5,-267 571.5,-273 571.5,-273 571.5,-285 571.5,-285 571.5,-291 565.5,-297 559.5,-297"/>
<text text-anchor="middle" x="539" y="-276.5" font-family="sans" font-size="10.00">CONCOCT</text>
</g>
<!-- megahit&#45;&gt;concoct -->
<g id="edge9" class="edge">
<title>megahit&#45;&gt;concoct</title>
<path fill="none" stroke="grey" stroke-width="2" d="M455.28,-216.25C465.1,-227.34 478.51,-241.36 492,-252 493.77,-253.4 495.62,-254.77 497.53,-256.12"/>
<polygon fill="grey" stroke="grey" stroke-width="2" points="495.8,-259.18 506.07,-261.8 499.68,-253.35 495.8,-259.18"/>
</g>
<!-- maxbin2 -->
<g id="node11" class="node">
<title>maxbin2</title>
<path fill="none" stroke="#56c9d8" stroke-width="2" d="M556.5,-243C556.5,-243 521.5,-243 521.5,-243 515.5,-243 509.5,-237 509.5,-231 509.5,-231 509.5,-219 509.5,-219 509.5,-213 515.5,-207 521.5,-207 521.5,-207 556.5,-207 556.5,-207 562.5,-207 568.5,-213 568.5,-219 568.5,-219 568.5,-231 568.5,-231 568.5,-237 562.5,-243 556.5,-243"/>
<text text-anchor="middle" x="539" y="-222.5" font-family="sans" font-size="10.00">MaxBin2</text>
</g>
<!-- megahit&#45;&gt;maxbin2 -->
<g id="edge10" class="edge">
<title>megahit&#45;&gt;maxbin2</title>
<path fill="none" stroke="grey" stroke-width="2" d="M470.2,-206.32C479.47,-208.87 489.79,-211.72 499.53,-214.4"/>
<polygon fill="grey" stroke="grey" stroke-width="2" points="498.83,-217.84 509.4,-217.12 500.69,-211.09 498.83,-217.84"/>
</g>
<!-- metabat2 -->
<g id="node12" class="node">
<title>metabat2</title>
<path fill="none" stroke="#d86656" stroke-width="2" d="M560,-189C560,-189 518,-189 518,-189 512,-189 506,-183 506,-177 506,-177 506,-165 506,-165 506,-159 512,-153 518,-153 518,-153 560,-153 560,-153 566,-153 572,-159 572,-165 572,-165 572,-177 572,-177 572,-183 566,-189 560,-189"/>
<text text-anchor="middle" x="539" y="-168.5" font-family="sans" font-size="10.00">MetaBAT2</text>
</g>
<!-- megahit&#45;&gt;metabat2 -->
<g id="edge11" class="edge">
<title>megahit&#45;&gt;metabat2</title>
<path fill="none" stroke="grey" stroke-width="2" d="M470.2,-189.68C478.29,-187.45 487.18,-185 495.78,-182.63"/>
<polygon fill="grey" stroke="grey" stroke-width="2" points="496.98,-185.93 505.69,-179.9 495.12,-179.18 496.98,-185.93"/>
</g>
<!-- virify -->
<g id="node13" class="node">
<title>virify</title>
<path fill="none" stroke="#abdbaf" stroke-width="2" stroke-dasharray="5,2" d="M554,-104C554,-104 524,-104 524,-104 518,-104 512,-98 512,-92 512,-92 512,-80 512,-80 512,-74 518,-68 524,-68 524,-68 554,-68 554,-68 560,-68 566,-74 566,-80 566,-80 566,-92 566,-92 566,-98 560,-104 554,-104"/>
<text text-anchor="middle" x="539" y="-83.5" font-family="sans" font-size="10.00">virify</text>
</g>
<!-- megahit&#45;&gt;virify -->
<g id="edge12" class="edge">
<title>megahit&#45;&gt;virify</title>
<path fill="none" stroke="grey" stroke-width="2" d="M456.18,-179.51C472.31,-161.08 497.21,-132.62 515.31,-111.93"/>
<polygon fill="grey" stroke="grey" stroke-width="2" points="518.17,-113.98 522.12,-104.15 512.9,-109.37 518.17,-113.98"/>
</g>
<!-- magscot -->
<g id="node14" class="node">
<title>magscot</title>
<path fill="none" stroke="#a7d856" stroke-width="2" d="M659,-243C659,-243 620,-243 620,-243 614,-243 608,-237 608,-231 608,-231 608,-219 608,-219 608,-213 614,-207 620,-207 620,-207 659,-207 659,-207 665,-207 671,-213 671,-219 671,-219 671,-231 671,-231 671,-237 665,-243 659,-243"/>
<text text-anchor="middle" x="639.5" y="-222.5" font-family="sans" font-size="10.00">MAGScoT</text>
</g>
<!-- concoct&#45;&gt;magscot -->
<g id="edge14" class="edge">
<title>concoct&#45;&gt;magscot</title>
<path fill="none" stroke="grey" stroke-width="2" d="M571.71,-261.62C580.4,-256.85 589.92,-251.63 598.99,-246.66"/>
<polygon fill="grey" stroke="grey" stroke-width="2" points="600.77,-249.67 607.86,-241.8 597.41,-243.54 600.77,-249.67"/>
</g>
<!-- maxbin2&#45;&gt;magscot -->
<g id="edge15" class="edge">
<title>maxbin2&#45;&gt;magscot</title>
<path fill="none" stroke="grey" stroke-width="2" d="M568.76,-225C577.76,-225 587.88,-225 597.56,-225"/>
<polygon fill="grey" stroke="grey" stroke-width="2" points="597.82,-228.5 607.82,-225 597.82,-221.5 597.82,-228.5"/>
</g>
<!-- metabat2&#45;&gt;magscot -->
<g id="edge13" class="edge">
<title>metabat2&#45;&gt;magscot</title>
<path fill="none" stroke="grey" stroke-width="2" d="M572.25,-188.68C580.75,-193.34 590.01,-198.42 598.85,-203.26"/>
<polygon fill="grey" stroke="grey" stroke-width="2" points="597.4,-206.46 607.85,-208.2 600.76,-200.32 597.4,-206.46"/>
</g>
<!-- drep -->
<g id="node15" class="node">
<title>drep</title>
<path fill="none" stroke="#61d856" stroke-width="2" stroke-dasharray="5,2" d="M749,-243C749,-243 719,-243 719,-243 713,-243 707,-237 707,-231 707,-231 707,-219 707,-219 707,-213 713,-207 719,-207 719,-207 749,-207 749,-207 755,-207 761,-213 761,-219 761,-219 761,-231 761,-231 761,-237 755,-243 749,-243"/>
<text text-anchor="middle" x="734" y="-222.5" font-family="sans" font-size="10.00">dRep</text>
</g>
<!-- magscot&#45;&gt;drep -->
<g id="edge16" class="edge">
<title>magscot&#45;&gt;drep</title>
<path fill="none" stroke="grey" stroke-width="2" d="M671.04,-225C679.27,-225 688.26,-225 696.77,-225"/>
<polygon fill="grey" stroke="grey" stroke-width="2" points="696.83,-228.5 706.83,-225 696.83,-221.5 696.83,-228.5"/>
</g>
<!-- coverm -->
<g id="node16" class="node">
<title>coverm</title>
<path fill="none" stroke="#56d8a9" stroke-width="2" stroke-dasharray="5,2" d="M842,-162C842,-162 812,-162 812,-162 806,-162 800,-156 800,-150 800,-150 800,-138 800,-138 800,-132 806,-126 812,-126 812,-126 842,-126 842,-126 848,-126 854,-132 854,-138 854,-138 854,-150 854,-150 854,-156 848,-162 842,-162"/>
<text text-anchor="middle" x="827" y="-141.5" font-family="sans" font-size="10.00">CoverM</text>
</g>
<!-- drep&#45;&gt;coverm -->
<g id="edge17" class="edge">
<title>drep&#45;&gt;coverm</title>
<path fill="none" stroke="grey" stroke-width="2" d="M755.65,-206.62C768.19,-195.46 784.35,-181.07 798.03,-168.9"/>
<polygon fill="grey" stroke="grey" stroke-width="2" points="800.6,-171.29 805.75,-162.03 795.95,-166.06 800.6,-171.29"/>
</g>
<!-- dram -->
<g id="node17" class="node">
<title>dram</title>
<path fill="none" stroke="#d85e56" stroke-width="2" stroke-dasharray="5,2" d="M842,-216C842,-216 812,-216 812,-216 806,-216 800,-210 800,-204 800,-204 800,-192 800,-192 800,-186 806,-180 812,-180 812,-180 842,-180 842,-180 848,-180 854,-186 854,-192 854,-192 854,-204 854,-204 854,-210 848,-216 842,-216"/>
<text text-anchor="middle" x="827" y="-195.5" font-family="sans" font-size="10.00">DRAM</text>
</g>
<!-- drep&#45;&gt;dram -->
<g id="edge18" class="edge">
<title>drep&#45;&gt;dram</title>
<path fill="none" stroke="grey" stroke-width="2" d="M761.32,-217.19C770.28,-214.53 780.46,-211.51 790.04,-208.67"/>
<polygon fill="grey" stroke="grey" stroke-width="2" points="791.15,-211.99 799.74,-205.79 789.16,-205.28 791.15,-211.99"/>
</g>
<!-- gtdbtk -->
<g id="node18" class="node">
<title>gtdbtk</title>
<path fill="none" stroke="#56d85b" stroke-width="2" stroke-dasharray="5,2" d="M845,-270C845,-270 809,-270 809,-270 803,-270 797,-264 797,-258 797,-258 797,-246 797,-246 797,-240 803,-234 809,-234 809,-234 845,-234 845,-234 851,-234 857,-240 857,-246 857,-246 857,-258 857,-258 857,-264 851,-270 845,-270"/>
<text text-anchor="middle" x="827" y="-249.5" font-family="sans" font-size="10.00">GTDB&#45;TK</text>
</g>
<!-- drep&#45;&gt;gtdbtk -->
<g id="edge19" class="edge">
<title>drep&#45;&gt;gtdbtk</title>
<path fill="none" stroke="grey" stroke-width="2" d="M761.32,-232.81C769.41,-235.21 778.48,-237.9 787.22,-240.49"/>
<polygon fill="grey" stroke="grey" stroke-width="2" points="786.28,-243.87 796.87,-243.36 788.28,-237.16 786.28,-243.87"/>
</g>
<!-- quast -->
<g id="node19" class="node">
<title>quast</title>
<path fill="none" stroke="#56d87b" stroke-width="2" stroke-dasharray="5,2" d="M842,-324C842,-324 812,-324 812,-324 806,-324 800,-318 800,-312 800,-312 800,-300 800,-300 800,-294 806,-288 812,-288 812,-288 842,-288 842,-288 848,-288 854,-294 854,-300 854,-300 854,-312 854,-312 854,-318 848,-324 842,-324"/>
<text text-anchor="middle" x="827" y="-303.5" font-family="sans" font-size="10.00">QUAST</text>
</g>
<!-- drep&#45;&gt;quast -->
<g id="edge20" class="edge">
<title>drep&#45;&gt;quast</title>
<path fill="none" stroke="grey" stroke-width="2" d="M755.65,-243.38C768.19,-254.54 784.35,-268.93 798.03,-281.1"/>
<polygon fill="grey" stroke="grey" stroke-width="2" points="795.95,-283.94 805.75,-287.97 800.6,-278.71 795.95,-283.94"/>
</g>
</g>
</svg>
