<?xml version="1.0" encoding="UTF-8" standalone="no"?>
<!DOCTYPE svg PUBLIC "-//W3C//DTD SVG 1.1//EN"
 "http://www.w3.org/Graphics/SVG/1.1/DTD/svg11.dtd">
<!-- Generated by graphviz version 2.43.0 (0)
 -->
<!-- Title: snakemake_dag Pages: 1 -->
<svg width="894pt" height="342pt"
 viewBox="0.00 0.00 894.00 342.00" xmlns="http://www.w3.org/2000/svg" xmlns:xlink="http://www.w3.org/1999/xlink">
<g id="graph0" class="graph" transform="scale(1 1) rotate(0) translate(4 338)">
<title>snakemake_dag</title>
<polygon fill="white" stroke="transparent" points="-4,4 -4,-338 890,-338 890,4 -4,4"/>
<g id="clust1" class="cluster">
<title>cluster_0</title>
<path fill="white" stroke="black" stroke-width="2" d="M20,-116C20,-116 82,-116 82,-116 88,-116 94,-122 94,-128 94,-128 94,-233 94,-233 94,-239 88,-245 82,-245 82,-245 20,-245 20,-245 14,-245 8,-239 8,-233 8,-233 8,-128 8,-128 8,-122 14,-116 20,-116"/>
<text text-anchor="middle" x="51" y="-233" font-family="sans" font-size="10.00">Input</text>
</g>
<g id="clust2" class="cluster">
<title>cluster_1</title>
<path fill="white" stroke="black" stroke-width="2" d="M122,-8C122,-8 381,-8 381,-8 387,-8 393,-14 393,-20 393,-20 393,-233 393,-233 393,-239 387,-245 381,-245 381,-245 122,-245 122,-245 116,-245 110,-239 110,-233 110,-233 110,-20 110,-20 110,-14 116,-8 122,-8"/>
<text text-anchor="middle" x="251.5" y="-233" font-family="sans" font-size="10.00">Preprocessing</text>
</g>
<g id="clust3" class="cluster">
<title>cluster_2</title>
<path fill="white" stroke="black" stroke-width="2" d="M421,-170C421,-170 479,-170 479,-170 485,-170 491,-176 491,-182 491,-182 491,-233 491,-233 491,-239 485,-245 479,-245 479,-245 421,-245 421,-245 415,-245 409,-239 409,-233 409,-233 409,-182 409,-182 409,-176 415,-170 421,-170"/>
<text text-anchor="middle" x="450" y="-233" font-family="sans" font-size="10.00">Assembly</text>
</g>
<g id="clust4" class="cluster">
<title>cluster_3</title>
<path fill="white" stroke="black" stroke-width="2" d="M519,-116C519,-116 680,-116 680,-116 686,-116 692,-122 692,-128 692,-128 692,-287 692,-287 692,-293 686,-299 680,-299 680,-299 519,-299 519,-299 513,-299 507,-293 507,-287 507,-287 507,-128 507,-128 507,-122 513,-116 519,-116"/>
<text text-anchor="middle" x="599.5" y="-287" font-family="sans" font-size="10.00">Binning</text>
</g>
<g id="clust5" class="cluster">
<title>cluster_4</title>
<path fill="white" stroke="black" stroke-width="2" stroke-dasharray="5,2" d="M720,-89C720,-89 866,-89 866,-89 872,-89 878,-95 878,-101 878,-101 878,-314 878,-314 878,-320 872,-326 866,-326 866,-326 720,-326 720,-326 714,-326 708,-320 708,-314 708,-314 708,-101 708,-101 708,-95 714,-89 720,-89"/>
<text text-anchor="middle" x="793" y="-314" font-family="sans" font-size="10.00">Dereplication</text>
</g>
<!-- reference -->
<g id="node1" class="node">
<title>reference</title>
<path fill="none" stroke="#56d86b" stroke-width="2" d="M72,-216C72,-216 30,-216 30,-216 24,-216 18,-210 18,-204 18,-204 18,-192 18,-192 18,-186 24,-180 30,-180 30,-180 72,-180 72,-180 78,-180 84,-186 84,-192 84,-192 84,-204 84,-204 84,-210 78,-216 72,-216"/>
<text text-anchor="middle" x="51" y="-201" font-family="sans" font-size="10.00">Reference</text>
<text text-anchor="middle" x="51" y="-190" font-family="sans" font-size="10.00">Genome</text>
</g>
<!-- bowtie2 -->
<g id="node4" class="node">
<title>bowtie2</title>
<path fill="none" stroke="#566bd8" stroke-width="2" d="M273,-216C273,-216 222,-216 222,-216 216,-216 210,-210 210,-204 210,-204 210,-192 210,-192 210,-186 216,-180 222,-180 222,-180 273,-180 273,-180 279,-180 285,-186 285,-192 285,-192 285,-204 285,-204 285,-210 279,-216 273,-216"/>
<text text-anchor="middle" x="247.5" y="-201" font-family="sans" font-size="10.00">bowtie2</text>
<text text-anchor="middle" x="247.5" y="-190" font-family="sans" font-size="10.00">map to host</text>
</g>
<!-- reference&#45;&gt;bowtie2 -->
<g id="edge1" class="edge">
<title>reference&#45;&gt;bowtie2</title>
<path fill="none" stroke="grey" stroke-width="2" d="M84.12,-198C115.54,-198 163.76,-198 199.5,-198"/>
<polygon fill="grey" stroke="grey" stroke-width="2" points="199.69,-201.5 209.69,-198 199.69,-194.5 199.69,-201.5"/>
</g>
<!-- fastq -->
<g id="node2" class="node">
<title>fastq</title>
<path fill="none" stroke="#56d873" stroke-width="2" d="M66,-162C66,-162 36,-162 36,-162 30,-162 24,-156 24,-150 24,-150 24,-138 24,-138 24,-132 30,-126 36,-126 36,-126 66,-126 66,-126 72,-126 78,-132 78,-138 78,-138 78,-150 78,-150 78,-156 72,-162 66,-162"/>
<text text-anchor="middle" x="51" y="-147" font-family="sans" font-size="10.00">FASTQ</text>
<text text-anchor="middle" x="51" y="-136" font-family="sans" font-size="10.00">reads</text>
</g>
<!-- fastp -->
<g id="node5" class="node">
<title>fastp</title>
<path fill="none" stroke="#56d892" stroke-width="2" d="M162,-162C162,-162 132,-162 132,-162 126,-162 120,-156 120,-150 120,-150 120,-138 120,-138 120,-132 126,-126 132,-126 132,-126 162,-126 162,-126 168,-126 174,-132 174,-138 174,-138 174,-150 174,-150 174,-156 168,-162 162,-162"/>
<text text-anchor="middle" x="147" y="-141.5" font-family="sans" font-size="10.00">fastp</text>
</g>
<!-- fastq&#45;&gt;fastp -->
<g id="edge2" class="edge">
<title>fastq&#45;&gt;fastp</title>
<path fill="none" stroke="grey" stroke-width="2" d="M78.18,-144C87.96,-144 99.25,-144 109.77,-144"/>
<polygon fill="grey" stroke="grey" stroke-width="2" points="109.96,-147.5 119.96,-144 109.96,-140.5 109.96,-147.5"/>
</g>
<!-- extract -->
<g id="node3" class="node">
<title>extract</title>
<path fill="none" stroke="#56d8b9" stroke-width="2" d="M371,-216C371,-216 333,-216 333,-216 327,-216 321,-210 321,-204 321,-204 321,-192 321,-192 321,-186 327,-180 333,-180 333,-180 371,-180 371,-180 377,-180 383,-186 383,-192 383,-192 383,-204 383,-204 383,-210 377,-216 371,-216"/>
<text text-anchor="middle" x="352" y="-201" font-family="sans" font-size="10.00">Extract</text>
<text text-anchor="middle" x="352" y="-190" font-family="sans" font-size="10.00">Non&#45;Host</text>
</g>
<!-- megahit -->
<g id="node9" class="node">
<title>megahit</title>
<path fill="none" stroke="#d8ac56" stroke-width="2" d="M469,-216C469,-216 431,-216 431,-216 425,-216 419,-210 419,-204 419,-204 419,-192 419,-192 419,-186 425,-180 431,-180 431,-180 469,-180 469,-180 475,-180 481,-186 481,-192 481,-192 481,-204 481,-204 481,-210 475,-216 469,-216"/>
<text text-anchor="middle" x="450" y="-195.5" font-family="sans" font-size="10.00">MEGAHIT</text>
</g>
<!-- extract&#45;&gt;megahit -->
<g id="edge8" class="edge">
<title>extract&#45;&gt;megahit</title>
<path fill="none" stroke="grey" stroke-width="2" d="M383.11,-198C391.24,-198 400.17,-198 408.76,-198"/>
<polygon fill="grey" stroke="grey" stroke-width="2" points="409,-201.5 419,-198 409,-194.5 409,-201.5"/>
</g>
<!-- bowtie2&#45;&gt;extract -->
<g id="edge7" class="edge">
<title>bowtie2&#45;&gt;extract</title>
<path fill="none" stroke="grey" stroke-width="2" d="M285.22,-198C293.55,-198 302.44,-198 310.9,-198"/>
<polygon fill="grey" stroke="grey" stroke-width="2" points="310.95,-201.5 320.95,-198 310.95,-194.5 310.95,-201.5"/>
</g>
<!-- fastp&#45;&gt;bowtie2 -->
<g id="edge3" class="edge">
<title>fastp&#45;&gt;bowtie2</title>
<path fill="none" stroke="grey" stroke-width="2" d="M174.14,-158.33C183.48,-163.45 194.26,-169.36 204.6,-175.03"/>
<polygon fill="grey" stroke="grey" stroke-width="2" points="203.08,-178.19 213.53,-179.92 206.44,-172.05 203.08,-178.19"/>
</g>
<!-- nonpareil -->
<g id="node6" class="node">
<title>nonpareil</title>
<path fill="none" stroke="#a7d856" stroke-width="2" stroke-dasharray="5,2" d="M267.5,-54C267.5,-54 227.5,-54 227.5,-54 221.5,-54 215.5,-48 215.5,-42 215.5,-42 215.5,-30 215.5,-30 215.5,-24 221.5,-18 227.5,-18 227.5,-18 267.5,-18 267.5,-18 273.5,-18 279.5,-24 279.5,-30 279.5,-30 279.5,-42 279.5,-42 279.5,-48 273.5,-54 267.5,-54"/>
<text text-anchor="middle" x="247.5" y="-33.5" font-family="sans" font-size="10.00">Nonpareil</text>
</g>
<!-- fastp&#45;&gt;nonpareil -->
<g id="edge4" class="edge">
<title>fastp&#45;&gt;nonpareil</title>
<path fill="none" stroke="grey" stroke-width="2" d="M159.75,-125.78C171.35,-108.55 190.18,-82.5 210,-63 210.79,-62.23 211.6,-61.46 212.42,-60.69"/>
<polygon fill="grey" stroke="grey" stroke-width="2" points="214.9,-63.18 220.24,-54.02 210.36,-57.85 214.9,-63.18"/>
</g>
<!-- singlem -->
<g id="node7" class="node">
<title>singlem</title>
<path fill="none" stroke="#d8ac56" stroke-width="2" stroke-dasharray="5,2" d="M263.5,-108C263.5,-108 231.5,-108 231.5,-108 225.5,-108 219.5,-102 219.5,-96 219.5,-96 219.5,-84 219.5,-84 219.5,-78 225.5,-72 231.5,-72 231.5,-72 263.5,-72 263.5,-72 269.5,-72 275.5,-78 275.5,-84 275.5,-84 275.5,-96 275.5,-96 275.5,-102 269.5,-108 263.5,-108"/>
<text text-anchor="middle" x="247.5" y="-87.5" font-family="sans" font-size="10.00">SingleM</text>
</g>
<!-- fastp&#45;&gt;singlem -->
<g id="edge5" class="edge">
<title>fastp&#45;&gt;singlem</title>
<path fill="none" stroke="grey" stroke-width="2" d="M174.14,-129.67C185.22,-123.6 198.32,-116.41 210.31,-109.84"/>
<polygon fill="grey" stroke="grey" stroke-width="2" points="212.12,-112.84 219.21,-104.96 208.76,-106.7 212.12,-112.84"/>
</g>
<!-- kraken2 -->
<g id="node8" class="node">
<title>kraken2</title>
<path fill="none" stroke="#61d856" stroke-width="2" d="M263.5,-162C263.5,-162 231.5,-162 231.5,-162 225.5,-162 219.5,-156 219.5,-150 219.5,-150 219.5,-138 219.5,-138 219.5,-132 225.5,-126 231.5,-126 231.5,-126 263.5,-126 263.5,-126 269.5,-126 275.5,-132 275.5,-138 275.5,-138 275.5,-150 275.5,-150 275.5,-156 269.5,-162 263.5,-162"/>
<text text-anchor="middle" x="247.5" y="-141.5" font-family="sans" font-size="10.00">kraken2</text>
</g>
<!-- fastp&#45;&gt;kraken2 -->
<g id="edge6" class="edge">
<title>fastp&#45;&gt;kraken2</title>
<path fill="none" stroke="grey" stroke-width="2" d="M174.14,-144C184.78,-144 197.3,-144 208.89,-144"/>
<polygon fill="grey" stroke="grey" stroke-width="2" points="209.21,-147.5 219.21,-144 209.21,-140.5 209.21,-147.5"/>
</g>
<!-- concoct -->
<g id="node10" class="node">
<title>concoct</title>
<path fill="none" stroke="#56d86b" stroke-width="2" d="M570.5,-270C570.5,-270 529.5,-270 529.5,-270 523.5,-270 517.5,-264 517.5,-258 517.5,-258 517.5,-246 517.5,-246 517.5,-240 523.5,-234 529.5,-234 529.5,-234 570.5,-234 570.5,-234 576.5,-234 582.5,-240 582.5,-246 582.5,-246 582.5,-258 582.5,-258 582.5,-264 576.5,-270 570.5,-270"/>
<text text-anchor="middle" x="550" y="-249.5" font-family="sans" font-size="10.00">CONCOCT</text>
</g>
<!-- megahit&#45;&gt;concoct -->
<g id="edge9" class="edge">
<title>megahit&#45;&gt;concoct</title>
<path fill="none" stroke="grey" stroke-width="2" d="M481.2,-214.64C489.81,-219.38 499.32,-224.63 508.44,-229.65"/>
<polygon fill="grey" stroke="grey" stroke-width="2" points="506.92,-232.81 517.37,-234.57 510.3,-226.68 506.92,-232.81"/>
</g>
<!-- maxbin2 -->
<g id="node11" class="node">
<title>maxbin2</title>
<path fill="none" stroke="#56c9d8" stroke-width="2" d="M567.5,-216C567.5,-216 532.5,-216 532.5,-216 526.5,-216 520.5,-210 520.5,-204 520.5,-204 520.5,-192 520.5,-192 520.5,-186 526.5,-180 532.5,-180 532.5,-180 567.5,-180 567.5,-180 573.5,-180 579.5,-186 579.5,-192 579.5,-192 579.5,-204 579.5,-204 579.5,-210 573.5,-216 567.5,-216"/>
<text text-anchor="middle" x="550" y="-195.5" font-family="sans" font-size="10.00">MaxBin2</text>
</g>
<!-- megahit&#45;&gt;maxbin2 -->
<g id="edge10" class="edge">
<title>megahit&#45;&gt;maxbin2</title>
<path fill="none" stroke="grey" stroke-width="2" d="M481.2,-198C490.37,-198 500.58,-198 510.23,-198"/>
<polygon fill="grey" stroke="grey" stroke-width="2" points="510.4,-201.5 520.4,-198 510.4,-194.5 510.4,-201.5"/>
</g>
<!-- metabat2 -->
<g id="node12" class="node">
<title>metabat2</title>
<path fill="none" stroke="#d86656" stroke-width="2" d="M571,-162C571,-162 529,-162 529,-162 523,-162 517,-156 517,-150 517,-150 517,-138 517,-138 517,-132 523,-126 529,-126 529,-126 571,-126 571,-126 577,-126 583,-132 583,-138 583,-138 583,-150 583,-150 583,-156 577,-162 571,-162"/>
<text text-anchor="middle" x="550" y="-141.5" font-family="sans" font-size="10.00">MetaBAT2</text>
</g>
<!-- megahit&#45;&gt;metabat2 -->
<g id="edge11" class="edge">
<title>megahit&#45;&gt;metabat2</title>
<path fill="none" stroke="grey" stroke-width="2" d="M481.2,-181.36C489.64,-176.71 498.95,-171.58 507.9,-166.65"/>
<polygon fill="grey" stroke="grey" stroke-width="2" points="509.62,-169.7 516.69,-161.81 506.24,-163.57 509.62,-169.7"/>
</g>
<!-- magscot -->
<g id="node13" class="node">
<title>magscot</title>
<path fill="none" stroke="#a7d856" stroke-width="2" d="M670,-216C670,-216 631,-216 631,-216 625,-216 619,-210 619,-204 619,-204 619,-192 619,-192 619,-186 625,-180 631,-180 631,-180 670,-180 670,-180 676,-180 682,-186 682,-192 682,-192 682,-204 682,-204 682,-210 676,-216 670,-216"/>
<text text-anchor="middle" x="650.5" y="-195.5" font-family="sans" font-size="10.00">MAGScoT</text>
</g>
<!-- concoct&#45;&gt;magscot -->
<g id="edge13" class="edge">
<title>concoct&#45;&gt;magscot</title>
<path fill="none" stroke="grey" stroke-width="2" d="M582.71,-234.62C591.4,-229.85 600.92,-224.63 609.99,-219.66"/>
<polygon fill="grey" stroke="grey" stroke-width="2" points="611.77,-222.67 618.86,-214.8 608.41,-216.54 611.77,-222.67"/>
</g>
<!-- maxbin2&#45;&gt;magscot -->
<g id="edge14" class="edge">
<title>maxbin2&#45;&gt;magscot</title>
<path fill="none" stroke="grey" stroke-width="2" d="M579.76,-198C588.76,-198 598.88,-198 608.56,-198"/>
<polygon fill="grey" stroke="grey" stroke-width="2" points="608.82,-201.5 618.82,-198 608.82,-194.5 608.82,-201.5"/>
</g>
<!-- metabat2&#45;&gt;magscot -->
<g id="edge12" class="edge">
<title>metabat2&#45;&gt;magscot</title>
<path fill="none" stroke="grey" stroke-width="2" d="M583.25,-161.68C591.75,-166.34 601.01,-171.42 609.85,-176.26"/>
<polygon fill="grey" stroke="grey" stroke-width="2" points="608.4,-179.46 618.85,-181.2 611.76,-173.32 608.4,-179.46"/>
</g>
<!-- drep -->
<g id="node14" class="node">
<title>drep</title>
<path fill="none" stroke="#61d856" stroke-width="2" stroke-dasharray="5,2" d="M760,-216C760,-216 730,-216 730,-216 724,-216 718,-210 718,-204 718,-204 718,-192 718,-192 718,-186 724,-180 730,-180 730,-180 760,-180 760,-180 766,-180 772,-186 772,-192 772,-192 772,-204 772,-204 772,-210 766,-216 760,-216"/>
<text text-anchor="middle" x="745" y="-195.5" font-family="sans" font-size="10.00">dRep</text>
</g>
<!-- magscot&#45;&gt;drep -->
<g id="edge15" class="edge">
<title>magscot&#45;&gt;drep</title>
<path fill="none" stroke="grey" stroke-width="2" d="M682.04,-198C690.27,-198 699.26,-198 707.77,-198"/>
<polygon fill="grey" stroke="grey" stroke-width="2" points="707.83,-201.5 717.83,-198 707.83,-194.5 707.83,-201.5"/>
</g>
<!-- coverm -->
<g id="node15" class="node">
<title>coverm</title>
<path fill="none" stroke="#56d8a9" stroke-width="2" stroke-dasharray="5,2" d="M853,-135C853,-135 823,-135 823,-135 817,-135 811,-129 811,-123 811,-123 811,-111 811,-111 811,-105 817,-99 823,-99 823,-99 853,-99 853,-99 859,-99 865,-105 865,-111 865,-111 865,-123 865,-123 865,-129 859,-135 853,-135"/>
<text text-anchor="middle" x="838" y="-114.5" font-family="sans" font-size="10.00">CoverM</text>
</g>
<!-- drep&#45;&gt;coverm -->
<g id="edge16" class="edge">
<title>drep&#45;&gt;coverm</title>
<path fill="none" stroke="grey" stroke-width="2" d="M766.65,-179.62C779.19,-168.46 795.35,-154.07 809.03,-141.9"/>
<polygon fill="grey" stroke="grey" stroke-width="2" points="811.6,-144.29 816.75,-135.03 806.95,-139.06 811.6,-144.29"/>
</g>
<!-- dram -->
<g id="node16" class="node">
<title>dram</title>
<path fill="none" stroke="#d85e56" stroke-width="2" stroke-dasharray="5,2" d="M853,-189C853,-189 823,-189 823,-189 817,-189 811,-183 811,-177 811,-177 811,-165 811,-165 811,-159 817,-153 823,-153 823,-153 853,-153 853,-153 859,-153 865,-159 865,-165 865,-165 865,-177 865,-177 865,-183 859,-189 853,-189"/>
<text text-anchor="middle" x="838" y="-168.5" font-family="sans" font-size="10.00">DRAM</text>
</g>
<!-- drep&#45;&gt;dram -->
<g id="edge17" class="edge">
<title>drep&#45;&gt;dram</title>
<path fill="none" stroke="grey" stroke-width="2" d="M772.32,-190.19C781.28,-187.53 791.46,-184.51 801.04,-181.67"/>
<polygon fill="grey" stroke="grey" stroke-width="2" points="802.15,-184.99 810.74,-178.79 800.16,-178.28 802.15,-184.99"/>
</g>
<!-- gtdbtk -->
<g id="node17" class="node">
<title>gtdbtk</title>
<path fill="none" stroke="#56d85b" stroke-width="2" stroke-dasharray="5,2" d="M856,-243C856,-243 820,-243 820,-243 814,-243 808,-237 808,-231 808,-231 808,-219 808,-219 808,-213 814,-207 820,-207 820,-207 856,-207 856,-207 862,-207 868,-213 868,-219 868,-219 868,-231 868,-231 868,-237 862,-243 856,-243"/>
<text text-anchor="middle" x="838" y="-222.5" font-family="sans" font-size="10.00">GTDB&#45;TK</text>
</g>
<!-- drep&#45;&gt;gtdbtk -->
<g id="edge18" class="edge">
<title>drep&#45;&gt;gtdbtk</title>
<path fill="none" stroke="grey" stroke-width="2" d="M772.32,-205.81C780.41,-208.21 789.48,-210.9 798.22,-213.49"/>
<polygon fill="grey" stroke="grey" stroke-width="2" points="797.28,-216.87 807.87,-216.36 799.28,-210.16 797.28,-216.87"/>
</g>
<!-- quast -->
<g id="node18" class="node">
<title>quast</title>
<path fill="none" stroke="#56d87b" stroke-width="2" stroke-dasharray="5,2" d="M853,-297C853,-297 823,-297 823,-297 817,-297 811,-291 811,-285 811,-285 811,-273 811,-273 811,-267 817,-261 823,-261 823,-261 853,-261 853,-261 859,-261 865,-267 865,-273 865,-273 865,-285 865,-285 865,-291 859,-297 853,-297"/>
<text text-anchor="middle" x="838" y="-276.5" font-family="sans" font-size="10.00">QUAST</text>
</g>
<!-- drep&#45;&gt;quast -->
<g id="edge19" class="edge">
<title>drep&#45;&gt;quast</title>
<path fill="none" stroke="grey" stroke-width="2" d="M766.65,-216.38C779.19,-227.54 795.35,-241.93 809.03,-254.1"/>
<polygon fill="grey" stroke="grey" stroke-width="2" points="806.95,-256.94 816.75,-260.97 811.6,-251.71 806.95,-256.94"/>
</g>
</g>
</svg>
