<?xml version="1.0" encoding="UTF-8" standalone="no"?>
<!DOCTYPE svg PUBLIC "-//W3C//DTD SVG 1.1//EN"
 "http://www.w3.org/Graphics/SVG/1.1/DTD/svg11.dtd">
<!-- Generated by graphviz version 2.43.0 (0)
 -->
<!-- Title: snakemake_dag Pages: 1 -->
<svg width="894pt" height="369pt"
 viewBox="0.00 0.00 894.00 369.00" xmlns="http://www.w3.org/2000/svg" xmlns:xlink="http://www.w3.org/1999/xlink">
<g id="graph0" class="graph" transform="scale(1 1) rotate(0) translate(4 365)">
<title>snakemake_dag</title>
<polygon fill="white" stroke="transparent" points="-4,4 -4,-365 890,-365 890,4 -4,4"/>
<g id="clust1" class="cluster">
<title>cluster_0</title>
<path fill="white" stroke="black" stroke-width="2" d="M20,-116C20,-116 82,-116 82,-116 88,-116 94,-122 94,-128 94,-128 94,-233 94,-233 94,-239 88,-245 82,-245 82,-245 20,-245 20,-245 14,-245 8,-239 8,-233 8,-233 8,-128 8,-128 8,-122 14,-116 20,-116"/>
<text text-anchor="middle" x="51" y="-233" font-family="sans" font-size="10.00">Input</text>
</g>
<g id="clust2" class="cluster">
<title>cluster_1</title>
<path fill="white" stroke="black" stroke-width="2" d="M122,-8C122,-8 381,-8 381,-8 387,-8 393,-14 393,-20 393,-20 393,-233 393,-233 393,-239 387,-245 381,-245 381,-245 122,-245 122,-245 116,-245 110,-239 110,-233 110,-233 110,-20 110,-20 110,-14 116,-8 122,-8"/>
<text text-anchor="middle" x="251.5" y="-233" font-family="sans" font-size="10.00">Preprocessing</text>
</g>
<g id="clust3" class="cluster">
<title>cluster_2</title>
<path fill="white" stroke="black" stroke-width="2" d="M421,-170C421,-170 479,-170 479,-170 485,-170 491,-176 491,-182 491,-182 491,-233 491,-233 491,-239 485,-245 479,-245 479,-245 421,-245 421,-245 415,-245 409,-239 409,-233 409,-233 409,-182 409,-182 409,-176 415,-170 421,-170"/>
<text text-anchor="middle" x="450" y="-233" font-family="sans" font-size="10.00">Assembly</text>
</g>
<g id="clust4" class="cluster">
<title>cluster_3</title>
<path fill="white" stroke="black" stroke-width="2" d="M519,-143C519,-143 680,-143 680,-143 686,-143 692,-149 692,-155 692,-155 692,-314 692,-314 692,-320 686,-326 680,-326 680,-326 519,-326 519,-326 513,-326 507,-320 507,-314 507,-314 507,-155 507,-155 507,-149 513,-143 519,-143"/>
<text text-anchor="middle" x="599.5" y="-314" font-family="sans" font-size="10.00">Binning</text>
</g>
<g id="clust5" class="cluster">
<title>cluster_4</title>
<path fill="white" stroke="black" stroke-width="2" stroke-dasharray="5,2" d="M720,-116C720,-116 866,-116 866,-116 872,-116 878,-122 878,-128 878,-128 878,-341 878,-341 878,-347 872,-353 866,-353 866,-353 720,-353 720,-353 714,-353 708,-347 708,-341 708,-341 708,-128 708,-128 708,-122 714,-116 720,-116"/>
<text text-anchor="middle" x="793" y="-341" font-family="sans" font-size="10.00">Dereplication</text>
</g>
<g id="clust6" class="cluster">
<title>cluster_5_space</title>
</g>
<g id="clust7" class="cluster">
<title>cluster_5</title>
<path fill="white" stroke="black" stroke-width="2" stroke-dasharray="5,2" d="M525,-58C525,-58 575,-58 575,-58 581,-58 587,-64 587,-70 587,-70 587,-121 587,-121 587,-127 581,-133 575,-133 575,-133 525,-133 525,-133 519,-133 513,-127 513,-121 513,-121 513,-70 513,-70 513,-64 519,-58 525,-58"/>
<text text-anchor="middle" x="550" y="-121" font-family="sans" font-size="10.00">Virify</text>
</g>
<!-- reference -->
<g id="node1" class="node">
<title>reference</title>
<path fill="none" stroke="#56d86b" stroke-width="2" d="M72,-216C72,-216 30,-216 30,-216 24,-216 18,-210 18,-204 18,-204 18,-192 18,-192 18,-186 24,-180 30,-180 30,-180 72,-180 72,-180 78,-180 84,-186 84,-192 84,-192 84,-204 84,-204 84,-210 78,-216 72,-216"/>
<text text-anchor="middle" x="51" y="-201" font-family="sans" font-size="10.00">Reference</text>
<text text-anchor="middle" x="51" y="-190" font-family="sans" font-size="10.00">Genome</text>
</g>
<!-- bowtie2 -->
<g id="node4" class="node">
<title>bowtie2</title>
<path fill="none" stroke="#566bd8" stroke-width="2" d="M273,-216C273,-216 222,-216 222,-216 216,-216 210,-210 210,-204 210,-204 210,-192 210,-192 210,-186 216,-180 222,-180 222,-180 273,-180 273,-180 279,-180 285,-186 285,-192 285,-192 285,-204 285,-204 285,-210 279,-216 273,-216"/>
<text text-anchor="middle" x="247.5" y="-201" font-family="sans" font-size="10.00">bowtie2</text>
<text text-anchor="middle" x="247.5" y="-190" font-family="sans" font-size="10.00">map to host</text>
</g>
<!-- reference&#45;&gt;bowtie2 -->
<g id="edge1" class="edge">
<title>reference&#45;&gt;bowtie2</title>
<path fill="none" stroke="grey" stroke-width="2" d="M84.12,-198C115.54,-198 163.76,-198 199.5,-198"/>
<polygon fill="grey" stroke="grey" stroke-width="2" points="199.69,-201.5 209.69,-198 199.69,-194.5 199.69,-201.5"/>
</g>
<!-- fastq -->
<g id="node2" class="node">
<title>fastq</title>
<path fill="none" stroke="#56d873" stroke-width="2" d="M66,-162C66,-162 36,-162 36,-162 30,-162 24,-156 24,-150 24,-150 24,-138 24,-138 24,-132 30,-126 36,-126 36,-126 66,-126 66,-126 72,-126 78,-132 78,-138 78,-138 78,-150 78,-150 78,-156 72,-162 66,-162"/>
<text text-anchor="middle" x="51" y="-147" font-family="sans" font-size="10.00">FASTQ</text>
<text text-anchor="middle" x="51" y="-136" font-family="sans" font-size="10.00">reads</text>
</g>
<!-- fastp -->
<g id="node5" class="node">
<title>fastp</title>
<path fill="none" stroke="#56d892" stroke-width="2" d="M162,-162C162,-162 132,-162 132,-162 126,-162 120,-156 120,-150 120,-150 120,-138 120,-138 120,-132 126,-126 132,-126 132,-126 162,-126 162,-126 168,-126 174,-132 174,-138 174,-138 174,-150 174,-150 174,-156 168,-162 162,-162"/>
<text text-anchor="middle" x="147" y="-141.5" font-family="sans" font-size="10.00">fastp</text>
</g>
<!-- fastq&#45;&gt;fastp -->
<g id="edge2" class="edge">
<title>fastq&#45;&gt;fastp</title>
<path fill="none" stroke="grey" stroke-width="2" d="M78.18,-144C87.96,-144 99.25,-144 109.77,-144"/>
<polygon fill="grey" stroke="grey" stroke-width="2" points="109.96,-147.5 119.96,-144 109.96,-140.5 109.96,-147.5"/>
</g>
<!-- extract -->
<g id="node3" class="node">
<title>extract</title>
<path fill="none" stroke="#56d8b9" stroke-width="2" d="M371,-216C371,-216 333,-216 333,-216 327,-216 321,-210 321,-204 321,-204 321,-192 321,-192 321,-186 327,-180 333,-180 333,-180 371,-180 371,-180 377,-180 383,-186 383,-192 383,-192 383,-204 383,-204 383,-210 377,-216 371,-216"/>
<text text-anchor="middle" x="352" y="-201" font-family="sans" font-size="10.00">Extract</text>
<text text-anchor="middle" x="352" y="-190" font-family="sans" font-size="10.00">Non&#45;Host</text>
</g>
<!-- megahit -->
<g id="node9" class="node">
<title>megahit</title>
<path fill="none" stroke="#d8ac56" stroke-width="2" d="M469,-216C469,-216 431,-216 431,-216 425,-216 419,-210 419,-204 419,-204 419,-192 419,-192 419,-186 425,-180 431,-180 431,-180 469,-180 469,-180 475,-180 481,-186 481,-192 481,-192 481,-204 481,-204 481,-210 475,-216 469,-216"/>
<text text-anchor="middle" x="450" y="-195.5" font-family="sans" font-size="10.00">MEGAHIT</text>
</g>
<!-- extract&#45;&gt;megahit -->
<g id="edge8" class="edge">
<title>extract&#45;&gt;megahit</title>
<path fill="none" stroke="grey" stroke-width="2" d="M383.11,-198C391.24,-198 400.17,-198 408.76,-198"/>
<polygon fill="grey" stroke="grey" stroke-width="2" points="409,-201.5 419,-198 409,-194.5 409,-201.5"/>
</g>
<!-- bowtie2&#45;&gt;extract -->
<g id="edge7" class="edge">
<title>bowtie2&#45;&gt;extract</title>
<path fill="none" stroke="grey" stroke-width="2" d="M285.22,-198C293.55,-198 302.44,-198 310.9,-198"/>
<polygon fill="grey" stroke="grey" stroke-width="2" points="310.95,-201.5 320.95,-198 310.95,-194.5 310.95,-201.5"/>
</g>
<!-- fastp&#45;&gt;bowtie2 -->
<g id="edge3" class="edge">
<title>fastp&#45;&gt;bowtie2</title>
<path fill="none" stroke="grey" stroke-width="2" d="M174.14,-158.33C183.48,-163.45 194.26,-169.36 204.6,-175.03"/>
<polygon fill="grey" stroke="grey" stroke-width="2" points="203.08,-178.19 213.53,-179.92 206.44,-172.05 203.08,-178.19"/>
</g>
<!-- nonpareil -->
<g id="node6" class="node">
<title>nonpareil</title>
<path fill="none" stroke="#a7d856" stroke-width="2" stroke-dasharray="5,2" d="M267.5,-54C267.5,-54 227.5,-54 227.5,-54 221.5,-54 215.5,-48 215.5,-42 215.5,-42 215.5,-30 215.5,-30 215.5,-24 221.5,-18 227.5,-18 227.5,-18 267.5,-18 267.5,-18 273.5,-18 279.5,-24 279.5,-30 279.5,-30 279.5,-42 279.5,-42 279.5,-48 273.5,-54 267.5,-54"/>
<text text-anchor="middle" x="247.5" y="-33.5" font-family="sans" font-size="10.00">Nonpareil</text>
</g>
<!-- fastp&#45;&gt;nonpareil -->
<g id="edge4" class="edge">
<title>fastp&#45;&gt;nonpareil</title>
<path fill="none" stroke="grey" stroke-width="2" d="M159.75,-125.78C171.35,-108.55 190.18,-82.5 210,-63 210.79,-62.23 211.6,-61.46 212.42,-60.69"/>
<polygon fill="grey" stroke="grey" stroke-width="2" points="214.9,-63.18 220.24,-54.02 210.36,-57.85 214.9,-63.18"/>
</g>
<!-- singlem -->
<g id="node7" class="node">
<title>singlem</title>
<path fill="none" stroke="#d8ac56" stroke-width="2" stroke-dasharray="5,2" d="M263.5,-108C263.5,-108 231.5,-108 231.5,-108 225.5,-108 219.5,-102 219.5,-96 219.5,-96 219.5,-84 219.5,-84 219.5,-78 225.5,-72 231.5,-72 231.5,-72 263.5,-72 263.5,-72 269.5,-72 275.5,-78 275.5,-84 275.5,-84 275.5,-96 275.5,-96 275.5,-102 269.5,-108 263.5,-108"/>
<text text-anchor="middle" x="247.5" y="-87.5" font-family="sans" font-size="10.00">SingleM</text>
</g>
<!-- fastp&#45;&gt;singlem -->
<g id="edge5" class="edge">
<title>fastp&#45;&gt;singlem</title>
<path fill="none" stroke="grey" stroke-width="2" d="M174.14,-129.67C185.22,-123.6 198.32,-116.41 210.31,-109.84"/>
<polygon fill="grey" stroke="grey" stroke-width="2" points="212.12,-112.84 219.21,-104.96 208.76,-106.7 212.12,-112.84"/>
</g>
<!-- kraken2 -->
<g id="node8" class="node">
<title>kraken2</title>
<path fill="none" stroke="#61d856" stroke-width="2" d="M263.5,-162C263.5,-162 231.5,-162 231.5,-162 225.5,-162 219.5,-156 219.5,-150 219.5,-150 219.5,-138 219.5,-138 219.5,-132 225.5,-126 231.5,-126 231.5,-126 263.5,-126 263.5,-126 269.5,-126 275.5,-132 275.5,-138 275.5,-138 275.5,-150 275.5,-150 275.5,-156 269.5,-162 263.5,-162"/>
<text text-anchor="middle" x="247.5" y="-141.5" font-family="sans" font-size="10.00">kraken2</text>
</g>
<!-- fastp&#45;&gt;kraken2 -->
<g id="edge6" class="edge">
<title>fastp&#45;&gt;kraken2</title>
<path fill="none" stroke="grey" stroke-width="2" d="M174.14,-144C184.78,-144 197.3,-144 208.89,-144"/>
<polygon fill="grey" stroke="grey" stroke-width="2" points="209.21,-147.5 219.21,-144 209.21,-140.5 209.21,-147.5"/>
</g>
<!-- concoct -->
<g id="node10" class="node">
<title>concoct</title>
<path fill="none" stroke="#56d86b" stroke-width="2" d="M570.5,-297C570.5,-297 529.5,-297 529.5,-297 523.5,-297 517.5,-291 517.5,-285 517.5,-285 517.5,-273 517.5,-273 517.5,-267 523.5,-261 529.5,-261 529.5,-261 570.5,-261 570.5,-261 576.5,-261 582.5,-267 582.5,-273 582.5,-273 582.5,-285 582.5,-285 582.5,-291 576.5,-297 570.5,-297"/>
<text text-anchor="middle" x="550" y="-276.5" font-family="sans" font-size="10.00">CONCOCT</text>
</g>
<!-- megahit&#45;&gt;concoct -->
<g id="edge9" class="edge">
<title>megahit&#45;&gt;concoct</title>
<path fill="none" stroke="grey" stroke-width="2" d="M466.28,-216.25C476.1,-227.34 489.51,-241.36 503,-252 504.77,-253.4 506.62,-254.77 508.53,-256.12"/>
<polygon fill="grey" stroke="grey" stroke-width="2" points="506.8,-259.18 517.07,-261.8 510.68,-253.35 506.8,-259.18"/>
</g>
<!-- maxbin2 -->
<g id="node11" class="node">
<title>maxbin2</title>
<path fill="none" stroke="#56c9d8" stroke-width="2" d="M567.5,-243C567.5,-243 532.5,-243 532.5,-243 526.5,-243 520.5,-237 520.5,-231 520.5,-231 520.5,-219 520.5,-219 520.5,-213 526.5,-207 532.5,-207 532.5,-207 567.5,-207 567.5,-207 573.5,-207 579.5,-213 579.5,-219 579.5,-219 579.5,-231 579.5,-231 579.5,-237 573.5,-243 567.5,-243"/>
<text text-anchor="middle" x="550" y="-222.5" font-family="sans" font-size="10.00">MaxBin2</text>
</g>
<!-- megahit&#45;&gt;maxbin2 -->
<g id="edge10" class="edge">
<title>megahit&#45;&gt;maxbin2</title>
<path fill="none" stroke="grey" stroke-width="2" d="M481.2,-206.32C490.47,-208.87 500.79,-211.72 510.53,-214.4"/>
<polygon fill="grey" stroke="grey" stroke-width="2" points="509.83,-217.84 520.4,-217.12 511.69,-211.09 509.83,-217.84"/>
</g>
<!-- metabat2 -->
<g id="node12" class="node">
<title>metabat2</title>
<path fill="none" stroke="#d86656" stroke-width="2" d="M571,-189C571,-189 529,-189 529,-189 523,-189 517,-183 517,-177 517,-177 517,-165 517,-165 517,-159 523,-153 529,-153 529,-153 571,-153 571,-153 577,-153 583,-159 583,-165 583,-165 583,-177 583,-177 583,-183 577,-189 571,-189"/>
<text text-anchor="middle" x="550" y="-168.5" font-family="sans" font-size="10.00">MetaBAT2</text>
</g>
<!-- megahit&#45;&gt;metabat2 -->
<g id="edge11" class="edge">
<title>megahit&#45;&gt;metabat2</title>
<path fill="none" stroke="grey" stroke-width="2" d="M481.2,-189.68C489.29,-187.45 498.18,-185 506.78,-182.63"/>
<polygon fill="grey" stroke="grey" stroke-width="2" points="507.98,-185.93 516.69,-179.9 506.12,-179.18 507.98,-185.93"/>
</g>
<!-- virify -->
<g id="node13" class="node">
<title>virify</title>
<path fill="none" stroke="#abdbaf" stroke-width="2" stroke-dasharray="5,2" d="M565,-104C565,-104 535,-104 535,-104 529,-104 523,-98 523,-92 523,-92 523,-80 523,-80 523,-74 529,-68 535,-68 535,-68 565,-68 565,-68 571,-68 577,-74 577,-80 577,-80 577,-92 577,-92 577,-98 571,-104 565,-104"/>
<text text-anchor="middle" x="550" y="-83.5" font-family="sans" font-size="10.00">virify</text>
</g>
<!-- megahit&#45;&gt;virify -->
<g id="edge12" class="edge">
<title>megahit&#45;&gt;virify</title>
<path fill="none" stroke="grey" stroke-width="2" d="M467.18,-179.51C483.31,-161.08 508.21,-132.62 526.31,-111.93"/>
<polygon fill="grey" stroke="grey" stroke-width="2" points="529.17,-113.98 533.12,-104.15 523.9,-109.37 529.17,-113.98"/>
</g>
<!-- magscot -->
<g id="node14" class="node">
<title>magscot</title>
<path fill="none" stroke="#a7d856" stroke-width="2" d="M670,-243C670,-243 631,-243 631,-243 625,-243 619,-237 619,-231 619,-231 619,-219 619,-219 619,-213 625,-207 631,-207 631,-207 670,-207 670,-207 676,-207 682,-213 682,-219 682,-219 682,-231 682,-231 682,-237 676,-243 670,-243"/>
<text text-anchor="middle" x="650.5" y="-222.5" font-family="sans" font-size="10.00">MAGScoT</text>
</g>
<!-- concoct&#45;&gt;magscot -->
<g id="edge14" class="edge">
<title>concoct&#45;&gt;magscot</title>
<path fill="none" stroke="grey" stroke-width="2" d="M582.71,-261.62C591.4,-256.85 600.92,-251.63 609.99,-246.66"/>
<polygon fill="grey" stroke="grey" stroke-width="2" points="611.77,-249.67 618.86,-241.8 608.41,-243.54 611.77,-249.67"/>
</g>
<!-- maxbin2&#45;&gt;magscot -->
<g id="edge15" class="edge">
<title>maxbin2&#45;&gt;magscot</title>
<path fill="none" stroke="grey" stroke-width="2" d="M579.76,-225C588.76,-225 598.88,-225 608.56,-225"/>
<polygon fill="grey" stroke="grey" stroke-width="2" points="608.82,-228.5 618.82,-225 608.82,-221.5 608.82,-228.5"/>
</g>
<!-- metabat2&#45;&gt;magscot -->
<g id="edge13" class="edge">
<title>metabat2&#45;&gt;magscot</title>
<path fill="none" stroke="grey" stroke-width="2" d="M583.25,-188.68C591.75,-193.34 601.01,-198.42 609.85,-203.26"/>
<polygon fill="grey" stroke="grey" stroke-width="2" points="608.4,-206.46 618.85,-208.2 611.76,-200.32 608.4,-206.46"/>
</g>
<!-- drep -->
<g id="node15" class="node">
<title>drep</title>
<path fill="none" stroke="#61d856" stroke-width="2" stroke-dasharray="5,2" d="M760,-243C760,-243 730,-243 730,-243 724,-243 718,-237 718,-231 718,-231 718,-219 718,-219 718,-213 724,-207 730,-207 730,-207 760,-207 760,-207 766,-207 772,-213 772,-219 772,-219 772,-231 772,-231 772,-237 766,-243 760,-243"/>
<text text-anchor="middle" x="745" y="-222.5" font-family="sans" font-size="10.00">dRep</text>
</g>
<!-- magscot&#45;&gt;drep -->
<g id="edge16" class="edge">
<title>magscot&#45;&gt;drep</title>
<path fill="none" stroke="grey" stroke-width="2" d="M682.04,-225C690.27,-225 699.26,-225 707.77,-225"/>
<polygon fill="grey" stroke="grey" stroke-width="2" points="707.83,-228.5 717.83,-225 707.83,-221.5 707.83,-228.5"/>
</g>
<!-- coverm -->
<g id="node16" class="node">
<title>coverm</title>
<path fill="none" stroke="#56d8a9" stroke-width="2" stroke-dasharray="5,2" d="M853,-162C853,-162 823,-162 823,-162 817,-162 811,-156 811,-150 811,-150 811,-138 811,-138 811,-132 817,-126 823,-126 823,-126 853,-126 853,-126 859,-126 865,-132 865,-138 865,-138 865,-150 865,-150 865,-156 859,-162 853,-162"/>
<text text-anchor="middle" x="838" y="-141.5" font-family="sans" font-size="10.00">CoverM</text>
</g>
<!-- drep&#45;&gt;coverm -->
<g id="edge17" class="edge">
<title>drep&#45;&gt;coverm</title>
<path fill="none" stroke="grey" stroke-width="2" d="M766.65,-206.62C779.19,-195.46 795.35,-181.07 809.03,-168.9"/>
<polygon fill="grey" stroke="grey" stroke-width="2" points="811.6,-171.29 816.75,-162.03 806.95,-166.06 811.6,-171.29"/>
</g>
<!-- dram -->
<g id="node17" class="node">
<title>dram</title>
<path fill="none" stroke="#d85e56" stroke-width="2" stroke-dasharray="5,2" d="M853,-216C853,-216 823,-216 823,-216 817,-216 811,-210 811,-204 811,-204 811,-192 811,-192 811,-186 817,-180 823,-180 823,-180 853,-180 853,-180 859,-180 865,-186 865,-192 865,-192 865,-204 865,-204 865,-210 859,-216 853,-216"/>
<text text-anchor="middle" x="838" y="-195.5" font-family="sans" font-size="10.00">DRAM</text>
</g>
<!-- drep&#45;&gt;dram -->
<g id="edge18" class="edge">
<title>drep&#45;&gt;dram</title>
<path fill="none" stroke="grey" stroke-width="2" d="M772.32,-217.19C781.28,-214.53 791.46,-211.51 801.04,-208.67"/>
<polygon fill="grey" stroke="grey" stroke-width="2" points="802.15,-211.99 810.74,-205.79 800.16,-205.28 802.15,-211.99"/>
</g>
<!-- gtdbtk -->
<g id="node18" class="node">
<title>gtdbtk</title>
<path fill="none" stroke="#56d85b" stroke-width="2" stroke-dasharray="5,2" d="M856,-270C856,-270 820,-270 820,-270 814,-270 808,-264 808,-258 808,-258 808,-246 808,-246 808,-240 814,-234 820,-234 820,-234 856,-234 856,-234 862,-234 868,-240 868,-246 868,-246 868,-258 868,-258 868,-264 862,-270 856,-270"/>
<text text-anchor="middle" x="838" y="-249.5" font-family="sans" font-size="10.00">GTDB&#45;TK</text>
</g>
<!-- drep&#45;&gt;gtdbtk -->
<g id="edge19" class="edge">
<title>drep&#45;&gt;gtdbtk</title>
<path fill="none" stroke="grey" stroke-width="2" d="M772.32,-232.81C780.41,-235.21 789.48,-237.9 798.22,-240.49"/>
<polygon fill="grey" stroke="grey" stroke-width="2" points="797.28,-243.87 807.87,-243.36 799.28,-237.16 797.28,-243.87"/>
</g>
<!-- quast -->
<g id="node19" class="node">
<title>quast</title>
<path fill="none" stroke="#56d87b" stroke-width="2" stroke-dasharray="5,2" d="M853,-324C853,-324 823,-324 823,-324 817,-324 811,-318 811,-312 811,-312 811,-300 811,-300 811,-294 817,-288 823,-288 823,-288 853,-288 853,-288 859,-288 865,-294 865,-300 865,-300 865,-312 865,-312 865,-318 859,-324 853,-324"/>
<text text-anchor="middle" x="838" y="-303.5" font-family="sans" font-size="10.00">QUAST</text>
</g>
<!-- drep&#45;&gt;quast -->
<g id="edge20" class="edge">
<title>drep&#45;&gt;quast</title>
<path fill="none" stroke="grey" stroke-width="2" d="M766.65,-243.38C779.19,-254.54 795.35,-268.93 809.03,-281.1"/>
<polygon fill="grey" stroke="grey" stroke-width="2" points="806.95,-283.94 816.75,-287.97 811.6,-278.71 806.95,-283.94"/>
</g>
</g>
</svg>
