<?xml version="1.0" encoding="UTF-8" standalone="no"?>
<!DOCTYPE svg PUBLIC "-//W3C//DTD SVG 1.1//EN"
 "http://www.w3.org/Graphics/SVG/1.1/DTD/svg11.dtd">
<!-- Generated by graphviz version 2.43.0 (0)
 -->
<!-- Title: snakemake_dag Pages: 1 -->
<svg width="1101pt" height="553pt"
 viewBox="0.00 0.00 1101.00 553.00" xmlns="http://www.w3.org/2000/svg" xmlns:xlink="http://www.w3.org/1999/xlink">
<g id="graph0" class="graph" transform="scale(1 1) rotate(0) translate(4 549)">
<title>snakemake_dag</title>
<polygon fill="white" stroke="transparent" points="-4,4 -4,-549 1097,-549 1097,4 -4,4"/>
<g id="clust1" class="cluster">
<title>cluster_0</title>
<path fill="white" stroke="black" stroke-width="2" d="M20,-427C20,-427 172,-427 172,-427 178,-427 184,-433 184,-439 184,-439 184,-490 184,-490 184,-496 178,-502 172,-502 172,-502 20,-502 20,-502 14,-502 8,-496 8,-490 8,-490 8,-439 8,-439 8,-433 14,-427 20,-427"/>
<text text-anchor="middle" x="96" y="-490" font-family="sans" font-size="10.00">Input</text>
</g>
<g id="clust2" class="cluster">
<title>cluster_1</title>
<path fill="white" stroke="black" stroke-width="2" d="M116,-190C116,-190 370,-190 370,-190 376,-190 382,-196 382,-202 382,-202 382,-415 382,-415 382,-421 376,-427 370,-427 370,-427 116,-427 116,-427 110,-427 104,-421 104,-415 104,-415 104,-202 104,-202 104,-196 110,-190 116,-190"/>
<text text-anchor="middle" x="243" y="-415" font-family="sans" font-size="10.00">Preprocess</text>
</g>
<g id="clust4" class="cluster">
<title>cluster_2</title>
<path fill="white" stroke="black" stroke-width="2" d="M410,-352C410,-352 468,-352 468,-352 474,-352 480,-358 480,-364 480,-364 480,-415 480,-415 480,-421 474,-427 468,-427 468,-427 410,-427 410,-427 404,-427 398,-421 398,-415 398,-415 398,-364 398,-364 398,-358 404,-352 410,-352"/>
<text text-anchor="middle" x="439" y="-415" font-family="sans" font-size="10.00">Assemble</text>
</g>
<g id="clust5" class="cluster">
<title>cluster_3</title>
<path fill="white" stroke="black" stroke-width="2" d="M500,-315C500,-315 1072,-315 1072,-315 1078,-315 1084,-321 1084,-327 1084,-327 1084,-525 1084,-525 1084,-531 1078,-537 1072,-537 1072,-537 500,-537 500,-537 494,-537 488,-531 488,-525 488,-525 488,-327 488,-327 488,-321 494,-315 500,-315"/>
<text text-anchor="middle" x="786" y="-525" font-family="sans" font-size="10.00">Prokaryotes</text>
</g>
<g id="clust6" class="cluster">
<title>cluster_3_1</title>
<path fill="white" stroke="black" stroke-width="2" d="M510,-325C510,-325 671,-325 671,-325 677,-325 683,-331 683,-337 683,-337 683,-496 683,-496 683,-502 677,-508 671,-508 671,-508 510,-508 510,-508 504,-508 498,-502 498,-496 498,-496 498,-337 498,-337 498,-331 504,-325 510,-325"/>
<text text-anchor="middle" x="590.5" y="-496" font-family="sans" font-size="10.00">Cluster</text>
</g>
<g id="clust7" class="cluster">
<title>cluster_3_2</title>
<path fill="white" stroke="black" stroke-width="2" d="M914.5,-352C914.5,-352 1062,-352 1062,-352 1068,-352 1074,-358 1074,-364 1074,-364 1074,-415 1074,-415 1074,-421 1068,-427 1062,-427 1062,-427 914.5,-427 914.5,-427 908.5,-427 902.5,-421 902.5,-415 902.5,-415 902.5,-364 902.5,-364 902.5,-358 908.5,-352 914.5,-352"/>
<text text-anchor="middle" x="988.25" y="-415" font-family="sans" font-size="10.00">Quantify</text>
</g>
<g id="clust8" class="cluster">
<title>cluster_3_3</title>
<path fill="white" stroke="black" stroke-width="2" d="M711.5,-352C711.5,-352 865,-352 865,-352 871,-352 877,-358 877,-364 877,-364 877,-469 877,-469 877,-475 871,-481 865,-481 865,-481 711.5,-481 711.5,-481 705.5,-481 699.5,-475 699.5,-469 699.5,-469 699.5,-364 699.5,-364 699.5,-358 705.5,-352 711.5,-352"/>
<text text-anchor="middle" x="788.25" y="-469" font-family="sans" font-size="10.00">Annotate</text>
</g>
<g id="clust9" class="cluster">
<title>cluster_4</title>
<path fill="white" stroke="black" stroke-width="2" d="M501,-8C501,-8 1073,-8 1073,-8 1079,-8 1085,-14 1085,-20 1085,-20 1085,-303 1085,-303 1085,-309 1079,-315 1073,-315 1073,-315 501,-315 501,-315 495,-315 489,-309 489,-303 489,-303 489,-20 489,-20 489,-14 495,-8 501,-8"/>
<text text-anchor="middle" x="787" y="-303" font-family="sans" font-size="10.00">Viruses</text>
</g>
<g id="clust10" class="cluster">
<title>cluster_4_1</title>
<path fill="white" stroke="black" stroke-width="2" d="M511,-157C511,-157 770,-157 770,-157 776,-157 782,-163 782,-169 782,-169 782,-220 782,-220 782,-226 776,-232 770,-232 770,-232 511,-232 511,-232 505,-232 499,-226 499,-220 499,-220 499,-169 499,-169 499,-163 505,-157 511,-157"/>
<text text-anchor="middle" x="640.5" y="-220" font-family="sans" font-size="10.00">Cluster</text>
</g>
<g id="clust11" class="cluster">
<title>cluster_4_2</title>
<path fill="white" stroke="black" stroke-width="2" d="M814,-18C814,-18 965.5,-18 965.5,-18 971.5,-18 977.5,-24 977.5,-30 977.5,-30 977.5,-81 977.5,-81 977.5,-87 971.5,-93 965.5,-93 965.5,-93 814,-93 814,-93 808,-93 802,-87 802,-81 802,-81 802,-30 802,-30 802,-24 808,-18 814,-18"/>
<text text-anchor="middle" x="889.75" y="-81" font-family="sans" font-size="10.00">Quantify</text>
</g>
<g id="clust12" class="cluster">
<title>cluster_4_3</title>
<path fill="white" stroke="black" stroke-width="2" d="M810,-103C810,-103 1063,-103 1063,-103 1069,-103 1075,-109 1075,-115 1075,-115 1075,-274 1075,-274 1075,-280 1069,-286 1063,-286 1063,-286 810,-286 810,-286 804,-286 798,-280 798,-274 798,-274 798,-115 798,-115 798,-109 804,-103 810,-103"/>
<text text-anchor="middle" x="936.5" y="-274" font-family="sans" font-size="10.00">Annotate</text>
</g>
<!-- reference -->
<g id="node1" class="node">
<title>reference</title>
<path fill="none" stroke="#56d86b" stroke-width="2" d="M162,-473C162,-473 120,-473 120,-473 114,-473 108,-467 108,-461 108,-461 108,-449 108,-449 108,-443 114,-437 120,-437 120,-437 162,-437 162,-437 168,-437 174,-443 174,-449 174,-449 174,-461 174,-461 174,-467 168,-473 162,-473"/>
<text text-anchor="middle" x="141" y="-458" font-family="sans" font-size="10.00">Reference</text>
<text text-anchor="middle" x="141" y="-447" font-family="sans" font-size="10.00">Genome</text>
</g>
<!-- bowtie2 -->
<g id="node3" class="node">
<title>bowtie2</title>
<path fill="none" stroke="#566bd8" stroke-width="2" d="M258,-398C258,-398 226,-398 226,-398 220,-398 214,-392 214,-386 214,-386 214,-374 214,-374 214,-368 220,-362 226,-362 226,-362 258,-362 258,-362 264,-362 270,-368 270,-374 270,-374 270,-386 270,-386 270,-392 264,-398 258,-398"/>
<text text-anchor="middle" x="242" y="-383" font-family="sans" font-size="10.00">bowtie2</text>
<text text-anchor="middle" x="242" y="-372" font-family="sans" font-size="10.00">Host</text>
</g>
<!-- reference&#45;&gt;bowtie2 -->
<g id="edge18" class="edge">
<title>reference&#45;&gt;bowtie2</title>
<path fill="none" stroke="grey" stroke-width="2" d="M174.09,-437.61C177.5,-435.48 180.87,-433.26 184,-431 194.77,-423.24 205.83,-413.76 215.3,-405.08"/>
<polygon fill="grey" stroke="grey" stroke-width="2" points="217.92,-407.43 222.84,-398.05 213.14,-402.31 217.92,-407.43"/>
</g>
<!-- fastq -->
<g id="node2" class="node">
<title>fastq</title>
<path fill="none" stroke="#56d873" stroke-width="2" d="M60,-473C60,-473 30,-473 30,-473 24,-473 18,-467 18,-461 18,-461 18,-449 18,-449 18,-443 24,-437 30,-437 30,-437 60,-437 60,-437 66,-437 72,-443 72,-449 72,-449 72,-461 72,-461 72,-467 66,-473 60,-473"/>
<text text-anchor="middle" x="45" y="-458" font-family="sans" font-size="10.00">FASTQ</text>
<text text-anchor="middle" x="45" y="-447" font-family="sans" font-size="10.00">reads</text>
</g>
<!-- fastp -->
<g id="node5" class="node">
<title>fastp</title>
<path fill="none" stroke="#56d892" stroke-width="2" d="M156,-344C156,-344 126,-344 126,-344 120,-344 114,-338 114,-332 114,-332 114,-320 114,-320 114,-314 120,-308 126,-308 126,-308 156,-308 156,-308 162,-308 168,-314 168,-320 168,-320 168,-332 168,-332 168,-338 162,-344 156,-344"/>
<text text-anchor="middle" x="141" y="-323.5" font-family="sans" font-size="10.00">fastp</text>
</g>
<!-- fastq&#45;&gt;fastp -->
<g id="edge19" class="edge">
<title>fastq&#45;&gt;fastp</title>
<path fill="none" stroke="grey" stroke-width="2" d="M59.27,-436.79C75.29,-414.8 102.38,-377.63 120.71,-352.47"/>
<polygon fill="grey" stroke="grey" stroke-width="2" points="123.74,-354.26 126.8,-344.12 118.08,-350.14 123.74,-354.26"/>
</g>
<!-- extract -->
<g id="node4" class="node">
<title>extract</title>
<path fill="none" stroke="#56d8b9" stroke-width="2" d="M360,-398C360,-398 322,-398 322,-398 316,-398 310,-392 310,-386 310,-386 310,-374 310,-374 310,-368 316,-362 322,-362 322,-362 360,-362 360,-362 366,-362 372,-368 372,-374 372,-374 372,-386 372,-386 372,-392 366,-398 360,-398"/>
<text text-anchor="middle" x="341" y="-383" font-family="sans" font-size="10.00">Extract</text>
<text text-anchor="middle" x="341" y="-372" font-family="sans" font-size="10.00">Non&#45;Host</text>
</g>
<!-- bowtie2&#45;&gt;extract -->
<g id="edge5" class="edge">
<title>bowtie2&#45;&gt;extract</title>
<path fill="none" stroke="grey" stroke-width="2" d="M270.02,-373.88C279.17,-373.31 289.61,-373.13 299.57,-373.33"/>
<polygon fill="grey" stroke="grey" stroke-width="2" points="299.59,-376.84 309.71,-373.69 299.84,-369.84 299.59,-376.84"/>
</g>
<!-- extract&#45;&gt;bowtie2 -->
<g id="edge6" class="edge">
<title>extract&#45;&gt;bowtie2</title>
<path fill="none" stroke="grey" stroke-width="2" d="M309.71,-386.31C300.38,-386.78 290,-386.87 280.26,-386.59"/>
<polygon fill="grey" stroke="grey" stroke-width="2" points="280.17,-383.08 270.02,-386.12 279.85,-390.07 280.17,-383.08"/>
</g>
<!-- megahit -->
<g id="node9" class="node">
<title>megahit</title>
<path fill="none" stroke="#d8ac56" stroke-width="2" d="M458,-398C458,-398 420,-398 420,-398 414,-398 408,-392 408,-386 408,-386 408,-374 408,-374 408,-368 414,-362 420,-362 420,-362 458,-362 458,-362 464,-362 470,-368 470,-374 470,-374 470,-386 470,-386 470,-392 464,-398 458,-398"/>
<text text-anchor="middle" x="439" y="-377.5" font-family="sans" font-size="10.00">MEGAHIT</text>
</g>
<!-- extract&#45;&gt;megahit -->
<g id="edge20" class="edge">
<title>extract&#45;&gt;megahit</title>
<path fill="none" stroke="grey" stroke-width="2" d="M372.11,-380C380.24,-380 389.17,-380 397.76,-380"/>
<polygon fill="grey" stroke="grey" stroke-width="2" points="398,-383.5 408,-380 398,-376.5 398,-383.5"/>
</g>
<!-- fastp&#45;&gt;bowtie2 -->
<g id="edge1" class="edge">
<title>fastp&#45;&gt;bowtie2</title>
<path fill="none" stroke="grey" stroke-width="2" d="M168.01,-340.19C179.24,-346.31 192.57,-353.58 204.75,-360.23"/>
<polygon fill="grey" stroke="grey" stroke-width="2" points="203.33,-363.44 213.78,-365.15 206.68,-357.29 203.33,-363.44"/>
</g>
<!-- nonpareil -->
<g id="node6" class="node">
<title>nonpareil</title>
<path fill="none" stroke="#a7d856" stroke-width="2" d="M262,-236C262,-236 222,-236 222,-236 216,-236 210,-230 210,-224 210,-224 210,-212 210,-212 210,-206 216,-200 222,-200 222,-200 262,-200 262,-200 268,-200 274,-206 274,-212 274,-212 274,-224 274,-224 274,-230 268,-236 262,-236"/>
<text text-anchor="middle" x="242" y="-215.5" font-family="sans" font-size="10.00">Nonpareil</text>
</g>
<!-- fastp&#45;&gt;nonpareil -->
<g id="edge2" class="edge">
<title>fastp&#45;&gt;nonpareil</title>
<path fill="none" stroke="grey" stroke-width="2" d="M155.83,-307.93C169.07,-291.04 189.93,-265.44 210,-245 210.63,-244.35 211.28,-243.71 211.94,-243.06"/>
<polygon fill="grey" stroke="grey" stroke-width="2" points="214.37,-245.57 219.26,-236.17 209.58,-240.47 214.37,-245.57"/>
</g>
<!-- singlem -->
<g id="node7" class="node">
<title>singlem</title>
<path fill="none" stroke="#d8ac56" stroke-width="2" d="M258,-290C258,-290 226,-290 226,-290 220,-290 214,-284 214,-278 214,-278 214,-266 214,-266 214,-260 220,-254 226,-254 226,-254 258,-254 258,-254 264,-254 270,-260 270,-266 270,-266 270,-278 270,-278 270,-284 264,-290 258,-290"/>
<text text-anchor="middle" x="242" y="-269.5" font-family="sans" font-size="10.00">SingleM</text>
</g>
<!-- fastp&#45;&gt;singlem -->
<g id="edge3" class="edge">
<title>fastp&#45;&gt;singlem</title>
<path fill="none" stroke="grey" stroke-width="2" d="M168.01,-311.81C179.24,-305.69 192.57,-298.42 204.75,-291.77"/>
<polygon fill="grey" stroke="grey" stroke-width="2" points="206.68,-294.71 213.78,-286.85 203.33,-288.56 206.68,-294.71"/>
</g>
<!-- kraken2 -->
<g id="node8" class="node">
<title>kraken2</title>
<path fill="none" stroke="#61d856" stroke-width="2" d="M258,-344C258,-344 226,-344 226,-344 220,-344 214,-338 214,-332 214,-332 214,-320 214,-320 214,-314 220,-308 226,-308 226,-308 258,-308 258,-308 264,-308 270,-314 270,-320 270,-320 270,-332 270,-332 270,-338 264,-344 258,-344"/>
<text text-anchor="middle" x="242" y="-323.5" font-family="sans" font-size="10.00">kraken2</text>
</g>
<!-- fastp&#45;&gt;kraken2 -->
<g id="edge4" class="edge">
<title>fastp&#45;&gt;kraken2</title>
<path fill="none" stroke="grey" stroke-width="2" d="M168.01,-326C178.91,-326 191.79,-326 203.67,-326"/>
<polygon fill="grey" stroke="grey" stroke-width="2" points="203.78,-329.5 213.78,-326 203.78,-322.5 203.78,-329.5"/>
</g>
<!-- concoct -->
<g id="node10" class="node">
<title>concoct</title>
<path fill="none" stroke="#56d86b" stroke-width="2" d="M561.5,-479C561.5,-479 520.5,-479 520.5,-479 514.5,-479 508.5,-473 508.5,-467 508.5,-467 508.5,-455 508.5,-455 508.5,-449 514.5,-443 520.5,-443 520.5,-443 561.5,-443 561.5,-443 567.5,-443 573.5,-449 573.5,-455 573.5,-455 573.5,-467 573.5,-467 573.5,-473 567.5,-479 561.5,-479"/>
<text text-anchor="middle" x="541" y="-458.5" font-family="sans" font-size="10.00">CONCOCT</text>
</g>
<!-- megahit&#45;&gt;concoct -->
<g id="edge7" class="edge">
<title>megahit&#45;&gt;concoct</title>
<path fill="none" stroke="grey" stroke-width="2" d="M453.28,-398.07C462.21,-409.36 474.74,-423.67 488,-434 491.57,-436.78 495.48,-439.41 499.49,-441.86"/>
<polygon fill="grey" stroke="grey" stroke-width="2" points="497.93,-445 508.35,-446.92 501.4,-438.92 497.93,-445"/>
</g>
<!-- maxbin2 -->
<g id="node11" class="node">
<title>maxbin2</title>
<path fill="none" stroke="#56c9d8" stroke-width="2" d="M558.5,-425C558.5,-425 523.5,-425 523.5,-425 517.5,-425 511.5,-419 511.5,-413 511.5,-413 511.5,-401 511.5,-401 511.5,-395 517.5,-389 523.5,-389 523.5,-389 558.5,-389 558.5,-389 564.5,-389 570.5,-395 570.5,-401 570.5,-401 570.5,-413 570.5,-413 570.5,-419 564.5,-425 558.5,-425"/>
<text text-anchor="middle" x="541" y="-404.5" font-family="sans" font-size="10.00">MaxBin2</text>
</g>
<!-- megahit&#45;&gt;maxbin2 -->
<g id="edge8" class="edge">
<title>megahit&#45;&gt;maxbin2</title>
<path fill="none" stroke="grey" stroke-width="2" d="M470,-388.1C479.94,-390.78 491.15,-393.81 501.63,-396.64"/>
<polygon fill="grey" stroke="grey" stroke-width="2" points="500.82,-400.05 511.39,-399.28 502.65,-393.29 500.82,-400.05"/>
</g>
<!-- metabat2 -->
<g id="node12" class="node">
<title>metabat2</title>
<path fill="none" stroke="#d86656" stroke-width="2" d="M562,-371C562,-371 520,-371 520,-371 514,-371 508,-365 508,-359 508,-359 508,-347 508,-347 508,-341 514,-335 520,-335 520,-335 562,-335 562,-335 568,-335 574,-341 574,-347 574,-347 574,-359 574,-359 574,-365 568,-371 562,-371"/>
<text text-anchor="middle" x="541" y="-350.5" font-family="sans" font-size="10.00">MetaBAT2</text>
</g>
<!-- megahit&#45;&gt;metabat2 -->
<g id="edge9" class="edge">
<title>megahit&#45;&gt;metabat2</title>
<path fill="none" stroke="grey" stroke-width="2" d="M470,-371.9C478.88,-369.5 488.77,-366.83 498.26,-364.27"/>
<polygon fill="grey" stroke="grey" stroke-width="2" points="499.19,-367.64 507.93,-361.66 497.36,-360.89 499.19,-367.64"/>
</g>
<!-- genomad -->
<g id="node20" class="node">
<title>genomad</title>
<path fill="none" stroke="green" stroke-width="2" d="M561,-203C561,-203 521,-203 521,-203 515,-203 509,-197 509,-191 509,-191 509,-179 509,-179 509,-173 515,-167 521,-167 521,-167 561,-167 561,-167 567,-167 573,-173 573,-179 573,-179 573,-191 573,-191 573,-197 567,-203 561,-203"/>
<text text-anchor="middle" x="541" y="-182.5" font-family="sans" font-size="10.00">geNomad</text>
</g>
<!-- megahit&#45;&gt;genomad -->
<g id="edge24" class="edge">
<title>megahit&#45;&gt;genomad</title>
<path fill="none" stroke="grey" stroke-width="2" d="M449.41,-361.65C467.1,-327.16 505.39,-252.49 526.08,-212.15"/>
<polygon fill="grey" stroke="grey" stroke-width="2" points="529.24,-213.65 530.69,-203.15 523.01,-210.46 529.24,-213.65"/>
</g>
<!-- magscot -->
<g id="node13" class="node">
<title>magscot</title>
<path fill="none" stroke="#a7d856" stroke-width="2" d="M661,-425C661,-425 622,-425 622,-425 616,-425 610,-419 610,-413 610,-413 610,-401 610,-401 610,-395 616,-389 622,-389 622,-389 661,-389 661,-389 667,-389 673,-395 673,-401 673,-401 673,-413 673,-413 673,-419 667,-425 661,-425"/>
<text text-anchor="middle" x="641.5" y="-404.5" font-family="sans" font-size="10.00">MAGScoT</text>
</g>
<!-- concoct&#45;&gt;magscot -->
<g id="edge11" class="edge">
<title>concoct&#45;&gt;magscot</title>
<path fill="none" stroke="grey" stroke-width="2" d="M573.71,-443.62C582.4,-438.85 591.92,-433.63 600.99,-428.66"/>
<polygon fill="grey" stroke="grey" stroke-width="2" points="602.77,-431.67 609.86,-423.8 599.41,-425.54 602.77,-431.67"/>
</g>
<!-- maxbin2&#45;&gt;magscot -->
<g id="edge12" class="edge">
<title>maxbin2&#45;&gt;magscot</title>
<path fill="none" stroke="grey" stroke-width="2" d="M570.76,-407C579.76,-407 589.88,-407 599.56,-407"/>
<polygon fill="grey" stroke="grey" stroke-width="2" points="599.82,-410.5 609.82,-407 599.82,-403.5 599.82,-410.5"/>
</g>
<!-- metabat2&#45;&gt;magscot -->
<g id="edge10" class="edge">
<title>metabat2&#45;&gt;magscot</title>
<path fill="none" stroke="grey" stroke-width="2" d="M574.25,-370.68C582.75,-375.34 592.01,-380.42 600.85,-385.26"/>
<polygon fill="grey" stroke="grey" stroke-width="2" points="599.4,-388.46 609.85,-390.2 602.76,-382.32 599.4,-388.46"/>
</g>
<!-- gtdbtk -->
<g id="node16" class="node">
<title>gtdbtk</title>
<path fill="none" stroke="#56d85b" stroke-width="2" d="M758.5,-452C758.5,-452 722.5,-452 722.5,-452 716.5,-452 710.5,-446 710.5,-440 710.5,-440 710.5,-428 710.5,-428 710.5,-422 716.5,-416 722.5,-416 722.5,-416 758.5,-416 758.5,-416 764.5,-416 770.5,-422 770.5,-428 770.5,-428 770.5,-440 770.5,-440 770.5,-446 764.5,-452 758.5,-452"/>
<text text-anchor="middle" x="740.5" y="-431.5" font-family="sans" font-size="10.00">GTDB&#45;TK</text>
</g>
<!-- magscot&#45;&gt;gtdbtk -->
<g id="edge15" class="edge">
<title>magscot&#45;&gt;gtdbtk</title>
<path fill="none" stroke="grey" stroke-width="2" d="M673.19,-415.54C681.91,-417.97 691.53,-420.65 700.67,-423.19"/>
<polygon fill="grey" stroke="grey" stroke-width="2" points="699.76,-426.57 710.33,-425.88 701.64,-419.83 699.76,-426.57"/>
</g>
<!-- checkm2 -->
<g id="node18" class="node">
<title>checkm2</title>
<path fill="none" stroke="#66b76e" stroke-width="2" d="M759.5,-398C759.5,-398 721.5,-398 721.5,-398 715.5,-398 709.5,-392 709.5,-386 709.5,-386 709.5,-374 709.5,-374 709.5,-368 715.5,-362 721.5,-362 721.5,-362 759.5,-362 759.5,-362 765.5,-362 771.5,-368 771.5,-374 771.5,-374 771.5,-386 771.5,-386 771.5,-392 765.5,-398 759.5,-398"/>
<text text-anchor="middle" x="740.5" y="-377.5" font-family="sans" font-size="10.00">CheckM2</text>
</g>
<!-- magscot&#45;&gt;checkm2 -->
<g id="edge14" class="edge">
<title>magscot&#45;&gt;checkm2</title>
<path fill="none" stroke="grey" stroke-width="2" d="M673.19,-398.46C681.58,-396.12 690.79,-393.56 699.61,-391.1"/>
<polygon fill="grey" stroke="grey" stroke-width="2" points="700.65,-394.45 709.34,-388.39 698.77,-387.7 700.65,-394.45"/>
</g>
<!-- bowtie2_drep -->
<g id="node14" class="node">
<title>bowtie2_drep</title>
<path fill="none" stroke="#3c540b" stroke-width="2" d="M956.5,-398C956.5,-398 924.5,-398 924.5,-398 918.5,-398 912.5,-392 912.5,-386 912.5,-386 912.5,-374 912.5,-374 912.5,-368 918.5,-362 924.5,-362 924.5,-362 956.5,-362 956.5,-362 962.5,-362 968.5,-368 968.5,-374 968.5,-374 968.5,-386 968.5,-386 968.5,-392 962.5,-398 956.5,-398"/>
<text text-anchor="middle" x="940.5" y="-383" font-family="sans" font-size="10.00">bowtie2</text>
<text text-anchor="middle" x="940.5" y="-372" font-family="sans" font-size="10.00">MAGs</text>
</g>
<!-- coverm -->
<g id="node15" class="node">
<title>coverm</title>
<path fill="none" stroke="#56d8a9" stroke-width="2" d="M1052,-398C1052,-398 1022,-398 1022,-398 1016,-398 1010,-392 1010,-386 1010,-386 1010,-374 1010,-374 1010,-368 1016,-362 1022,-362 1022,-362 1052,-362 1052,-362 1058,-362 1064,-368 1064,-374 1064,-374 1064,-386 1064,-386 1064,-392 1058,-398 1052,-398"/>
<text text-anchor="middle" x="1037" y="-377.5" font-family="sans" font-size="10.00">CoverM</text>
</g>
<!-- bowtie2_drep&#45;&gt;coverm -->
<g id="edge13" class="edge">
<title>bowtie2_drep&#45;&gt;coverm</title>
<path fill="none" stroke="grey" stroke-width="2" d="M968.58,-380C978.32,-380 989.46,-380 999.84,-380"/>
<polygon fill="grey" stroke="grey" stroke-width="2" points="999.89,-383.5 1009.89,-380 999.89,-376.5 999.89,-383.5"/>
</g>
<!-- dram -->
<g id="node17" class="node">
<title>dram</title>
<path fill="none" stroke="#d85e56" stroke-width="2" d="M855,-452C855,-452 825,-452 825,-452 819,-452 813,-446 813,-440 813,-440 813,-428 813,-428 813,-422 819,-416 825,-416 825,-416 855,-416 855,-416 861,-416 867,-422 867,-428 867,-428 867,-440 867,-440 867,-446 861,-452 855,-452"/>
<text text-anchor="middle" x="840" y="-431.5" font-family="sans" font-size="10.00">DRAM</text>
</g>
<!-- gtdbtk&#45;&gt;dram -->
<g id="edge16" class="edge">
<title>gtdbtk&#45;&gt;dram</title>
<path fill="none" stroke="grey" stroke-width="2" d="M770.75,-434C780.77,-434 792.09,-434 802.6,-434"/>
<polygon fill="grey" stroke="grey" stroke-width="2" points="802.75,-437.5 812.75,-434 802.75,-430.5 802.75,-437.5"/>
</g>
<!-- drep -->
<g id="node19" class="node">
<title>drep</title>
<path fill="none" stroke="#61d856" stroke-width="2" d="M855,-398C855,-398 825,-398 825,-398 819,-398 813,-392 813,-386 813,-386 813,-374 813,-374 813,-368 819,-362 825,-362 825,-362 855,-362 855,-362 861,-362 867,-368 867,-374 867,-374 867,-386 867,-386 867,-392 861,-398 855,-398"/>
<text text-anchor="middle" x="840" y="-377.5" font-family="sans" font-size="10.00">dRep</text>
</g>
<!-- checkm2&#45;&gt;drep -->
<g id="edge17" class="edge">
<title>checkm2&#45;&gt;drep</title>
<path fill="none" stroke="grey" stroke-width="2" d="M771.55,-380C781.35,-380 792.34,-380 802.56,-380"/>
<polygon fill="grey" stroke="grey" stroke-width="2" points="802.84,-383.5 812.84,-380 802.84,-376.5 802.84,-383.5"/>
</g>
<!-- drep&#45;&gt;bowtie2_drep -->
<g id="edge21" class="edge">
<title>drep&#45;&gt;bowtie2_drep</title>
<path fill="none" stroke="grey" stroke-width="2" d="M867.14,-380C877.78,-380 890.3,-380 901.89,-380"/>
<polygon fill="grey" stroke="grey" stroke-width="2" points="902.21,-383.5 912.21,-380 902.21,-376.5 902.21,-383.5"/>
</g>
<!-- dedupe -->
<g id="node21" class="node">
<title>dedupe</title>
<path fill="none" stroke="green" stroke-width="2" d="M656.5,-203C656.5,-203 626.5,-203 626.5,-203 620.5,-203 614.5,-197 614.5,-191 614.5,-191 614.5,-179 614.5,-179 614.5,-173 620.5,-167 626.5,-167 626.5,-167 656.5,-167 656.5,-167 662.5,-167 668.5,-173 668.5,-179 668.5,-179 668.5,-191 668.5,-191 668.5,-197 662.5,-203 656.5,-203"/>
<text text-anchor="middle" x="641.5" y="-182.5" font-family="sans" font-size="10.00">Dedupe</text>
</g>
<!-- genomad&#45;&gt;dedupe -->
<g id="edge22" class="edge">
<title>genomad&#45;&gt;dedupe</title>
<path fill="none" stroke="grey" stroke-width="2" d="M573.17,-185C583.04,-185 594.04,-185 604.23,-185"/>
<polygon fill="grey" stroke="grey" stroke-width="2" points="604.49,-188.5 614.49,-185 604.49,-181.5 604.49,-188.5"/>
</g>
<!-- mmseqs2 -->
<g id="node22" class="node">
<title>mmseqs2</title>
<path fill="none" stroke="red" stroke-width="2" d="M760,-203C760,-203 721,-203 721,-203 715,-203 709,-197 709,-191 709,-191 709,-179 709,-179 709,-173 715,-167 721,-167 721,-167 760,-167 760,-167 766,-167 772,-173 772,-179 772,-179 772,-191 772,-191 772,-197 766,-203 760,-203"/>
<text text-anchor="middle" x="740.5" y="-182.5" font-family="sans" font-size="10.00">MMseqs2</text>
</g>
<!-- dedupe&#45;&gt;mmseqs2 -->
<g id="edge23" class="edge">
<title>dedupe&#45;&gt;mmseqs2</title>
<path fill="none" stroke="grey" stroke-width="2" d="M668.75,-185C677.91,-185 688.42,-185 698.5,-185"/>
<polygon fill="grey" stroke="grey" stroke-width="2" points="698.76,-188.5 708.76,-185 698.76,-181.5 698.76,-188.5"/>
</g>
<!-- bowtie2v -->
<g id="node23" class="node">
<title>bowtie2v</title>
<path fill="none" stroke="#3c540b" stroke-width="2" d="M856,-64C856,-64 824,-64 824,-64 818,-64 812,-58 812,-52 812,-52 812,-40 812,-40 812,-34 818,-28 824,-28 824,-28 856,-28 856,-28 862,-28 868,-34 868,-40 868,-40 868,-52 868,-52 868,-58 862,-64 856,-64"/>
<text text-anchor="middle" x="840" y="-49" font-family="sans" font-size="10.00">bowtie2</text>
<text text-anchor="middle" x="840" y="-38" font-family="sans" font-size="10.00">vOTUs</text>
</g>
<!-- mmseqs2&#45;&gt;bowtie2v -->
<g id="edge26" class="edge">
<title>mmseqs2&#45;&gt;bowtie2v</title>
<path fill="none" stroke="grey" stroke-width="2" d="M752.79,-166.94C763.92,-149.35 781.6,-121.97 798,-99 804.28,-90.19 811.41,-80.79 817.95,-72.39"/>
<polygon fill="grey" stroke="grey" stroke-width="2" points="820.81,-74.41 824.22,-64.38 815.3,-70.09 820.81,-74.41"/>
</g>
<!-- genomad2 -->
<g id="node25" class="node">
<title>genomad2</title>
<path fill="none" stroke="green" stroke-width="2" d="M860,-257C860,-257 820,-257 820,-257 814,-257 808,-251 808,-245 808,-245 808,-233 808,-233 808,-227 814,-221 820,-221 820,-221 860,-221 860,-221 866,-221 872,-227 872,-233 872,-233 872,-245 872,-245 872,-251 866,-257 860,-257"/>
<text text-anchor="middle" x="840" y="-236.5" font-family="sans" font-size="10.00">geNomad</text>
</g>
<!-- mmseqs2&#45;&gt;genomad2 -->
<g id="edge30" class="edge">
<title>mmseqs2&#45;&gt;genomad2</title>
<path fill="none" stroke="grey" stroke-width="2" d="M772.08,-201.94C780.63,-206.67 790.04,-211.88 799.04,-216.87"/>
<polygon fill="grey" stroke="grey" stroke-width="2" points="797.41,-219.97 807.86,-221.75 800.8,-213.84 797.41,-219.97"/>
</g>
<!-- quastv -->
<g id="node28" class="node">
<title>quastv</title>
<path fill="none" stroke="#2a1938" stroke-width="2" d="M855,-203C855,-203 825,-203 825,-203 819,-203 813,-197 813,-191 813,-191 813,-179 813,-179 813,-173 819,-167 825,-167 825,-167 855,-167 855,-167 861,-167 867,-173 867,-179 867,-179 867,-191 867,-191 867,-197 861,-203 855,-203"/>
<text text-anchor="middle" x="840" y="-182.5" font-family="sans" font-size="10.00">QUAST</text>
</g>
<!-- mmseqs2&#45;&gt;quastv -->
<g id="edge31" class="edge">
<title>mmseqs2&#45;&gt;quastv</title>
<path fill="none" stroke="grey" stroke-width="2" d="M772.08,-185C781.78,-185 792.6,-185 802.66,-185"/>
<polygon fill="grey" stroke="grey" stroke-width="2" points="802.8,-188.5 812.8,-185 802.8,-181.5 802.8,-188.5"/>
</g>
<!-- checkv -->
<g id="node29" class="node">
<title>checkv</title>
<path fill="none" stroke="#2a1938" stroke-width="2" d="M855,-149C855,-149 825,-149 825,-149 819,-149 813,-143 813,-137 813,-137 813,-125 813,-125 813,-119 819,-113 825,-113 825,-113 855,-113 855,-113 861,-113 867,-119 867,-125 867,-125 867,-137 867,-137 867,-143 861,-149 855,-149"/>
<text text-anchor="middle" x="840" y="-128.5" font-family="sans" font-size="10.00">CheckV</text>
</g>
<!-- mmseqs2&#45;&gt;checkv -->
<g id="edge29" class="edge">
<title>mmseqs2&#45;&gt;checkv</title>
<path fill="none" stroke="grey" stroke-width="2" d="M772.08,-168.06C782.19,-162.46 793.51,-156.19 803.93,-150.42"/>
<polygon fill="grey" stroke="grey" stroke-width="2" points="805.74,-153.42 812.8,-145.51 802.35,-147.3 805.74,-153.42"/>
</g>
<!-- covermv -->
<g id="node24" class="node">
<title>covermv</title>
<path fill="none" stroke="#56d8a9" stroke-width="2" d="M955.5,-64C955.5,-64 925.5,-64 925.5,-64 919.5,-64 913.5,-58 913.5,-52 913.5,-52 913.5,-40 913.5,-40 913.5,-34 919.5,-28 925.5,-28 925.5,-28 955.5,-28 955.5,-28 961.5,-28 967.5,-34 967.5,-40 967.5,-40 967.5,-52 967.5,-52 967.5,-58 961.5,-64 955.5,-64"/>
<text text-anchor="middle" x="940.5" y="-43.5" font-family="sans" font-size="10.00">CoverM</text>
</g>
<!-- bowtie2v&#45;&gt;covermv -->
<g id="edge25" class="edge">
<title>bowtie2v&#45;&gt;covermv</title>
<path fill="none" stroke="grey" stroke-width="2" d="M868.18,-46C878.99,-46 891.59,-46 903.17,-46"/>
<polygon fill="grey" stroke="grey" stroke-width="2" points="903.43,-49.5 913.43,-46 903.43,-42.5 903.43,-49.5"/>
</g>
<!-- virsorter2 -->
<g id="node26" class="node">
<title>virsorter2</title>
<path fill="none" stroke="green" stroke-width="2" d="M961,-257C961,-257 920,-257 920,-257 914,-257 908,-251 908,-245 908,-245 908,-233 908,-233 908,-227 914,-221 920,-221 920,-221 961,-221 961,-221 967,-221 973,-227 973,-233 973,-233 973,-245 973,-245 973,-251 967,-257 961,-257"/>
<text text-anchor="middle" x="940.5" y="-236.5" font-family="sans" font-size="10.00">VirSorter2</text>
</g>
<!-- genomad2&#45;&gt;virsorter2 -->
<g id="edge27" class="edge">
<title>genomad2&#45;&gt;virsorter2</title>
<path fill="none" stroke="grey" stroke-width="2" d="M872.17,-239C880.26,-239 889.11,-239 897.66,-239"/>
<polygon fill="grey" stroke="grey" stroke-width="2" points="897.86,-242.5 907.86,-239 897.86,-235.5 897.86,-242.5"/>
</g>
<!-- dramv -->
<g id="node27" class="node">
<title>dramv</title>
<path fill="none" stroke="green" stroke-width="2" d="M1053,-257C1053,-257 1021,-257 1021,-257 1015,-257 1009,-251 1009,-245 1009,-245 1009,-233 1009,-233 1009,-227 1015,-221 1021,-221 1021,-221 1053,-221 1053,-221 1059,-221 1065,-227 1065,-233 1065,-233 1065,-245 1065,-245 1065,-251 1059,-257 1053,-257"/>
<text text-anchor="middle" x="1037" y="-236.5" font-family="sans" font-size="10.00">DRAM&#45;V</text>
</g>
<!-- virsorter2&#45;&gt;dramv -->
<g id="edge28" class="edge">
<title>virsorter2&#45;&gt;dramv</title>
<path fill="none" stroke="grey" stroke-width="2" d="M973.23,-239C981.46,-239 990.41,-239 998.89,-239"/>
<polygon fill="grey" stroke="grey" stroke-width="2" points="998.93,-242.5 1008.93,-239 998.93,-235.5 998.93,-242.5"/>
</g>
</g>
</svg>
