<?xml version="1.0" encoding="UTF-8" standalone="no"?>
<!DOCTYPE svg PUBLIC "-//W3C//DTD SVG 1.1//EN"
 "http://www.w3.org/Graphics/SVG/1.1/DTD/svg11.dtd">
<!-- Generated by graphviz version 2.43.0 (0)
 -->
<!-- Title: snakemake_dag Pages: 1 -->
<svg width="1101pt" height="638pt"
 viewBox="0.00 0.00 1101.00 638.00" xmlns="http://www.w3.org/2000/svg" xmlns:xlink="http://www.w3.org/1999/xlink">
<g id="graph0" class="graph" transform="scale(1 1) rotate(0) translate(4 634)">
<title>snakemake_dag</title>
<polygon fill="white" stroke="transparent" points="-4,4 -4,-634 1097,-634 1097,4 -4,4"/>
<g id="clust1" class="cluster">
<title>cluster_0</title>
<path fill="white" stroke="black" stroke-width="2" d="M20,-435C20,-435 172,-435 172,-435 178,-435 184,-441 184,-447 184,-447 184,-498 184,-498 184,-504 178,-510 172,-510 172,-510 20,-510 20,-510 14,-510 8,-504 8,-498 8,-498 8,-447 8,-447 8,-441 14,-435 20,-435"/>
<text text-anchor="middle" x="96" y="-498" font-family="sans" font-size="10.00">Input</text>
</g>
<g id="clust2" class="cluster">
<title>cluster_1</title>
<path fill="white" stroke="black" stroke-width="2" d="M116,-198C116,-198 370,-198 370,-198 376,-198 382,-204 382,-210 382,-210 382,-423 382,-423 382,-429 376,-435 370,-435 370,-435 116,-435 116,-435 110,-435 104,-429 104,-423 104,-423 104,-210 104,-210 104,-204 110,-198 116,-198"/>
<text text-anchor="middle" x="243" y="-423" font-family="sans" font-size="10.00">Preprocess</text>
</g>
<g id="clust4" class="cluster">
<title>cluster_2</title>
<path fill="white" stroke="black" stroke-width="2" d="M410,-360C410,-360 468,-360 468,-360 474,-360 480,-366 480,-372 480,-372 480,-423 480,-423 480,-429 474,-435 468,-435 468,-435 410,-435 410,-435 404,-435 398,-429 398,-423 398,-423 398,-372 398,-372 398,-366 404,-360 410,-360"/>
<text text-anchor="middle" x="439" y="-423" font-family="sans" font-size="10.00">Assemble</text>
</g>
<g id="clust5" class="cluster">
<title>cluster_3</title>
<path fill="white" stroke="black" stroke-width="2" d="M500,-315C500,-315 975.5,-315 975.5,-315 981.5,-315 987.5,-321 987.5,-327 987.5,-327 987.5,-610 987.5,-610 987.5,-616 981.5,-622 975.5,-622 975.5,-622 500,-622 500,-622 494,-622 488,-616 488,-610 488,-610 488,-327 488,-327 488,-321 494,-315 500,-315"/>
<text text-anchor="middle" x="737.75" y="-610" font-family="sans" font-size="10.00">Prokaryotes</text>
</g>
<g id="clust6" class="cluster">
<title>cluster_3_1</title>
<path fill="white" stroke="black" stroke-width="2" d="M510,-333C510,-333 765.5,-333 765.5,-333 771.5,-333 777.5,-339 777.5,-345 777.5,-345 777.5,-504 777.5,-504 777.5,-510 771.5,-516 765.5,-516 765.5,-516 510,-516 510,-516 504,-516 498,-510 498,-504 498,-504 498,-345 498,-345 498,-339 504,-333 510,-333"/>
<text text-anchor="middle" x="637.75" y="-504" font-family="sans" font-size="10.00">Cluster</text>
</g>
<g id="clust7" class="cluster">
<title>cluster_3_2</title>
<path fill="white" stroke="black" stroke-width="2" d="M814,-325C814,-325 965.5,-325 965.5,-325 971.5,-325 977.5,-331 977.5,-337 977.5,-337 977.5,-388 977.5,-388 977.5,-394 971.5,-400 965.5,-400 965.5,-400 814,-400 814,-400 808,-400 802,-394 802,-388 802,-388 802,-337 802,-337 802,-331 808,-325 814,-325"/>
<text text-anchor="middle" x="889.75" y="-388" font-family="sans" font-size="10.00">Quantify</text>
</g>
<g id="clust8" class="cluster">
<title>cluster_3_3</title>
<path fill="white" stroke="black" stroke-width="2" d="M811,-410C811,-410 965.5,-410 965.5,-410 971.5,-410 977.5,-416 977.5,-422 977.5,-422 977.5,-581 977.5,-581 977.5,-587 971.5,-593 965.5,-593 965.5,-593 811,-593 811,-593 805,-593 799,-587 799,-581 799,-581 799,-422 799,-422 799,-416 805,-410 811,-410"/>
<text text-anchor="middle" x="888.25" y="-581" font-family="sans" font-size="10.00">Annotate</text>
</g>
<g id="clust9" class="cluster">
<title>cluster_4</title>
<path fill="white" stroke="black" stroke-width="2" d="M501,-8C501,-8 1073,-8 1073,-8 1079,-8 1085,-14 1085,-20 1085,-20 1085,-303 1085,-303 1085,-309 1079,-315 1073,-315 1073,-315 501,-315 501,-315 495,-315 489,-309 489,-303 489,-303 489,-20 489,-20 489,-14 495,-8 501,-8"/>
<text text-anchor="middle" x="787" y="-303" font-family="sans" font-size="10.00">Viruses</text>
</g>
<g id="clust10" class="cluster">
<title>cluster_4_1</title>
<path fill="white" stroke="black" stroke-width="2" d="M511,-157C511,-157 770,-157 770,-157 776,-157 782,-163 782,-169 782,-169 782,-220 782,-220 782,-226 776,-232 770,-232 770,-232 511,-232 511,-232 505,-232 499,-226 499,-220 499,-220 499,-169 499,-169 499,-163 505,-157 511,-157"/>
<text text-anchor="middle" x="640.5" y="-220" font-family="sans" font-size="10.00">Cluster</text>
</g>
<g id="clust11" class="cluster">
<title>cluster_4_2</title>
<path fill="white" stroke="black" stroke-width="2" d="M814,-18C814,-18 965.5,-18 965.5,-18 971.5,-18 977.5,-24 977.5,-30 977.5,-30 977.5,-81 977.5,-81 977.5,-87 971.5,-93 965.5,-93 965.5,-93 814,-93 814,-93 808,-93 802,-87 802,-81 802,-81 802,-30 802,-30 802,-24 808,-18 814,-18"/>
<text text-anchor="middle" x="889.75" y="-81" font-family="sans" font-size="10.00">Quantify</text>
</g>
<g id="clust12" class="cluster">
<title>cluster_4_3</title>
<path fill="white" stroke="black" stroke-width="2" d="M810,-103C810,-103 1063,-103 1063,-103 1069,-103 1075,-109 1075,-115 1075,-115 1075,-274 1075,-274 1075,-280 1069,-286 1063,-286 1063,-286 810,-286 810,-286 804,-286 798,-280 798,-274 798,-274 798,-115 798,-115 798,-109 804,-103 810,-103"/>
<text text-anchor="middle" x="936.5" y="-274" font-family="sans" font-size="10.00">Annotate</text>
</g>
<!-- reference -->
<g id="node1" class="node">
<title>reference</title>
<path fill="none" stroke="#56d86b" stroke-width="2" d="M162,-481C162,-481 120,-481 120,-481 114,-481 108,-475 108,-469 108,-469 108,-457 108,-457 108,-451 114,-445 120,-445 120,-445 162,-445 162,-445 168,-445 174,-451 174,-457 174,-457 174,-469 174,-469 174,-475 168,-481 162,-481"/>
<text text-anchor="middle" x="141" y="-466" font-family="sans" font-size="10.00">Reference</text>
<text text-anchor="middle" x="141" y="-455" font-family="sans" font-size="10.00">Genome</text>
</g>
<!-- bowtie2 -->
<g id="node3" class="node">
<title>bowtie2</title>
<path fill="none" stroke="#566bd8" stroke-width="2" d="M258,-406C258,-406 226,-406 226,-406 220,-406 214,-400 214,-394 214,-394 214,-382 214,-382 214,-376 220,-370 226,-370 226,-370 258,-370 258,-370 264,-370 270,-376 270,-382 270,-382 270,-394 270,-394 270,-400 264,-406 258,-406"/>
<text text-anchor="middle" x="242" y="-391" font-family="sans" font-size="10.00">bowtie2</text>
<text text-anchor="middle" x="242" y="-380" font-family="sans" font-size="10.00">Host</text>
</g>
<!-- reference&#45;&gt;bowtie2 -->
<g id="edge16" class="edge">
<title>reference&#45;&gt;bowtie2</title>
<path fill="none" stroke="grey" stroke-width="2" d="M174.09,-445.61C177.5,-443.48 180.87,-441.26 184,-439 194.77,-431.24 205.83,-421.76 215.3,-413.08"/>
<polygon fill="grey" stroke="grey" stroke-width="2" points="217.92,-415.43 222.84,-406.05 213.14,-410.31 217.92,-415.43"/>
</g>
<!-- fastq -->
<g id="node2" class="node">
<title>fastq</title>
<path fill="none" stroke="#56d873" stroke-width="2" d="M60,-481C60,-481 30,-481 30,-481 24,-481 18,-475 18,-469 18,-469 18,-457 18,-457 18,-451 24,-445 30,-445 30,-445 60,-445 60,-445 66,-445 72,-451 72,-457 72,-457 72,-469 72,-469 72,-475 66,-481 60,-481"/>
<text text-anchor="middle" x="45" y="-466" font-family="sans" font-size="10.00">FASTQ</text>
<text text-anchor="middle" x="45" y="-455" font-family="sans" font-size="10.00">reads</text>
</g>
<!-- fastp -->
<g id="node5" class="node">
<title>fastp</title>
<path fill="none" stroke="#56d892" stroke-width="2" d="M156,-352C156,-352 126,-352 126,-352 120,-352 114,-346 114,-340 114,-340 114,-328 114,-328 114,-322 120,-316 126,-316 126,-316 156,-316 156,-316 162,-316 168,-322 168,-328 168,-328 168,-340 168,-340 168,-346 162,-352 156,-352"/>
<text text-anchor="middle" x="141" y="-331.5" font-family="sans" font-size="10.00">fastp</text>
</g>
<!-- fastq&#45;&gt;fastp -->
<g id="edge17" class="edge">
<title>fastq&#45;&gt;fastp</title>
<path fill="none" stroke="grey" stroke-width="2" d="M59.27,-444.79C75.29,-422.8 102.38,-385.63 120.71,-360.47"/>
<polygon fill="grey" stroke="grey" stroke-width="2" points="123.74,-362.26 126.8,-352.12 118.08,-358.14 123.74,-362.26"/>
</g>
<!-- extract -->
<g id="node4" class="node">
<title>extract</title>
<path fill="none" stroke="#56d8b9" stroke-width="2" d="M360,-406C360,-406 322,-406 322,-406 316,-406 310,-400 310,-394 310,-394 310,-382 310,-382 310,-376 316,-370 322,-370 322,-370 360,-370 360,-370 366,-370 372,-376 372,-382 372,-382 372,-394 372,-394 372,-400 366,-406 360,-406"/>
<text text-anchor="middle" x="341" y="-391" font-family="sans" font-size="10.00">Extract</text>
<text text-anchor="middle" x="341" y="-380" font-family="sans" font-size="10.00">Non&#45;Host</text>
</g>
<!-- bowtie2&#45;&gt;extract -->
<g id="edge5" class="edge">
<title>bowtie2&#45;&gt;extract</title>
<path fill="none" stroke="grey" stroke-width="2" d="M270.02,-381.88C279.17,-381.31 289.61,-381.13 299.57,-381.33"/>
<polygon fill="grey" stroke="grey" stroke-width="2" points="299.59,-384.84 309.71,-381.69 299.84,-377.84 299.59,-384.84"/>
</g>
<!-- extract&#45;&gt;bowtie2 -->
<g id="edge6" class="edge">
<title>extract&#45;&gt;bowtie2</title>
<path fill="none" stroke="grey" stroke-width="2" d="M309.71,-394.31C300.38,-394.78 290,-394.87 280.26,-394.59"/>
<polygon fill="grey" stroke="grey" stroke-width="2" points="280.17,-391.08 270.02,-394.12 279.85,-398.07 280.17,-391.08"/>
</g>
<!-- megahit -->
<g id="node9" class="node">
<title>megahit</title>
<path fill="none" stroke="#d8ac56" stroke-width="2" d="M458,-406C458,-406 420,-406 420,-406 414,-406 408,-400 408,-394 408,-394 408,-382 408,-382 408,-376 414,-370 420,-370 420,-370 458,-370 458,-370 464,-370 470,-376 470,-382 470,-382 470,-394 470,-394 470,-400 464,-406 458,-406"/>
<text text-anchor="middle" x="439" y="-385.5" font-family="sans" font-size="10.00">MEGAHIT</text>
</g>
<!-- extract&#45;&gt;megahit -->
<g id="edge18" class="edge">
<title>extract&#45;&gt;megahit</title>
<path fill="none" stroke="grey" stroke-width="2" d="M372.11,-388C380.24,-388 389.17,-388 397.76,-388"/>
<polygon fill="grey" stroke="grey" stroke-width="2" points="398,-391.5 408,-388 398,-384.5 398,-391.5"/>
</g>
<!-- fastp&#45;&gt;bowtie2 -->
<g id="edge1" class="edge">
<title>fastp&#45;&gt;bowtie2</title>
<path fill="none" stroke="grey" stroke-width="2" d="M168.01,-348.19C179.24,-354.31 192.57,-361.58 204.75,-368.23"/>
<polygon fill="grey" stroke="grey" stroke-width="2" points="203.33,-371.44 213.78,-373.15 206.68,-365.29 203.33,-371.44"/>
</g>
<!-- nonpareil -->
<g id="node6" class="node">
<title>nonpareil</title>
<path fill="none" stroke="#a7d856" stroke-width="2" d="M262,-244C262,-244 222,-244 222,-244 216,-244 210,-238 210,-232 210,-232 210,-220 210,-220 210,-214 216,-208 222,-208 222,-208 262,-208 262,-208 268,-208 274,-214 274,-220 274,-220 274,-232 274,-232 274,-238 268,-244 262,-244"/>
<text text-anchor="middle" x="242" y="-223.5" font-family="sans" font-size="10.00">Nonpareil</text>
</g>
<!-- fastp&#45;&gt;nonpareil -->
<g id="edge2" class="edge">
<title>fastp&#45;&gt;nonpareil</title>
<path fill="none" stroke="grey" stroke-width="2" d="M155.83,-315.93C169.07,-299.04 189.93,-273.44 210,-253 210.63,-252.35 211.28,-251.71 211.94,-251.06"/>
<polygon fill="grey" stroke="grey" stroke-width="2" points="214.37,-253.57 219.26,-244.17 209.58,-248.47 214.37,-253.57"/>
</g>
<!-- singlem -->
<g id="node7" class="node">
<title>singlem</title>
<path fill="none" stroke="#d8ac56" stroke-width="2" d="M258,-298C258,-298 226,-298 226,-298 220,-298 214,-292 214,-286 214,-286 214,-274 214,-274 214,-268 220,-262 226,-262 226,-262 258,-262 258,-262 264,-262 270,-268 270,-274 270,-274 270,-286 270,-286 270,-292 264,-298 258,-298"/>
<text text-anchor="middle" x="242" y="-277.5" font-family="sans" font-size="10.00">SingleM</text>
</g>
<!-- fastp&#45;&gt;singlem -->
<g id="edge3" class="edge">
<title>fastp&#45;&gt;singlem</title>
<path fill="none" stroke="grey" stroke-width="2" d="M168.01,-319.81C179.24,-313.69 192.57,-306.42 204.75,-299.77"/>
<polygon fill="grey" stroke="grey" stroke-width="2" points="206.68,-302.71 213.78,-294.85 203.33,-296.56 206.68,-302.71"/>
</g>
<!-- kraken2 -->
<g id="node8" class="node">
<title>kraken2</title>
<path fill="none" stroke="#61d856" stroke-width="2" d="M258,-352C258,-352 226,-352 226,-352 220,-352 214,-346 214,-340 214,-340 214,-328 214,-328 214,-322 220,-316 226,-316 226,-316 258,-316 258,-316 264,-316 270,-322 270,-328 270,-328 270,-340 270,-340 270,-346 264,-352 258,-352"/>
<text text-anchor="middle" x="242" y="-331.5" font-family="sans" font-size="10.00">kraken2</text>
</g>
<!-- fastp&#45;&gt;kraken2 -->
<g id="edge4" class="edge">
<title>fastp&#45;&gt;kraken2</title>
<path fill="none" stroke="grey" stroke-width="2" d="M168.01,-334C178.91,-334 191.79,-334 203.67,-334"/>
<polygon fill="grey" stroke="grey" stroke-width="2" points="203.78,-337.5 213.78,-334 203.78,-330.5 203.78,-337.5"/>
</g>
<!-- concoct -->
<g id="node10" class="node">
<title>concoct</title>
<path fill="none" stroke="#56d86b" stroke-width="2" d="M561.5,-487C561.5,-487 520.5,-487 520.5,-487 514.5,-487 508.5,-481 508.5,-475 508.5,-475 508.5,-463 508.5,-463 508.5,-457 514.5,-451 520.5,-451 520.5,-451 561.5,-451 561.5,-451 567.5,-451 573.5,-457 573.5,-463 573.5,-463 573.5,-475 573.5,-475 573.5,-481 567.5,-487 561.5,-487"/>
<text text-anchor="middle" x="541" y="-466.5" font-family="sans" font-size="10.00">CONCOCT</text>
</g>
<!-- megahit&#45;&gt;concoct -->
<g id="edge7" class="edge">
<title>megahit&#45;&gt;concoct</title>
<path fill="none" stroke="grey" stroke-width="2" d="M453.28,-406.07C462.21,-417.36 474.74,-431.67 488,-442 491.57,-444.78 495.48,-447.41 499.49,-449.86"/>
<polygon fill="grey" stroke="grey" stroke-width="2" points="497.93,-453 508.35,-454.92 501.4,-446.92 497.93,-453"/>
</g>
<!-- maxbin2 -->
<g id="node11" class="node">
<title>maxbin2</title>
<path fill="none" stroke="#56c9d8" stroke-width="2" d="M558.5,-433C558.5,-433 523.5,-433 523.5,-433 517.5,-433 511.5,-427 511.5,-421 511.5,-421 511.5,-409 511.5,-409 511.5,-403 517.5,-397 523.5,-397 523.5,-397 558.5,-397 558.5,-397 564.5,-397 570.5,-403 570.5,-409 570.5,-409 570.5,-421 570.5,-421 570.5,-427 564.5,-433 558.5,-433"/>
<text text-anchor="middle" x="541" y="-412.5" font-family="sans" font-size="10.00">MaxBin2</text>
</g>
<!-- megahit&#45;&gt;maxbin2 -->
<g id="edge8" class="edge">
<title>megahit&#45;&gt;maxbin2</title>
<path fill="none" stroke="grey" stroke-width="2" d="M470,-396.1C479.94,-398.78 491.15,-401.81 501.63,-404.64"/>
<polygon fill="grey" stroke="grey" stroke-width="2" points="500.82,-408.05 511.39,-407.28 502.65,-401.29 500.82,-408.05"/>
</g>
<!-- metabat2 -->
<g id="node12" class="node">
<title>metabat2</title>
<path fill="none" stroke="#d86656" stroke-width="2" d="M562,-379C562,-379 520,-379 520,-379 514,-379 508,-373 508,-367 508,-367 508,-355 508,-355 508,-349 514,-343 520,-343 520,-343 562,-343 562,-343 568,-343 574,-349 574,-355 574,-355 574,-367 574,-367 574,-373 568,-379 562,-379"/>
<text text-anchor="middle" x="541" y="-358.5" font-family="sans" font-size="10.00">MetaBAT2</text>
</g>
<!-- megahit&#45;&gt;metabat2 -->
<g id="edge9" class="edge">
<title>megahit&#45;&gt;metabat2</title>
<path fill="none" stroke="grey" stroke-width="2" d="M470,-379.9C478.88,-377.5 488.77,-374.83 498.26,-372.27"/>
<polygon fill="grey" stroke="grey" stroke-width="2" points="499.19,-375.64 507.93,-369.66 497.36,-368.89 499.19,-375.64"/>
</g>
<!-- genomad -->
<g id="node21" class="node">
<title>genomad</title>
<path fill="none" stroke="green" stroke-width="2" d="M561,-203C561,-203 521,-203 521,-203 515,-203 509,-197 509,-191 509,-191 509,-179 509,-179 509,-173 515,-167 521,-167 521,-167 561,-167 561,-167 567,-167 573,-173 573,-179 573,-179 573,-191 573,-191 573,-197 567,-203 561,-203"/>
<text text-anchor="middle" x="541" y="-182.5" font-family="sans" font-size="10.00">geNomad</text>
</g>
<!-- megahit&#45;&gt;genomad -->
<g id="edge25" class="edge">
<title>megahit&#45;&gt;genomad</title>
<path fill="none" stroke="grey" stroke-width="2" d="M448.87,-369.99C466.44,-334.34 505.71,-254.6 526.5,-212.41"/>
<polygon fill="grey" stroke="grey" stroke-width="2" points="529.72,-213.78 531,-203.27 523.44,-210.69 529.72,-213.78"/>
</g>
<!-- magscot -->
<g id="node13" class="node">
<title>magscot</title>
<path fill="none" stroke="#a7d856" stroke-width="2" d="M661,-441C661,-441 622,-441 622,-441 616,-441 610,-435 610,-429 610,-429 610,-417 610,-417 610,-411 616,-405 622,-405 622,-405 661,-405 661,-405 667,-405 673,-411 673,-417 673,-417 673,-429 673,-429 673,-435 667,-441 661,-441"/>
<text text-anchor="middle" x="641.5" y="-420.5" font-family="sans" font-size="10.00">MAGScoT</text>
</g>
<!-- concoct&#45;&gt;magscot -->
<g id="edge11" class="edge">
<title>concoct&#45;&gt;magscot</title>
<path fill="none" stroke="grey" stroke-width="2" d="M573.71,-454.19C582.31,-450.18 591.73,-445.78 600.71,-441.58"/>
<polygon fill="grey" stroke="grey" stroke-width="2" points="602.28,-444.71 609.86,-437.31 599.32,-438.37 602.28,-444.71"/>
</g>
<!-- maxbin2&#45;&gt;magscot -->
<g id="edge12" class="edge">
<title>maxbin2&#45;&gt;magscot</title>
<path fill="none" stroke="grey" stroke-width="2" d="M570.76,-417.34C579.76,-418.07 589.88,-418.89 599.56,-419.68"/>
<polygon fill="grey" stroke="grey" stroke-width="2" points="599.57,-423.19 609.82,-420.51 600.14,-416.21 599.57,-423.19"/>
</g>
<!-- metabat2&#45;&gt;magscot -->
<g id="edge10" class="edge">
<title>metabat2&#45;&gt;magscot</title>
<path fill="none" stroke="grey" stroke-width="2" d="M570.76,-379.1C580.87,-385.47 592.39,-392.72 603.11,-399.46"/>
<polygon fill="grey" stroke="grey" stroke-width="2" points="601.55,-402.62 611.88,-404.99 605.28,-396.7 601.55,-402.62"/>
</g>
<!-- drep -->
<g id="node14" class="node">
<title>drep</title>
<path fill="none" stroke="#61d856" stroke-width="2" d="M755.5,-456C755.5,-456 725.5,-456 725.5,-456 719.5,-456 713.5,-450 713.5,-444 713.5,-444 713.5,-432 713.5,-432 713.5,-426 719.5,-420 725.5,-420 725.5,-420 755.5,-420 755.5,-420 761.5,-420 767.5,-426 767.5,-432 767.5,-432 767.5,-444 767.5,-444 767.5,-450 761.5,-456 755.5,-456"/>
<text text-anchor="middle" x="740.5" y="-435.5" font-family="sans" font-size="10.00">dRep</text>
</g>
<!-- magscot&#45;&gt;drep -->
<g id="edge13" class="edge">
<title>magscot&#45;&gt;drep</title>
<path fill="none" stroke="grey" stroke-width="2" d="M673.19,-427.75C682.75,-429.22 693.38,-430.87 703.28,-432.4"/>
<polygon fill="grey" stroke="grey" stroke-width="2" points="702.83,-435.87 713.25,-433.94 703.9,-428.95 702.83,-435.87"/>
</g>
<!-- bowtie2_drep -->
<g id="node15" class="node">
<title>bowtie2_drep</title>
<path fill="none" stroke="#3c540b" stroke-width="2" d="M856,-371C856,-371 824,-371 824,-371 818,-371 812,-365 812,-359 812,-359 812,-347 812,-347 812,-341 818,-335 824,-335 824,-335 856,-335 856,-335 862,-335 868,-341 868,-347 868,-347 868,-359 868,-359 868,-365 862,-371 856,-371"/>
<text text-anchor="middle" x="840" y="-356" font-family="sans" font-size="10.00">bowtie2</text>
<text text-anchor="middle" x="840" y="-345" font-family="sans" font-size="10.00">MAGs</text>
</g>
<!-- drep&#45;&gt;bowtie2_drep -->
<g id="edge20" class="edge">
<title>drep&#45;&gt;bowtie2_drep</title>
<path fill="none" stroke="grey" stroke-width="2" d="M762.18,-419.97C776.27,-407.69 795.1,-391.27 810.6,-377.76"/>
<polygon fill="grey" stroke="grey" stroke-width="2" points="813.11,-380.21 818.35,-371 808.51,-374.93 813.11,-380.21"/>
</g>
<!-- gtdbtk -->
<g id="node17" class="node">
<title>gtdbtk</title>
<path fill="none" stroke="#56d85b" stroke-width="2" d="M858,-564C858,-564 822,-564 822,-564 816,-564 810,-558 810,-552 810,-552 810,-540 810,-540 810,-534 816,-528 822,-528 822,-528 858,-528 858,-528 864,-528 870,-534 870,-540 870,-540 870,-552 870,-552 870,-558 864,-564 858,-564"/>
<text text-anchor="middle" x="840" y="-543.5" font-family="sans" font-size="10.00">GTDB&#45;TK</text>
</g>
<!-- drep&#45;&gt;gtdbtk -->
<g id="edge19" class="edge">
<title>drep&#45;&gt;gtdbtk</title>
<path fill="none" stroke="grey" stroke-width="2" d="M751.47,-456.21C761.62,-473.68 778.59,-500.1 798,-519 799.22,-520.19 800.49,-521.35 801.81,-522.49"/>
<polygon fill="grey" stroke="grey" stroke-width="2" points="799.7,-525.28 809.72,-528.72 804.03,-519.78 799.7,-525.28"/>
</g>
<!-- checkm -->
<g id="node19" class="node">
<title>checkm</title>
<path fill="none" stroke="#66b76e" stroke-width="2" d="M859,-510C859,-510 821,-510 821,-510 815,-510 809,-504 809,-498 809,-498 809,-486 809,-486 809,-480 815,-474 821,-474 821,-474 859,-474 859,-474 865,-474 871,-480 871,-486 871,-486 871,-498 871,-498 871,-504 865,-510 859,-510"/>
<text text-anchor="middle" x="840" y="-489.5" font-family="sans" font-size="10.00">CheckM2</text>
</g>
<!-- drep&#45;&gt;checkm -->
<g id="edge21" class="edge">
<title>drep&#45;&gt;checkm</title>
<path fill="none" stroke="grey" stroke-width="2" d="M767.63,-452.47C777.5,-457.94 788.96,-464.29 799.77,-470.27"/>
<polygon fill="grey" stroke="grey" stroke-width="2" points="798.21,-473.41 808.65,-475.19 801.6,-467.28 798.21,-473.41"/>
</g>
<!-- quast -->
<g id="node20" class="node">
<title>quast</title>
<path fill="none" stroke="#2a1938" stroke-width="2" d="M855,-456C855,-456 825,-456 825,-456 819,-456 813,-450 813,-444 813,-444 813,-432 813,-432 813,-426 819,-420 825,-420 825,-420 855,-420 855,-420 861,-420 867,-426 867,-432 867,-432 867,-444 867,-444 867,-450 861,-456 855,-456"/>
<text text-anchor="middle" x="840" y="-435.5" font-family="sans" font-size="10.00">QUAST</text>
</g>
<!-- drep&#45;&gt;quast -->
<g id="edge22" class="edge">
<title>drep&#45;&gt;quast</title>
<path fill="none" stroke="grey" stroke-width="2" d="M767.63,-438C778.34,-438 790.92,-438 802.51,-438"/>
<polygon fill="grey" stroke="grey" stroke-width="2" points="802.8,-441.5 812.8,-438 802.8,-434.5 802.8,-441.5"/>
</g>
<!-- coverm -->
<g id="node16" class="node">
<title>coverm</title>
<path fill="none" stroke="#56d8a9" stroke-width="2" d="M955.5,-371C955.5,-371 925.5,-371 925.5,-371 919.5,-371 913.5,-365 913.5,-359 913.5,-359 913.5,-347 913.5,-347 913.5,-341 919.5,-335 925.5,-335 925.5,-335 955.5,-335 955.5,-335 961.5,-335 967.5,-341 967.5,-347 967.5,-347 967.5,-359 967.5,-359 967.5,-365 961.5,-371 955.5,-371"/>
<text text-anchor="middle" x="940.5" y="-350.5" font-family="sans" font-size="10.00">CoverM</text>
</g>
<!-- bowtie2_drep&#45;&gt;coverm -->
<g id="edge14" class="edge">
<title>bowtie2_drep&#45;&gt;coverm</title>
<path fill="none" stroke="grey" stroke-width="2" d="M868.18,-353C878.99,-353 891.59,-353 903.17,-353"/>
<polygon fill="grey" stroke="grey" stroke-width="2" points="903.43,-356.5 913.43,-353 903.43,-349.5 903.43,-356.5"/>
</g>
<!-- dram -->
<g id="node18" class="node">
<title>dram</title>
<path fill="none" stroke="#d85e56" stroke-width="2" d="M955.5,-564C955.5,-564 925.5,-564 925.5,-564 919.5,-564 913.5,-558 913.5,-552 913.5,-552 913.5,-540 913.5,-540 913.5,-534 919.5,-528 925.5,-528 925.5,-528 955.5,-528 955.5,-528 961.5,-528 967.5,-534 967.5,-540 967.5,-540 967.5,-552 967.5,-552 967.5,-558 961.5,-564 955.5,-564"/>
<text text-anchor="middle" x="940.5" y="-543.5" font-family="sans" font-size="10.00">DRAM</text>
</g>
<!-- gtdbtk&#45;&gt;dram -->
<g id="edge15" class="edge">
<title>gtdbtk&#45;&gt;dram</title>
<path fill="none" stroke="grey" stroke-width="2" d="M870.02,-546C880.43,-546 892.29,-546 903.24,-546"/>
<polygon fill="grey" stroke="grey" stroke-width="2" points="903.37,-549.5 913.37,-546 903.37,-542.5 903.37,-549.5"/>
</g>
<!-- dedupe -->
<g id="node22" class="node">
<title>dedupe</title>
<path fill="none" stroke="green" stroke-width="2" d="M656.5,-203C656.5,-203 626.5,-203 626.5,-203 620.5,-203 614.5,-197 614.5,-191 614.5,-191 614.5,-179 614.5,-179 614.5,-173 620.5,-167 626.5,-167 626.5,-167 656.5,-167 656.5,-167 662.5,-167 668.5,-173 668.5,-179 668.5,-179 668.5,-191 668.5,-191 668.5,-197 662.5,-203 656.5,-203"/>
<text text-anchor="middle" x="641.5" y="-182.5" font-family="sans" font-size="10.00">Dedupe</text>
</g>
<!-- genomad&#45;&gt;dedupe -->
<g id="edge23" class="edge">
<title>genomad&#45;&gt;dedupe</title>
<path fill="none" stroke="grey" stroke-width="2" d="M573.17,-185C583.04,-185 594.04,-185 604.23,-185"/>
<polygon fill="grey" stroke="grey" stroke-width="2" points="604.49,-188.5 614.49,-185 604.49,-181.5 604.49,-188.5"/>
</g>
<!-- mmseqs2 -->
<g id="node23" class="node">
<title>mmseqs2</title>
<path fill="none" stroke="red" stroke-width="2" d="M760,-203C760,-203 721,-203 721,-203 715,-203 709,-197 709,-191 709,-191 709,-179 709,-179 709,-173 715,-167 721,-167 721,-167 760,-167 760,-167 766,-167 772,-173 772,-179 772,-179 772,-191 772,-191 772,-197 766,-203 760,-203"/>
<text text-anchor="middle" x="740.5" y="-182.5" font-family="sans" font-size="10.00">MMseqs2</text>
</g>
<!-- dedupe&#45;&gt;mmseqs2 -->
<g id="edge24" class="edge">
<title>dedupe&#45;&gt;mmseqs2</title>
<path fill="none" stroke="grey" stroke-width="2" d="M668.75,-185C677.91,-185 688.42,-185 698.5,-185"/>
<polygon fill="grey" stroke="grey" stroke-width="2" points="698.76,-188.5 708.76,-185 698.76,-181.5 698.76,-188.5"/>
</g>
<!-- bowtie2v -->
<g id="node24" class="node">
<title>bowtie2v</title>
<path fill="none" stroke="#3c540b" stroke-width="2" d="M856,-64C856,-64 824,-64 824,-64 818,-64 812,-58 812,-52 812,-52 812,-40 812,-40 812,-34 818,-28 824,-28 824,-28 856,-28 856,-28 862,-28 868,-34 868,-40 868,-40 868,-52 868,-52 868,-58 862,-64 856,-64"/>
<text text-anchor="middle" x="840" y="-49" font-family="sans" font-size="10.00">bowtie2</text>
<text text-anchor="middle" x="840" y="-38" font-family="sans" font-size="10.00">vOTUs</text>
</g>
<!-- mmseqs2&#45;&gt;bowtie2v -->
<g id="edge27" class="edge">
<title>mmseqs2&#45;&gt;bowtie2v</title>
<path fill="none" stroke="grey" stroke-width="2" d="M752.79,-166.94C763.92,-149.35 781.6,-121.97 798,-99 804.28,-90.19 811.41,-80.79 817.95,-72.39"/>
<polygon fill="grey" stroke="grey" stroke-width="2" points="820.81,-74.41 824.22,-64.38 815.3,-70.09 820.81,-74.41"/>
</g>
<!-- genomad2 -->
<g id="node26" class="node">
<title>genomad2</title>
<path fill="none" stroke="green" stroke-width="2" d="M860,-257C860,-257 820,-257 820,-257 814,-257 808,-251 808,-245 808,-245 808,-233 808,-233 808,-227 814,-221 820,-221 820,-221 860,-221 860,-221 866,-221 872,-227 872,-233 872,-233 872,-245 872,-245 872,-251 866,-257 860,-257"/>
<text text-anchor="middle" x="840" y="-236.5" font-family="sans" font-size="10.00">geNomad</text>
</g>
<!-- mmseqs2&#45;&gt;genomad2 -->
<g id="edge31" class="edge">
<title>mmseqs2&#45;&gt;genomad2</title>
<path fill="none" stroke="grey" stroke-width="2" d="M772.08,-201.94C780.63,-206.67 790.04,-211.88 799.04,-216.87"/>
<polygon fill="grey" stroke="grey" stroke-width="2" points="797.41,-219.97 807.86,-221.75 800.8,-213.84 797.41,-219.97"/>
</g>
<!-- quastv -->
<g id="node29" class="node">
<title>quastv</title>
<path fill="none" stroke="#2a1938" stroke-width="2" d="M855,-203C855,-203 825,-203 825,-203 819,-203 813,-197 813,-191 813,-191 813,-179 813,-179 813,-173 819,-167 825,-167 825,-167 855,-167 855,-167 861,-167 867,-173 867,-179 867,-179 867,-191 867,-191 867,-197 861,-203 855,-203"/>
<text text-anchor="middle" x="840" y="-182.5" font-family="sans" font-size="10.00">QUAST</text>
</g>
<!-- mmseqs2&#45;&gt;quastv -->
<g id="edge32" class="edge">
<title>mmseqs2&#45;&gt;quastv</title>
<path fill="none" stroke="grey" stroke-width="2" d="M772.08,-185C781.78,-185 792.6,-185 802.66,-185"/>
<polygon fill="grey" stroke="grey" stroke-width="2" points="802.8,-188.5 812.8,-185 802.8,-181.5 802.8,-188.5"/>
</g>
<!-- checkv -->
<g id="node30" class="node">
<title>checkv</title>
<path fill="none" stroke="#2a1938" stroke-width="2" d="M855,-149C855,-149 825,-149 825,-149 819,-149 813,-143 813,-137 813,-137 813,-125 813,-125 813,-119 819,-113 825,-113 825,-113 855,-113 855,-113 861,-113 867,-119 867,-125 867,-125 867,-137 867,-137 867,-143 861,-149 855,-149"/>
<text text-anchor="middle" x="840" y="-128.5" font-family="sans" font-size="10.00">CheckV</text>
</g>
<!-- mmseqs2&#45;&gt;checkv -->
<g id="edge30" class="edge">
<title>mmseqs2&#45;&gt;checkv</title>
<path fill="none" stroke="grey" stroke-width="2" d="M772.08,-168.06C782.19,-162.46 793.51,-156.19 803.93,-150.42"/>
<polygon fill="grey" stroke="grey" stroke-width="2" points="805.74,-153.42 812.8,-145.51 802.35,-147.3 805.74,-153.42"/>
</g>
<!-- covermv -->
<g id="node25" class="node">
<title>covermv</title>
<path fill="none" stroke="#56d8a9" stroke-width="2" d="M955.5,-64C955.5,-64 925.5,-64 925.5,-64 919.5,-64 913.5,-58 913.5,-52 913.5,-52 913.5,-40 913.5,-40 913.5,-34 919.5,-28 925.5,-28 925.5,-28 955.5,-28 955.5,-28 961.5,-28 967.5,-34 967.5,-40 967.5,-40 967.5,-52 967.5,-52 967.5,-58 961.5,-64 955.5,-64"/>
<text text-anchor="middle" x="940.5" y="-43.5" font-family="sans" font-size="10.00">CoverM</text>
</g>
<!-- bowtie2v&#45;&gt;covermv -->
<g id="edge26" class="edge">
<title>bowtie2v&#45;&gt;covermv</title>
<path fill="none" stroke="grey" stroke-width="2" d="M868.18,-46C878.99,-46 891.59,-46 903.17,-46"/>
<polygon fill="grey" stroke="grey" stroke-width="2" points="903.43,-49.5 913.43,-46 903.43,-42.5 903.43,-49.5"/>
</g>
<!-- virsorter2 -->
<g id="node27" class="node">
<title>virsorter2</title>
<path fill="none" stroke="green" stroke-width="2" d="M961,-257C961,-257 920,-257 920,-257 914,-257 908,-251 908,-245 908,-245 908,-233 908,-233 908,-227 914,-221 920,-221 920,-221 961,-221 961,-221 967,-221 973,-227 973,-233 973,-233 973,-245 973,-245 973,-251 967,-257 961,-257"/>
<text text-anchor="middle" x="940.5" y="-236.5" font-family="sans" font-size="10.00">VirSorter2</text>
</g>
<!-- genomad2&#45;&gt;virsorter2 -->
<g id="edge28" class="edge">
<title>genomad2&#45;&gt;virsorter2</title>
<path fill="none" stroke="grey" stroke-width="2" d="M872.17,-239C880.26,-239 889.11,-239 897.66,-239"/>
<polygon fill="grey" stroke="grey" stroke-width="2" points="897.86,-242.5 907.86,-239 897.86,-235.5 897.86,-242.5"/>
</g>
<!-- dramv -->
<g id="node28" class="node">
<title>dramv</title>
<path fill="none" stroke="green" stroke-width="2" d="M1053,-257C1053,-257 1021,-257 1021,-257 1015,-257 1009,-251 1009,-245 1009,-245 1009,-233 1009,-233 1009,-227 1015,-221 1021,-221 1021,-221 1053,-221 1053,-221 1059,-221 1065,-227 1065,-233 1065,-233 1065,-245 1065,-245 1065,-251 1059,-257 1053,-257"/>
<text text-anchor="middle" x="1037" y="-236.5" font-family="sans" font-size="10.00">DRAM&#45;V</text>
</g>
<!-- virsorter2&#45;&gt;dramv -->
<g id="edge29" class="edge">
<title>virsorter2&#45;&gt;dramv</title>
<path fill="none" stroke="grey" stroke-width="2" d="M973.23,-239C981.46,-239 990.41,-239 998.89,-239"/>
<polygon fill="grey" stroke="grey" stroke-width="2" points="998.93,-242.5 1008.93,-239 998.93,-235.5 998.93,-242.5"/>
</g>
</g>
</svg>
