<?xml version="1.0" encoding="UTF-8" standalone="no"?>
<!DOCTYPE svg PUBLIC "-//W3C//DTD SVG 1.1//EN"
 "http://www.w3.org/Graphics/SVG/1.1/DTD/svg11.dtd">
<!-- Generated by graphviz version 2.43.0 (0)
 -->
<!-- Title: snakemake_dag Pages: 1 -->
<svg width="987pt" height="420pt"
 viewBox="0.00 0.00 987.00 420.00" xmlns="http://www.w3.org/2000/svg" xmlns:xlink="http://www.w3.org/1999/xlink">
<g id="graph0" class="graph" transform="scale(1 1) rotate(0) translate(4 416)">
<title>snakemake_dag</title>
<polygon fill="white" stroke="transparent" points="-4,4 -4,-416 983,-416 983,4 -4,4"/>
<g id="clust1" class="cluster">
<title>cluster_0</title>
<path fill="white" stroke="black" stroke-width="2" d="M20,-116C20,-116 82,-116 82,-116 88,-116 94,-122 94,-128 94,-128 94,-233 94,-233 94,-239 88,-245 82,-245 82,-245 20,-245 20,-245 14,-245 8,-239 8,-233 8,-233 8,-128 8,-128 8,-122 14,-116 20,-116"/>
<text text-anchor="middle" x="51" y="-233" font-family="sans" font-size="10.00">Input</text>
</g>
<g id="clust2" class="cluster">
<title>cluster_1</title>
<path fill="white" stroke="black" stroke-width="2" d="M122,-8C122,-8 370,-8 370,-8 376,-8 382,-14 382,-20 382,-20 382,-233 382,-233 382,-239 376,-245 370,-245 370,-245 122,-245 122,-245 116,-245 110,-239 110,-233 110,-233 110,-20 110,-20 110,-14 116,-8 122,-8"/>
<text text-anchor="middle" x="246" y="-233" font-family="sans" font-size="10.00">Preprocess</text>
</g>
<g id="clust4" class="cluster">
<title>cluster_2</title>
<path fill="white" stroke="black" stroke-width="2" d="M410,-143C410,-143 759,-143 759,-143 765,-143 771,-149 771,-155 771,-155 771,-314 771,-314 771,-320 765,-326 759,-326 759,-326 410,-326 410,-326 404,-326 398,-320 398,-314 398,-314 398,-155 398,-155 398,-149 404,-143 410,-143"/>
<text text-anchor="middle" x="584.5" y="-314" font-family="sans" font-size="10.00">Assemble</text>
</g>
<g id="clust5" class="cluster">
<title>cluster_6_space</title>
</g>
<g id="clust6" class="cluster">
<title>cluster_6</title>
<path fill="white" stroke="black" stroke-width="2" stroke-dasharray="5,2" d="M804,-319C804,-319 949,-319 949,-319 955,-319 961,-325 961,-331 961,-331 961,-382 961,-382 961,-388 955,-394 949,-394 949,-394 804,-394 804,-394 798,-394 792,-388 792,-382 792,-382 792,-331 792,-331 792,-325 798,-319 804,-319"/>
<text text-anchor="middle" x="876.5" y="-382" font-family="sans" font-size="10.00">Quantify</text>
</g>
<g id="clust7" class="cluster">
<title>cluster_7_space</title>
</g>
<g id="clust8" class="cluster">
<title>cluster_7</title>
<path fill="white" stroke="black" stroke-width="2" stroke-dasharray="5,2" d="M801,-116C801,-116 949,-116 949,-116 955,-116 961,-122 961,-128 961,-128 961,-287 961,-287 961,-293 955,-299 949,-299 949,-299 801,-299 801,-299 795,-299 789,-293 789,-287 789,-287 789,-128 789,-128 789,-122 795,-116 801,-116"/>
<text text-anchor="middle" x="875" y="-287" font-family="sans" font-size="10.00">Annotate</text>
</g>
<g id="clust9" class="cluster">
<title>cluster_5_space</title>
</g>
<g id="clust10" class="cluster">
<title>cluster_5</title>
<path fill="white" stroke="black" stroke-width="2" stroke-dasharray="5,2" d="M514,-58C514,-58 564,-58 564,-58 570,-58 576,-64 576,-70 576,-70 576,-121 576,-121 576,-127 570,-133 564,-133 564,-133 514,-133 514,-133 508,-133 502,-127 502,-121 502,-121 502,-70 502,-70 502,-64 508,-58 514,-58"/>
<text text-anchor="middle" x="539" y="-121" font-family="sans" font-size="10.00">Virify</text>
</g>
<!-- reference -->
<g id="node1" class="node">
<title>reference</title>
<path fill="none" stroke="#56d86b" stroke-width="2" d="M72,-216C72,-216 30,-216 30,-216 24,-216 18,-210 18,-204 18,-204 18,-192 18,-192 18,-186 24,-180 30,-180 30,-180 72,-180 72,-180 78,-180 84,-186 84,-192 84,-192 84,-204 84,-204 84,-210 78,-216 72,-216"/>
<text text-anchor="middle" x="51" y="-201" font-family="sans" font-size="10.00">Reference</text>
<text text-anchor="middle" x="51" y="-190" font-family="sans" font-size="10.00">Genome</text>
</g>
<!-- bowtie2 -->
<g id="node3" class="node">
<title>bowtie2</title>
<path fill="none" stroke="#566bd8" stroke-width="2" d="M258,-216C258,-216 226,-216 226,-216 220,-216 214,-210 214,-204 214,-204 214,-192 214,-192 214,-186 220,-180 226,-180 226,-180 258,-180 258,-180 264,-180 270,-186 270,-192 270,-192 270,-204 270,-204 270,-210 264,-216 258,-216"/>
<text text-anchor="middle" x="242" y="-201" font-family="sans" font-size="10.00">bowtie2</text>
<text text-anchor="middle" x="242" y="-190" font-family="sans" font-size="10.00">Host</text>
</g>
<!-- reference&#45;&gt;bowtie2 -->
<g id="edge15" class="edge">
<title>reference&#45;&gt;bowtie2</title>
<path fill="none" stroke="grey" stroke-width="2" d="M84.06,-198C117.18,-198 168.82,-198 203.73,-198"/>
<polygon fill="grey" stroke="grey" stroke-width="2" points="203.99,-201.5 213.99,-198 203.99,-194.5 203.99,-201.5"/>
</g>
<!-- fastq -->
<g id="node2" class="node">
<title>fastq</title>
<path fill="none" stroke="#56d873" stroke-width="2" d="M66,-162C66,-162 36,-162 36,-162 30,-162 24,-156 24,-150 24,-150 24,-138 24,-138 24,-132 30,-126 36,-126 36,-126 66,-126 66,-126 72,-126 78,-132 78,-138 78,-138 78,-150 78,-150 78,-156 72,-162 66,-162"/>
<text text-anchor="middle" x="51" y="-147" font-family="sans" font-size="10.00">FASTQ</text>
<text text-anchor="middle" x="51" y="-136" font-family="sans" font-size="10.00">reads</text>
</g>
<!-- fastp -->
<g id="node5" class="node">
<title>fastp</title>
<path fill="none" stroke="#56d892" stroke-width="2" d="M162,-162C162,-162 132,-162 132,-162 126,-162 120,-156 120,-150 120,-150 120,-138 120,-138 120,-132 126,-126 132,-126 132,-126 162,-126 162,-126 168,-126 174,-132 174,-138 174,-138 174,-150 174,-150 174,-156 168,-162 162,-162"/>
<text text-anchor="middle" x="147" y="-141.5" font-family="sans" font-size="10.00">fastp</text>
</g>
<!-- fastq&#45;&gt;fastp -->
<g id="edge16" class="edge">
<title>fastq&#45;&gt;fastp</title>
<path fill="none" stroke="grey" stroke-width="2" d="M78.18,-144C87.96,-144 99.25,-144 109.77,-144"/>
<polygon fill="grey" stroke="grey" stroke-width="2" points="109.96,-147.5 119.96,-144 109.96,-140.5 109.96,-147.5"/>
</g>
<!-- extract -->
<g id="node4" class="node">
<title>extract</title>
<path fill="none" stroke="#56d8b9" stroke-width="2" d="M360,-216C360,-216 322,-216 322,-216 316,-216 310,-210 310,-204 310,-204 310,-192 310,-192 310,-186 316,-180 322,-180 322,-180 360,-180 360,-180 366,-180 372,-186 372,-192 372,-192 372,-204 372,-204 372,-210 366,-216 360,-216"/>
<text text-anchor="middle" x="341" y="-201" font-family="sans" font-size="10.00">Extract</text>
<text text-anchor="middle" x="341" y="-190" font-family="sans" font-size="10.00">Non&#45;Host</text>
</g>
<!-- bowtie2&#45;&gt;extract -->
<g id="edge5" class="edge">
<title>bowtie2&#45;&gt;extract</title>
<path fill="none" stroke="grey" stroke-width="2" d="M270.02,-198C279.17,-198 289.61,-198 299.57,-198"/>
<polygon fill="grey" stroke="grey" stroke-width="2" points="299.71,-201.5 309.71,-198 299.71,-194.5 299.71,-201.5"/>
</g>
<!-- megahit -->
<g id="node9" class="node">
<title>megahit</title>
<path fill="none" stroke="#d8ac56" stroke-width="2" d="M458,-216C458,-216 420,-216 420,-216 414,-216 408,-210 408,-204 408,-204 408,-192 408,-192 408,-186 414,-180 420,-180 420,-180 458,-180 458,-180 464,-180 470,-186 470,-192 470,-192 470,-204 470,-204 470,-210 464,-216 458,-216"/>
<text text-anchor="middle" x="439" y="-195.5" font-family="sans" font-size="10.00">MEGAHIT</text>
</g>
<!-- extract&#45;&gt;megahit -->
<g id="edge17" class="edge">
<title>extract&#45;&gt;megahit</title>
<path fill="none" stroke="grey" stroke-width="2" d="M372.11,-198C380.24,-198 389.17,-198 397.76,-198"/>
<polygon fill="grey" stroke="grey" stroke-width="2" points="398,-201.5 408,-198 398,-194.5 398,-201.5"/>
</g>
<!-- fastp&#45;&gt;bowtie2 -->
<g id="edge1" class="edge">
<title>fastp&#45;&gt;bowtie2</title>
<path fill="none" stroke="grey" stroke-width="2" d="M174.4,-159.33C183.95,-164.88 194.91,-171.24 205.14,-177.18"/>
<polygon fill="grey" stroke="grey" stroke-width="2" points="203.48,-180.26 213.89,-182.26 207,-174.21 203.48,-180.26"/>
</g>
<!-- nonpareil -->
<g id="node6" class="node">
<title>nonpareil</title>
<path fill="none" stroke="#a7d856" stroke-width="2" stroke-dasharray="5,2" d="M262,-54C262,-54 222,-54 222,-54 216,-54 210,-48 210,-42 210,-42 210,-30 210,-30 210,-24 216,-18 222,-18 222,-18 262,-18 262,-18 268,-18 274,-24 274,-30 274,-30 274,-42 274,-42 274,-48 268,-54 262,-54"/>
<text text-anchor="middle" x="242" y="-33.5" font-family="sans" font-size="10.00">Nonpareil</text>
</g>
<!-- fastp&#45;&gt;nonpareil -->
<g id="edge2" class="edge">
<title>fastp&#45;&gt;nonpareil</title>
<path fill="none" stroke="grey" stroke-width="2" d="M160.34,-125.8C172.21,-108.81 191.09,-83.14 210,-63 210.62,-62.34 211.25,-61.68 211.9,-61.02"/>
<polygon fill="grey" stroke="grey" stroke-width="2" points="214.36,-63.51 219.14,-54.05 209.5,-58.47 214.36,-63.51"/>
</g>
<!-- singlem -->
<g id="node7" class="node">
<title>singlem</title>
<path fill="none" stroke="#d8ac56" stroke-width="2" stroke-dasharray="5,2" d="M258,-108C258,-108 226,-108 226,-108 220,-108 214,-102 214,-96 214,-96 214,-84 214,-84 214,-78 220,-72 226,-72 226,-72 258,-72 258,-72 264,-72 270,-78 270,-84 270,-84 270,-96 270,-96 270,-102 264,-108 258,-108"/>
<text text-anchor="middle" x="242" y="-87.5" font-family="sans" font-size="10.00">SingleM</text>
</g>
<!-- fastp&#45;&gt;singlem -->
<g id="edge3" class="edge">
<title>fastp&#45;&gt;singlem</title>
<path fill="none" stroke="grey" stroke-width="2" d="M174.4,-128.67C183.95,-123.12 194.91,-116.76 205.14,-110.82"/>
<polygon fill="grey" stroke="grey" stroke-width="2" points="207,-113.79 213.89,-105.74 203.48,-107.74 207,-113.79"/>
</g>
<!-- kraken2 -->
<g id="node8" class="node">
<title>kraken2</title>
<path fill="none" stroke="#61d856" stroke-width="2" d="M258,-162C258,-162 226,-162 226,-162 220,-162 214,-156 214,-150 214,-150 214,-138 214,-138 214,-132 220,-126 226,-126 226,-126 258,-126 258,-126 264,-126 270,-132 270,-138 270,-138 270,-150 270,-150 270,-156 264,-162 258,-162"/>
<text text-anchor="middle" x="242" y="-141.5" font-family="sans" font-size="10.00">kraken2</text>
</g>
<!-- fastp&#45;&gt;kraken2 -->
<g id="edge4" class="edge">
<title>fastp&#45;&gt;kraken2</title>
<path fill="none" stroke="grey" stroke-width="2" d="M174.4,-144C183.47,-144 193.81,-144 203.58,-144"/>
<polygon fill="grey" stroke="grey" stroke-width="2" points="203.89,-147.5 213.89,-144 203.89,-140.5 203.89,-147.5"/>
</g>
<!-- concoct -->
<g id="node10" class="node">
<title>concoct</title>
<path fill="none" stroke="#56d86b" stroke-width="2" d="M559.5,-189C559.5,-189 518.5,-189 518.5,-189 512.5,-189 506.5,-183 506.5,-177 506.5,-177 506.5,-165 506.5,-165 506.5,-159 512.5,-153 518.5,-153 518.5,-153 559.5,-153 559.5,-153 565.5,-153 571.5,-159 571.5,-165 571.5,-165 571.5,-177 571.5,-177 571.5,-183 565.5,-189 559.5,-189"/>
<text text-anchor="middle" x="539" y="-168.5" font-family="sans" font-size="10.00">CONCOCT</text>
</g>
<!-- megahit&#45;&gt;concoct -->
<g id="edge6" class="edge">
<title>megahit&#45;&gt;concoct</title>
<path fill="none" stroke="grey" stroke-width="2" d="M470.2,-189.68C478.54,-187.38 487.73,-184.85 496.58,-182.41"/>
<polygon fill="grey" stroke="grey" stroke-width="2" points="497.66,-185.74 506.37,-179.71 495.8,-179 497.66,-185.74"/>
</g>
<!-- maxbin2 -->
<g id="node11" class="node">
<title>maxbin2</title>
<path fill="none" stroke="#56c9d8" stroke-width="2" d="M556.5,-243C556.5,-243 521.5,-243 521.5,-243 515.5,-243 509.5,-237 509.5,-231 509.5,-231 509.5,-219 509.5,-219 509.5,-213 515.5,-207 521.5,-207 521.5,-207 556.5,-207 556.5,-207 562.5,-207 568.5,-213 568.5,-219 568.5,-219 568.5,-231 568.5,-231 568.5,-237 562.5,-243 556.5,-243"/>
<text text-anchor="middle" x="539" y="-222.5" font-family="sans" font-size="10.00">MaxBin2</text>
</g>
<!-- megahit&#45;&gt;maxbin2 -->
<g id="edge7" class="edge">
<title>megahit&#45;&gt;maxbin2</title>
<path fill="none" stroke="grey" stroke-width="2" d="M470.2,-206.32C479.47,-208.87 489.79,-211.72 499.53,-214.4"/>
<polygon fill="grey" stroke="grey" stroke-width="2" points="498.83,-217.84 509.4,-217.12 500.69,-211.09 498.83,-217.84"/>
</g>
<!-- metabat2 -->
<g id="node12" class="node">
<title>metabat2</title>
<path fill="none" stroke="#d86656" stroke-width="2" d="M560,-297C560,-297 518,-297 518,-297 512,-297 506,-291 506,-285 506,-285 506,-273 506,-273 506,-267 512,-261 518,-261 518,-261 560,-261 560,-261 566,-261 572,-267 572,-273 572,-273 572,-285 572,-285 572,-291 566,-297 560,-297"/>
<text text-anchor="middle" x="539" y="-276.5" font-family="sans" font-size="10.00">MetaBAT2</text>
</g>
<!-- megahit&#45;&gt;metabat2 -->
<g id="edge8" class="edge">
<title>megahit&#45;&gt;metabat2</title>
<path fill="none" stroke="grey" stroke-width="2" d="M455.28,-216.25C465.1,-227.34 478.51,-241.36 492,-252 493.58,-253.25 495.23,-254.48 496.91,-255.68"/>
<polygon fill="grey" stroke="grey" stroke-width="2" points="495.33,-258.83 505.58,-261.5 499.23,-253.02 495.33,-258.83"/>
</g>
<!-- virify -->
<g id="node21" class="node">
<title>virify</title>
<path fill="none" stroke="#abdbaf" stroke-width="2" stroke-dasharray="5,2" d="M554,-104C554,-104 524,-104 524,-104 518,-104 512,-98 512,-92 512,-92 512,-80 512,-80 512,-74 518,-68 524,-68 524,-68 554,-68 554,-68 560,-68 566,-74 566,-80 566,-80 566,-92 566,-92 566,-98 560,-104 554,-104"/>
<text text-anchor="middle" x="539" y="-83.5" font-family="sans" font-size="10.00">virify</text>
</g>
<!-- megahit&#45;&gt;virify -->
<g id="edge18" class="edge">
<title>megahit&#45;&gt;virify</title>
<path fill="none" stroke="grey" stroke-width="2" d="M456.18,-179.51C472.31,-161.08 497.21,-132.62 515.31,-111.93"/>
<polygon fill="grey" stroke="grey" stroke-width="2" points="518.17,-113.98 522.12,-104.15 512.9,-109.37 518.17,-113.98"/>
</g>
<!-- magscot -->
<g id="node13" class="node">
<title>magscot</title>
<path fill="none" stroke="#a7d856" stroke-width="2" d="M659,-243C659,-243 620,-243 620,-243 614,-243 608,-237 608,-231 608,-231 608,-219 608,-219 608,-213 614,-207 620,-207 620,-207 659,-207 659,-207 665,-207 671,-213 671,-219 671,-219 671,-231 671,-231 671,-237 665,-243 659,-243"/>
<text text-anchor="middle" x="639.5" y="-222.5" font-family="sans" font-size="10.00">MAGScoT</text>
</g>
<!-- concoct&#45;&gt;magscot -->
<g id="edge10" class="edge">
<title>concoct&#45;&gt;magscot</title>
<path fill="none" stroke="grey" stroke-width="2" d="M571.71,-188.38C580.4,-193.15 589.92,-198.37 598.99,-203.34"/>
<polygon fill="grey" stroke="grey" stroke-width="2" points="597.41,-206.46 607.86,-208.2 600.77,-200.33 597.41,-206.46"/>
</g>
<!-- maxbin2&#45;&gt;magscot -->
<g id="edge11" class="edge">
<title>maxbin2&#45;&gt;magscot</title>
<path fill="none" stroke="grey" stroke-width="2" d="M568.76,-225C577.76,-225 587.88,-225 597.56,-225"/>
<polygon fill="grey" stroke="grey" stroke-width="2" points="597.82,-228.5 607.82,-225 597.82,-221.5 597.82,-228.5"/>
</g>
<!-- metabat2&#45;&gt;magscot -->
<g id="edge9" class="edge">
<title>metabat2&#45;&gt;magscot</title>
<path fill="none" stroke="grey" stroke-width="2" d="M572.25,-261.32C580.75,-256.66 590.01,-251.58 598.85,-246.74"/>
<polygon fill="grey" stroke="grey" stroke-width="2" points="600.76,-249.68 607.85,-241.8 597.4,-243.54 600.76,-249.68"/>
</g>
<!-- drep -->
<g id="node14" class="node">
<title>drep</title>
<path fill="none" stroke="#61d856" stroke-width="2" stroke-dasharray="5,2" d="M749,-243C749,-243 719,-243 719,-243 713,-243 707,-237 707,-231 707,-231 707,-219 707,-219 707,-213 713,-207 719,-207 719,-207 749,-207 749,-207 755,-207 761,-213 761,-219 761,-219 761,-231 761,-231 761,-237 755,-243 749,-243"/>
<text text-anchor="middle" x="734" y="-222.5" font-family="sans" font-size="10.00">dRep</text>
</g>
<!-- magscot&#45;&gt;drep -->
<g id="edge12" class="edge">
<title>magscot&#45;&gt;drep</title>
<path fill="none" stroke="grey" stroke-width="2" d="M671.04,-225C679.27,-225 688.26,-225 696.77,-225"/>
<polygon fill="grey" stroke="grey" stroke-width="2" points="696.83,-228.5 706.83,-225 696.83,-221.5 696.83,-228.5"/>
</g>
<!-- bowtie2_drep -->
<g id="node15" class="node">
<title>bowtie2_drep</title>
<path fill="none" stroke="#3c540b" stroke-width="2" stroke-dasharray="5,2" d="M846,-365C846,-365 814,-365 814,-365 808,-365 802,-359 802,-353 802,-353 802,-341 802,-341 802,-335 808,-329 814,-329 814,-329 846,-329 846,-329 852,-329 858,-335 858,-341 858,-341 858,-353 858,-353 858,-359 852,-365 846,-365"/>
<text text-anchor="middle" x="830" y="-350" font-family="sans" font-size="10.00">bowtie2</text>
<text text-anchor="middle" x="830" y="-339" font-family="sans" font-size="10.00">MAGs</text>
</g>
<!-- drep&#45;&gt;bowtie2_drep -->
<g id="edge20" class="edge">
<title>drep&#45;&gt;bowtie2_drep</title>
<path fill="none" stroke="grey" stroke-width="2" d="M743.05,-243.1C750.89,-259.64 763.82,-284.28 779,-303 784.5,-309.78 791.1,-316.38 797.67,-322.33"/>
<polygon fill="grey" stroke="grey" stroke-width="2" points="795.47,-325.05 805.32,-328.98 800.07,-319.77 795.47,-325.05"/>
</g>
<!-- gtdbtk -->
<g id="node17" class="node">
<title>gtdbtk</title>
<path fill="none" stroke="#56d85b" stroke-width="2" stroke-dasharray="5,2" d="M848,-270C848,-270 812,-270 812,-270 806,-270 800,-264 800,-258 800,-258 800,-246 800,-246 800,-240 806,-234 812,-234 812,-234 848,-234 848,-234 854,-234 860,-240 860,-246 860,-246 860,-258 860,-258 860,-264 854,-270 848,-270"/>
<text text-anchor="middle" x="830" y="-249.5" font-family="sans" font-size="10.00">GTDB&#45;TK</text>
</g>
<!-- drep&#45;&gt;gtdbtk -->
<g id="edge19" class="edge">
<title>drep&#45;&gt;gtdbtk</title>
<path fill="none" stroke="grey" stroke-width="2" d="M761.18,-232.52C770.13,-235.09 780.35,-238.03 790.08,-240.82"/>
<polygon fill="grey" stroke="grey" stroke-width="2" points="789.41,-244.27 799.98,-243.67 791.34,-237.54 789.41,-244.27"/>
</g>
<!-- quast -->
<g id="node19" class="node">
<title>quast</title>
<path fill="none" stroke="#56d87b" stroke-width="2" stroke-dasharray="5,2" d="M845,-216C845,-216 815,-216 815,-216 809,-216 803,-210 803,-204 803,-204 803,-192 803,-192 803,-186 809,-180 815,-180 815,-180 845,-180 845,-180 851,-180 857,-186 857,-192 857,-192 857,-204 857,-204 857,-210 851,-216 845,-216"/>
<text text-anchor="middle" x="830" y="-195.5" font-family="sans" font-size="10.00">QUAST</text>
</g>
<!-- drep&#45;&gt;quast -->
<g id="edge22" class="edge">
<title>drep&#45;&gt;quast</title>
<path fill="none" stroke="grey" stroke-width="2" d="M761.18,-217.48C771.06,-214.64 782.48,-211.36 793.1,-208.31"/>
<polygon fill="grey" stroke="grey" stroke-width="2" points="794.31,-211.61 802.96,-205.48 792.38,-204.88 794.31,-211.61"/>
</g>
<!-- checkm -->
<g id="node20" class="node">
<title>checkm</title>
<path fill="none" stroke="#66b76e" stroke-width="2" stroke-dasharray="5,2" d="M849,-162C849,-162 811,-162 811,-162 805,-162 799,-156 799,-150 799,-150 799,-138 799,-138 799,-132 805,-126 811,-126 811,-126 849,-126 849,-126 855,-126 861,-132 861,-138 861,-138 861,-150 861,-150 861,-156 855,-162 849,-162"/>
<text text-anchor="middle" x="830" y="-141.5" font-family="sans" font-size="10.00">CheckM2</text>
</g>
<!-- drep&#45;&gt;checkm -->
<g id="edge21" class="edge">
<title>drep&#45;&gt;checkm</title>
<path fill="none" stroke="grey" stroke-width="2" d="M746.95,-206.93C755.04,-195.64 766.51,-181.33 779,-171 782.47,-168.13 786.3,-165.42 790.24,-162.91"/>
<polygon fill="grey" stroke="grey" stroke-width="2" points="792.14,-165.86 798.96,-157.75 788.57,-159.83 792.14,-165.86"/>
</g>
<!-- coverm -->
<g id="node16" class="node">
<title>coverm</title>
<path fill="none" stroke="#56d8a9" stroke-width="2" stroke-dasharray="5,2" d="M939,-365C939,-365 909,-365 909,-365 903,-365 897,-359 897,-353 897,-353 897,-341 897,-341 897,-335 903,-329 909,-329 909,-329 939,-329 939,-329 945,-329 951,-335 951,-341 951,-341 951,-353 951,-353 951,-359 945,-365 939,-365"/>
<text text-anchor="middle" x="924" y="-344.5" font-family="sans" font-size="10.00">CoverM</text>
</g>
<!-- bowtie2_drep&#45;&gt;coverm -->
<g id="edge13" class="edge">
<title>bowtie2_drep&#45;&gt;coverm</title>
<path fill="none" stroke="grey" stroke-width="2" d="M858.11,-347C867.06,-347 877.17,-347 886.69,-347"/>
<polygon fill="grey" stroke="grey" stroke-width="2" points="886.72,-350.5 896.72,-347 886.72,-343.5 886.72,-350.5"/>
</g>
<!-- dram -->
<g id="node18" class="node">
<title>dram</title>
<path fill="none" stroke="#d85e56" stroke-width="2" stroke-dasharray="5,2" d="M939,-270C939,-270 909,-270 909,-270 903,-270 897,-264 897,-258 897,-258 897,-246 897,-246 897,-240 903,-234 909,-234 909,-234 939,-234 939,-234 945,-234 951,-240 951,-246 951,-246 951,-258 951,-258 951,-264 945,-270 939,-270"/>
<text text-anchor="middle" x="924" y="-249.5" font-family="sans" font-size="10.00">DRAM</text>
</g>
<!-- gtdbtk&#45;&gt;dram -->
<g id="edge14" class="edge">
<title>gtdbtk&#45;&gt;dram</title>
<path fill="none" stroke="grey" stroke-width="2" d="M860.11,-252C868.58,-252 877.95,-252 886.8,-252"/>
<polygon fill="grey" stroke="grey" stroke-width="2" points="886.88,-255.5 896.88,-252 886.88,-248.5 886.88,-255.5"/>
</g>
</g>
</svg>
